<svg width="40.000000" height="39.000000" viewBox="0 0 40 39" fill="none" xmlns="http://www.w3.org/2000/svg" xmlns:xlink="http://www.w3.org/1999/xlink">
	<desc>
			Created with Pixso.
	</desc>
	<defs/>
	<path id="Vector" d="M39.99 37.66L38.36 1.22C38.34 0.89 38.2 0.58 37.96 0.35C37.72 0.12 37.4 -0.01 37.07 0L29.5 0C29.17 -0.01 28.85 0.12 28.61 0.35C28.37 0.58 28.23 0.89 28.21 1.22L27.44 18.59L15.49 14.11C15.09 13.97 14.65 14.02 14.3 14.26C13.95 14.5 13.74 14.89 13.74 15.31L13.74 18.61L1.74 14.11C1.34 13.97 0.9 14.02 0.55 14.26C0.2 14.5 -0.01 14.89 0 15.31L0 37.72C0 38.06 0.13 38.38 0.37 38.62C0.61 38.86 0.94 39 1.28 39L38.71 39L38.71 39C39.06 39 39.39 38.85 39.64 38.6C39.88 38.35 40.01 38.01 39.99 37.66L39.99 37.66ZM2.57 17.15L13.74 21.34L13.74 36.44L11.55 36.44L11.55 33.28C11.55 31.96 10.84 30.75 9.7 30.09C8.55 29.44 7.13 29.44 5.98 30.09C4.83 30.75 4.13 31.96 4.13 33.28L4.13 36.44L2.57 36.44L2.57 17.15ZM8.97 36.44L6.7 36.44L6.7 33.28C6.7 32.87 6.92 32.5 7.27 32.3C7.62 32.1 8.06 32.1 8.41 32.3C8.76 32.5 8.97 32.87 8.97 33.28L8.97 36.44ZM35.83 2.56L36.1 8.51L30.47 8.51L30.73 2.56L35.83 2.56ZM16.32 17.15L27.3 21.27L26.63 36.44L25.3 36.44L25.3 33.28C25.3 31.96 24.59 30.75 23.44 30.09C22.29 29.44 20.88 29.44 19.73 30.09C18.58 30.75 17.88 31.96 17.88 33.28L17.88 36.44L16.32 36.44L16.32 17.15ZM22.72 36.44L20.45 36.44L20.45 33.28C20.45 32.88 20.67 32.5 21.02 32.3C21.37 32.1 21.8 32.1 22.16 32.3C22.51 32.5 22.72 32.88 22.72 33.28L22.72 36.44ZM29.21 36.44L30.35 11.05L36.22 11.05L37.36 36.44L29.21 36.44Z" fill="#FFFFFF" fill-opacity="1.000000" fill-rule="nonzero"/>
</svg>
