<svg width="40.000000" height="40.000000" viewBox="0 0 40 40" fill="none" xmlns="http://www.w3.org/2000/svg" xmlns:xlink="http://www.w3.org/1999/xlink">
	<desc>
			Created with Pixso.
	</desc>
	<defs/>
	<path id="Vector" d="M38.33 15.55C37.89 15.55 37.46 15.73 37.15 16.04C36.84 16.35 36.66 16.78 36.66 17.22L36.66 18.33L33.33 18.33C33.29 18.33 33.25 18.34 33.21 18.34C32.92 15.96 31.98 13.7 30.5 11.81C30.54 11.78 30.57 11.77 30.6 11.75L32.96 9.39L33.74 10.17C34.06 10.49 34.48 10.67 34.92 10.67C35.37 10.67 35.79 10.49 36.11 10.18C36.42 9.87 36.6 9.44 36.6 9C36.59 8.55 36.42 8.13 36.1 7.82L32.17 3.89C31.75 3.47 31.14 3.31 30.56 3.46C29.99 3.61 29.54 4.06 29.39 4.64C29.23 5.21 29.4 5.82 29.82 6.25L30.6 7.03L28.25 9.39C28.22 9.42 28.21 9.46 28.18 9.49C26.29 8.01 24.03 7.07 21.65 6.77C21.65 6.74 21.66 6.7 21.66 6.66L21.66 3.33L22.77 3.33L22.77 3.33C23.37 3.33 23.92 3.01 24.22 2.49C24.51 1.98 24.51 1.34 24.22 0.83C23.92 0.31 23.37 0 22.77 0L17.22 0C16.62 0 16.07 0.31 15.77 0.83C15.48 1.34 15.48 1.98 15.77 2.49C16.07 3.01 16.62 3.33 17.22 3.33L18.33 3.33L18.33 6.66C18.33 6.7 18.34 6.74 18.34 6.77C15.96 7.07 13.7 8.01 11.81 9.49C11.78 9.46 11.77 9.42 11.75 9.39L9.39 7.03L10.17 6.25C10.59 5.82 10.76 5.21 10.6 4.64C10.45 4.06 10 3.61 9.43 3.46C8.85 3.31 8.24 3.47 7.82 3.89L3.89 7.82C3.58 8.13 3.4 8.55 3.4 9C3.4 9.44 3.57 9.86 3.89 10.18C4.2 10.49 4.62 10.66 5.07 10.66C5.51 10.66 5.93 10.49 6.25 10.17L7.03 9.39L9.39 11.75C9.42 11.77 9.45 11.78 9.49 11.81C8.01 13.7 7.07 15.96 6.78 18.34C6.74 18.34 6.7 18.33 6.66 18.33L3.33 18.33L3.33 17.22L3.33 17.22C3.33 16.62 3.01 16.07 2.5 15.77C1.98 15.48 1.34 15.48 0.83 15.77C0.31 16.07 0 16.62 0 17.22L0 22.77L0 22.77C0 23.37 0.31 23.92 0.83 24.22C1.34 24.51 1.98 24.51 2.5 24.22C3.01 23.92 3.33 23.37 3.33 22.77L3.33 21.66L6.66 21.66C6.7 21.66 6.74 21.65 6.78 21.65C7.07 24.03 8.01 26.29 9.49 28.18C9.45 28.21 9.42 28.22 9.39 28.24L7.03 30.6L6.25 29.82C5.82 29.4 5.21 29.23 4.64 29.39C4.06 29.54 3.61 29.99 3.46 30.56C3.31 31.14 3.47 31.75 3.89 32.17L7.82 36.1C8.13 36.41 8.55 36.59 9 36.59C9.44 36.59 9.86 36.42 10.18 36.1C10.49 35.79 10.66 35.37 10.66 34.92C10.66 34.48 10.49 34.06 10.17 33.74L9.39 32.96L11.75 30.6C11.77 30.57 11.78 30.53 11.81 30.5C13.7 31.98 15.96 32.92 18.34 33.22C18.34 33.25 18.33 33.29 18.33 33.33L18.33 36.66L17.22 36.66L17.22 36.66C16.62 36.66 16.07 36.98 15.77 37.5C15.48 38.01 15.48 38.65 15.77 39.16C16.07 39.68 16.62 40 17.22 40L22.77 40L22.77 40C23.37 40 23.92 39.68 24.22 39.16C24.51 38.65 24.51 38.01 24.22 37.5C23.92 36.98 23.37 36.66 22.77 36.66L21.66 36.66L21.66 33.33C21.66 33.29 21.65 33.25 21.65 33.22C24.03 32.92 26.29 31.98 28.18 30.5C28.21 30.53 28.22 30.57 28.25 30.6L30.6 32.96L29.82 33.74C29.5 34.06 29.33 34.48 29.33 34.92C29.33 35.37 29.5 35.79 29.81 36.1C30.13 36.42 30.55 36.59 30.99 36.59C31.44 36.59 31.86 36.41 32.17 36.1L36.1 32.17C36.52 31.75 36.68 31.14 36.53 30.56C36.38 29.99 35.93 29.54 35.35 29.39C34.78 29.23 34.17 29.4 33.75 29.82L32.96 30.6L30.6 28.24C30.57 28.22 30.54 28.21 30.5 28.18C31.98 26.29 32.92 24.03 33.21 21.65C33.25 21.65 33.29 21.66 33.33 21.66L36.66 21.66L36.66 22.77L36.66 22.77C36.66 23.37 36.98 23.92 37.5 24.22C38.01 24.51 38.65 24.51 39.16 24.22C39.68 23.92 40 23.37 40 22.77L40 17.22C40 16.78 39.82 16.35 39.51 16.04C39.19 15.73 38.77 15.55 38.33 15.55L38.33 15.55ZM20 30C17.34 30 14.8 28.94 12.92 27.07C11.05 25.19 10 22.65 10 20C10 17.34 11.05 14.8 12.92 12.92C14.8 11.05 17.34 10 20 10C22.65 10 25.19 11.05 27.07 12.92C28.94 14.8 30 17.34 30 20C29.99 22.65 28.94 25.19 27.06 27.06C25.19 28.94 22.65 29.99 20 30Z" fill="#FFFFFF" fill-opacity="1.000000" fill-rule="nonzero"/>
</svg>
