<svg width="48.000000" height="48.000000" viewBox="0 0 48 48" fill="none" xmlns="http://www.w3.org/2000/svg" xmlns:xlink="http://www.w3.org/1999/xlink">
	<desc>
			Created with Pixso.
	</desc>
	<defs/>
	<path id="Vector" d="M47.98 10.21C48.05 10.66 47.9 11.11 47.58 11.43L42.92 16.09C49.89 30.61 38.6 48.25 22.49 47.99C10.09 47.99 0 37.9 0 25.5C-0.26 9.38 17.38 -1.89 31.9 5.07L36.56 0.41C36.88 0.09 37.33 -0.06 37.78 0.01C38.22 0.09 38.61 0.37 38.81 0.77L41.61 6.38L47.22 9.18C47.62 9.38 47.9 9.77 47.98 10.21ZM22.49 45.18C11.64 45.18 2.81 36.35 2.81 25.5C2.61 11.83 17.16 1.98 29.76 7.21L29.03 7.94C28.61 8.35 28.61 8.85 28.61 8.93L28.61 11.85C18.98 7.34 7.36 14.84 7.53 25.5C7.53 33.75 14.24 40.46 22.49 40.46C33.15 40.63 40.66 29.01 36.14 19.38L39.06 19.38L39.06 19.38C39.14 19.38 39.64 19.38 40.05 18.96L40.78 18.23C46.01 30.83 36.16 45.38 22.49 45.18ZM32.98 19.38C37.75 27.28 31.73 37.77 22.49 37.65C15.79 37.65 10.34 32.2 10.34 25.5C10.22 16.26 20.71 10.24 28.61 15.01L28.61 17.39L26.65 19.35C21.84 16 15 19.6 15.06 25.5C15.06 29.6 18.39 32.93 22.49 32.93C28.39 32.99 31.99 26.15 28.64 21.34L30.6 19.38L32.98 19.38ZM21.5 26.49C22.04 27.04 22.94 27.04 23.48 26.49L26.59 23.38C28.2 26.37 25.9 30.16 22.49 30.12C19.94 30.12 17.87 28.05 17.87 25.5C17.83 22.09 21.62 19.79 24.61 21.4L21.5 24.51C20.95 25.05 20.95 25.95 21.5 26.49Z" fill="#FFFFFF" fill-opacity="1.000000" fill-rule="evenodd"/>
</svg>
