<svg width="44.000000" height="38.000000" viewBox="0 0 44 38" fill="none" xmlns="http://www.w3.org/2000/svg" xmlns:xlink="http://www.w3.org/1999/xlink">
	<desc>
			Created with Pixso.
	</desc>
	<defs/>
	<path id="Vector" d="M43.28 15.69L39.72 13.87C43.63 10.77 41.49 4.25 36.49 4.24C31.49 4.25 29.36 10.78 33.26 13.87L30.28 15.4L25.5 12.95C31.34 9.35 28.9 0.04 22 0C15.08 0.04 12.65 9.35 18.49 12.95L13.71 15.4L10.73 13.87C14.63 10.77 12.5 4.25 7.5 4.24C2.5 4.25 0.36 10.78 4.27 13.87L0.71 15.69C0.27 15.92 0 16.37 0 16.87L0 31.72C0 32.45 0.57 33.04 1.28 33.04L12.42 33.04L12.42 36.67C12.42 37.4 13 38 13.71 38L30.28 38C30.99 38 31.57 37.4 31.57 36.67L31.57 33.04L42.71 33.04C43.42 33.04 44 32.45 44 31.72L44 16.87C44 16.37 43.72 15.92 43.28 15.69ZM7.5 6.88C8.98 6.88 10.18 8.11 10.18 9.62C10.04 13.26 4.95 13.26 4.82 9.62C4.82 8.11 6.02 6.88 7.5 6.88ZM12.42 30.4L2.57 30.4L2.57 17.69L7.5 15.17L12.42 17.69L12.42 30.4ZM17.76 6.97C17.76 4.58 19.66 2.64 22 2.64C27.6 2.85 27.6 11.09 22 11.31C19.66 11.31 17.76 9.36 17.76 6.97ZM23.37 27.74L22 29.15L20.62 27.74L22 20.01L23.37 27.74ZM28.99 35.35L15 35.35L15 17.69L20.27 14.99L17.97 27.95C17.89 28.38 18.02 28.82 18.32 29.12L21.08 31.95C21.59 32.47 22.4 32.47 22.91 31.95L25.67 29.12C25.97 28.82 26.1 28.38 26.02 27.95L23.72 14.99L28.99 17.69L28.99 35.35L28.99 35.35ZM36.49 6.88C37.97 6.88 39.17 8.11 39.17 9.62C39.04 13.26 33.95 13.26 33.81 9.62C33.81 8.11 35.01 6.88 36.49 6.88ZM41.42 30.4L31.57 30.4L31.57 17.69L36.49 15.17L41.42 17.69L41.42 30.4Z" fill="#FFFFFF" fill-opacity="1.000000" fill-rule="nonzero"/>
</svg>
