<svg width="170.000000" height="22.000000" viewBox="0 0 170 22" fill="none" xmlns="http://www.w3.org/2000/svg" xmlns:xlink="http://www.w3.org/1999/xlink">
	<desc>
			Created with Pixso.
	</desc>
	<defs/>
	<path id="Vector" d="M45.18 7.19C45.18 8 45.11 8.47 44.97 8.61C44.85 8.75 44.39 8.82 43.6 8.82L42.69 8.82L42.69 14C42.69 14.76 43 15.14 43.6 15.14C44.35 15.14 44.78 15.21 44.9 15.35C45.02 15.49 45.09 15.98 45.09 16.82C44.78 16.83 44.5 16.84 44.24 16.84C43 16.84 42.09 16.62 41.53 16.19C40.98 15.74 40.71 15.01 40.71 14L40.71 8.85L39.45 8.85L39.48 7.66C40.15 7.66 40.52 7.61 40.59 7.52C40.67 7.42 40.71 7.08 40.71 6.49L40.71 4.79L42.65 4.79L42.65 7.19L45.18 7.19ZM38.41 16.75C37.43 16.75 36.86 16.68 36.7 16.54C36.54 16.4 36.47 15.9 36.47 15.05L36.47 7.19C37.44 7.19 38 7.26 38.16 7.4C38.32 7.52 38.41 8 38.41 8.82L38.41 16.75ZM38.41 6.58C37.43 6.58 36.86 6.51 36.7 6.37C36.54 6.23 36.47 5.74 36.47 4.88L36.47 4.23C37.52 4.23 38.08 4.25 38.16 4.3C38.32 4.39 38.41 4.83 38.41 5.6L38.41 6.58ZM34.55 16.75C33.81 16.75 33.38 16.69 33.25 16.59C33.13 16.46 33.07 16.06 33.07 15.37C32.55 16.37 31.36 16.86 29.49 16.86C26.83 16.86 25.5 15.23 25.5 11.95C25.5 8.67 26.83 7.03 29.47 7.03C31.05 7.03 32.11 7.46 32.64 8.33L32.64 3.55C33.6 3.55 34.15 3.62 34.3 3.76C34.47 3.9 34.55 4.39 34.55 5.23L34.55 16.75ZM32.66 11.95C32.66 10.89 32.5 10.12 32.18 9.64C31.79 9.02 31.08 8.7 30.06 8.7C28.77 8.7 28.02 8.84 27.81 9.12C27.59 9.39 27.49 10.33 27.49 11.95C27.49 13.02 27.65 13.8 27.97 14.3C28.36 14.91 29.05 15.21 30.04 15.21C31.35 15.21 32.11 15.08 32.32 14.81C32.55 14.53 32.66 13.58 32.66 11.95ZM24.48 11.18C24.48 11.97 24.39 12.43 24.23 12.57C24.06 12.7 23.47 12.76 22.47 12.76L17.59 12.76C17.59 13.49 17.81 14.07 18.25 14.51C18.71 14.95 19.36 15.16 20.19 15.16L22.24 15.16C23 15.16 23.44 15.23 23.57 15.37C23.7 15.5 23.77 15.96 23.77 16.77L20.26 16.77C17.18 16.77 15.63 15.16 15.63 11.95C15.63 8.7 17.19 7.07 20.31 7.07C21.66 7.07 22.71 7.47 23.45 8.26C24.14 8.99 24.48 9.96 24.48 11.18ZM22.47 11.18C22.49 11.14 22.49 11.13 22.47 11.13C22.5 9.45 21.72 8.61 20.12 8.61C18.88 8.61 18.14 8.72 17.91 8.94C17.7 9.16 17.59 9.9 17.59 11.18L22.47 11.18ZM15.38 7.14C15.38 8.01 15.33 8.52 15.22 8.66C15.13 8.78 14.77 8.84 14.15 8.84C13.38 8.84 12.9 9.01 12.71 9.33C12.58 9.6 12.51 10.31 12.51 11.46L12.51 16.75C11.54 16.75 10.97 16.68 10.8 16.54C10.65 16.4 10.57 15.92 10.57 15.09L10.57 7.19C11.32 7.19 11.75 7.24 11.87 7.35C11.99 7.46 12.05 7.85 12.05 8.52C12.52 7.52 13.63 7.06 15.38 7.14ZM8.93 16.79L5.38 16.79C3.37 16.79 1.92 16.2 1.04 15C0.34 14.04 0 12.63 0 10.78C0 6.79 1.79 4.79 5.38 4.79L8.93 4.79C8.93 5.64 8.86 6.14 8.73 6.28C8.6 6.42 8.16 6.49 7.38 6.49L5.38 6.49C4.11 6.49 3.33 6.54 3.03 6.63C2.57 6.75 2.28 7.11 2.16 7.7C2.08 8.14 2.05 9.16 2.05 10.78C2.05 12.16 2.26 13.18 2.68 13.83C3.2 14.66 4.1 15.07 5.38 15.07L7.27 15.07C8.1 15.07 8.59 15.14 8.73 15.28C8.86 15.42 8.93 15.92 8.93 16.79Z" fill="#1C297B" fill-opacity="1.000000" fill-rule="nonzero"/>
	<path id="Vector" d="M69.92 11C69.92 17.07 65.1 22 59.16 22C53.22 22 48.4 17.07 48.4 11C48.4 4.92 53.22 0 59.16 0C65.1 0 69.92 4.92 69.92 11Z" fill="#FFFFFF" fill-opacity="1.000000" fill-rule="nonzero"/>
	<path id="Vector" d="M54.22 11L59.16 16.04L64.1 11L59.16 5.95L54.22 11ZM49.17 11C49.17 5.35 53.64 0.77 59.16 0.77C64.68 0.77 69.16 5.35 69.16 11C69.16 16.64 64.68 21.22 59.16 21.22C53.64 21.22 49.17 16.64 49.17 11Z" fill="#E2001A" fill-opacity="1.000000" fill-rule="nonzero"/>
	<path id="Vector" d="M170 16.75C168.73 16.75 167.98 16.72 167.72 16.65C167.4 16.58 167.05 16.32 166.67 15.89L163.7 12.46C163.46 12.18 163.34 11.95 163.34 11.76C163.34 11.57 163.46 11.34 163.7 11.06L167.01 7.17L169.63 7.17L165.14 11.71L170 16.75ZM163.18 16.75C162.21 16.75 161.64 16.68 161.47 16.54C161.32 16.4 161.24 15.91 161.24 15.07L161.24 3.55C162.22 3.55 162.78 3.62 162.93 3.76C163.1 3.89 163.18 4.36 163.18 5.18L163.18 16.75ZM159.49 16.75C158.51 16.75 157.95 16.68 157.78 16.54C157.63 16.4 157.55 15.91 157.55 15.07L157.55 11.43C157.55 10.48 157.42 9.82 157.16 9.45C156.83 8.97 156.2 8.73 155.27 8.73C154.07 8.73 153.36 8.84 153.15 9.08C152.95 9.3 152.85 10.08 152.85 11.43L152.85 16.75C151.88 16.75 151.31 16.68 151.14 16.54C150.99 16.4 150.92 15.91 150.92 15.07L150.92 7.21C151.66 7.21 152.09 7.27 152.22 7.38C152.34 7.48 152.4 7.87 152.4 8.54C152.88 7.56 154.02 7.07 155.82 7.07C157.25 7.07 158.24 7.48 158.8 8.31C159.26 8.99 159.49 10.09 159.49 11.6L159.49 16.75ZM149.25 16.75C148.52 16.75 148.1 16.69 147.98 16.56C147.85 16.44 147.79 16.02 147.79 15.3C147.55 15.72 147.13 16.07 146.54 16.35C145.86 16.68 145.07 16.84 144.17 16.84C143.11 16.84 142.25 16.61 141.59 16.14C140.88 15.63 140.52 14.9 140.52 13.95C140.52 13 140.83 12.25 141.43 11.69C142.1 11.08 143.09 10.78 144.4 10.78L147.34 10.78C147.34 10.08 147.13 9.58 146.72 9.29C146.33 8.99 145.68 8.84 144.78 8.84L142.87 8.84C142.16 8.84 141.74 8.78 141.62 8.66C141.49 8.52 141.43 8.04 141.43 7.24L144.72 7.24C146.46 7.24 147.68 7.6 148.36 8.33C148.96 8.94 149.25 9.93 149.25 11.32L149.25 16.75ZM147.34 12.65L147.34 12.34L144.69 12.34C143.61 12.34 142.98 12.41 142.8 12.55C142.62 12.68 142.53 13.13 142.53 13.93C142.53 14.84 143.23 15.3 144.62 15.3C145.98 15.3 146.77 15.19 147 14.98C147.22 14.74 147.34 13.97 147.34 12.65ZM139.36 13.27C139.36 15.61 137.81 16.77 134.71 16.77L131.97 16.77C131.03 16.77 130.48 16.7 130.31 16.56C130.16 16.42 130.08 15.93 130.08 15.09L130.08 6.51C130.08 5.66 130.16 5.16 130.31 5.02C130.48 4.88 131.03 4.81 131.97 4.81L134.64 4.81C137.54 4.81 138.99 5.85 138.99 7.94C138.99 9.33 138.48 10.16 137.44 10.41C138.04 10.58 138.52 10.95 138.88 11.53C139.2 12.04 139.36 12.62 139.36 13.27ZM137.03 8.22C137.03 7.08 136.26 6.51 134.71 6.51L132.09 6.51L132.09 9.89L134.82 9.89C135.93 9.89 136.58 9.82 136.76 9.68C136.94 9.54 137.03 9.05 137.03 8.22ZM137.31 13.25C137.31 12.07 136.48 11.48 134.82 11.48L132.09 11.48L132.09 15.09L134.78 15.09C136.04 15.09 136.78 15.02 136.99 14.86C137.2 14.7 137.31 14.17 137.31 13.25Z" fill="#E2001A" fill-opacity="1.000000" fill-rule="nonzero"/>
	<path id="Vector" d="M127.98 11.18C127.98 11.97 127.89 12.43 127.73 12.57C127.56 12.7 126.97 12.76 125.97 12.76L121.09 12.76C121.09 13.49 121.31 14.07 121.75 14.51C122.21 14.95 122.85 15.16 123.69 15.16L125.74 15.16C126.5 15.16 126.94 15.23 127.06 15.37C127.2 15.5 127.27 15.96 127.27 16.77L123.76 16.77C120.68 16.77 119.13 15.16 119.13 11.95C119.13 8.7 120.69 7.07 123.8 7.07C125.16 7.07 126.21 7.47 126.95 8.26C127.63 8.99 127.98 9.96 127.98 11.18ZM125.97 11.18C125.99 11.14 125.99 11.13 125.97 11.13C126 9.45 125.22 8.61 123.62 8.61C122.38 8.61 121.64 8.72 121.41 8.94C121.2 9.16 121.09 9.9 121.09 11.18L125.97 11.18ZM117.92 11.99C117.92 15.27 116.61 16.91 113.98 16.91C112.4 16.91 111.34 16.48 110.81 15.61L110.81 20.43C109.85 20.43 109.29 20.36 109.12 20.22C108.97 20.1 108.9 19.62 108.9 18.8L108.9 7.19C109.63 7.19 110.05 7.25 110.17 7.38C110.29 7.48 110.36 7.88 110.36 8.56C110.92 7.57 112.11 7.07 113.93 7.07C116.59 7.07 117.92 8.71 117.92 11.99ZM115.96 11.99C115.96 10.92 115.8 10.13 115.48 9.61C115.07 9.01 114.38 8.7 113.41 8.7C112.1 8.7 111.34 8.84 111.11 9.12C110.9 9.4 110.79 10.36 110.79 11.99C110.79 13.06 110.94 13.84 111.25 14.32C111.64 14.95 112.35 15.26 113.36 15.26C114.67 15.26 115.43 15.12 115.64 14.86C115.86 14.58 115.96 13.62 115.96 11.99ZM107.35 11.97C107.35 15.23 105.8 16.86 102.7 16.86C99.63 16.86 98.09 15.23 98.09 11.97C98.09 8.72 99.63 7.1 102.72 7.1C105.8 7.1 107.35 8.72 107.35 11.97ZM105.36 11.97C105.36 10.94 105.2 10.18 104.86 9.68C104.45 9.05 103.74 8.73 102.72 8.73C101.4 8.73 100.62 8.87 100.39 9.15C100.18 9.41 100.08 10.35 100.08 11.97C100.08 14.15 100.95 15.23 102.7 15.23C104.03 15.23 104.81 15.1 105.02 14.84C105.25 14.56 105.36 13.6 105.36 11.97ZM97.86 7.14C97.86 8.01 97.81 8.52 97.71 8.66C97.61 8.78 97.26 8.84 96.63 8.84C95.86 8.84 95.38 9.01 95.2 9.33C95.06 9.6 94.99 10.31 94.99 11.46L94.99 16.75C94.02 16.75 93.45 16.68 93.28 16.54C93.13 16.4 93.06 15.92 93.06 15.09L93.06 7.19C93.8 7.19 94.23 7.24 94.35 7.35C94.47 7.46 94.53 7.85 94.53 8.52C95.01 7.52 96.12 7.06 97.86 7.14ZM91.16 16.75C90.42 16.75 89.98 16.69 89.86 16.59C89.74 16.46 89.68 16.06 89.68 15.37C89.18 16.37 88.04 16.86 86.26 16.86C84.82 16.86 83.81 16.46 83.25 15.65C82.8 14.98 82.57 13.9 82.57 12.41L82.57 7.19C83.53 7.19 84.08 7.26 84.23 7.4C84.4 7.54 84.48 8.04 84.48 8.91L84.48 12.58C84.48 13.51 84.62 14.15 84.89 14.51C85.23 14.96 85.87 15.19 86.81 15.19C88.01 15.19 88.71 15.08 88.9 14.86C89.1 14.63 89.2 13.83 89.2 12.48L89.2 7.19C90.17 7.19 90.74 7.26 90.89 7.4C91.05 7.54 91.14 8.04 91.14 8.91L91.16 16.75ZM81.11 16.75L74.98 16.75C73.99 16.75 73.41 16.68 73.24 16.54C73.08 16.4 72.99 15.9 72.99 15.05L72.99 6.51C72.99 5.66 73.08 5.16 73.24 5.02C73.41 4.88 73.99 4.81 74.98 4.81L79.47 4.81C80.29 4.81 80.77 4.88 80.9 5.02C81.04 5.16 81.11 5.66 81.11 6.51L74.98 6.51L74.98 9.82L78.92 9.82C79.73 9.82 80.2 9.89 80.34 10.03C80.47 10.17 80.54 10.66 80.54 11.48L74.98 11.48L74.98 15.05L79.33 15.05C80.23 15.05 80.75 15.12 80.88 15.26C81.03 15.4 81.11 15.89 81.11 16.75Z" fill="#1C297B" fill-opacity="1.000000" fill-rule="nonzero"/>
</svg>
