<svg width="167.280457" height="49.652313" viewBox="0 0 167.28 49.6523" fill="none" xmlns="http://www.w3.org/2000/svg" xmlns:xlink="http://www.w3.org/1999/xlink">
	<desc>
			Created with Pixso.
	</desc>
	<defs/>
	<path id="Logo" d="M32.88 7.15L32.88 13.57L24.23 13.57L24.23 0L32.88 0L32.88 2.15C32.89 2.26 32.88 4.8 32.88 7.15Z" fill="#000000" fill-opacity="1.000000" fill-rule="nonzero"/>
	<path id="Logo" d="M0 28.98L16.44 28.98L16.44 0L0 0L0 28.98ZM14.71 28.12C15.18 28.12 15.57 26.95 15.57 25.53C15.57 24.11 15.18 22.95 14.71 22.95C14.23 22.95 13.84 24.11 13.84 25.53C13.84 26.95 14.23 28.12 14.71 28.12Z" fill="#F3083A" fill-opacity="1.000000" fill-rule="evenodd"/>
	<path id="Logo" d="M0 49.65L16.44 49.65L16.44 31.56L0 31.56L0 49.65ZM14.71 38.45C15.18 38.45 15.57 37.29 15.57 35.87C15.57 34.45 15.18 33.28 14.71 33.28C14.23 33.28 13.84 34.45 13.84 35.87C13.84 37.29 14.23 38.45 14.71 38.45Z" fill="#F3083A" fill-opacity="1.000000" fill-rule="evenodd"/>
	<path id="Logo" d="M37.21 18.94L32.88 16.36L24.23 16.36L19.9 18.94L37.21 18.94Z" fill="#000000" fill-opacity="1.000000" fill-rule="nonzero"/>
	<path id="Logo" d="M17.45 49.65L17.45 31.56L38.22 31.56L38.22 49.65L17.45 49.65ZM36.35 47.92L19.9 47.92L19.9 36.73L36.35 36.73L36.35 47.92ZM20.77 47.06L20.77 37.59L35.48 37.59L35.48 47.06L20.77 47.06ZM28.12 34.44C25.59 34.44 21.63 34.44 21.63 34.44L21.63 34.88L34.61 34.88L34.61 34.44C34.61 34.44 30.66 34.44 28.12 34.44Z" fill="#000000" fill-opacity="1.000000" fill-rule="evenodd"/>
	<path id="Logo" d="M21.63 34.44C21.63 34.44 25.59 34.44 28.12 34.44C30.66 34.44 34.61 34.44 34.61 34.44L34.61 34.88L21.63 34.88L21.63 34.44Z" fill="#9D9D9D" fill-opacity="1.000000" fill-rule="nonzero"/>
	<path id="Logo" d="M59.67 22.39L56.47 22.39L51.26 14.9L51.26 22.39L48.48 22.39L48.48 7.63L51.26 7.63L51.26 14.78L56.35 7.63L59.4 7.63L54.23 14.76L59.67 22.39Z" fill="#000000" fill-opacity="1.000000" fill-rule="nonzero"/>
	<path id="Logo" d="M59.65 11.18L62.6 11.18L64.62 17.51C64.71 17.77 64.79 18.03 64.85 18.29C64.91 18.56 64.97 18.82 65.01 19.08C65.07 19.34 65.11 19.6 65.14 19.87L65.2 19.87C65.25 19.52 65.32 19.14 65.41 18.73C65.5 18.32 65.61 17.91 65.74 17.51L67.71 11.18L70.62 11.18L66.15 23.85C65.89 24.6 65.56 25.23 65.16 25.76C64.77 26.28 64.29 26.67 63.72 26.93C63.17 27.21 62.5 27.35 61.73 27.35C61.41 27.35 61.13 27.33 60.88 27.29C60.64 27.26 60.43 27.22 60.25 27.18L60.25 25.12C60.39 25.14 60.57 25.17 60.77 25.2C60.98 25.23 61.2 25.24 61.42 25.24C61.82 25.24 62.16 25.15 62.44 24.97C62.73 24.81 62.97 24.57 63.16 24.27C63.36 23.98 63.5 23.64 63.6 23.26L63.89 22.35L59.65 11.18Z" fill="#000000" fill-opacity="1.000000" fill-rule="nonzero"/>
	<path id="Logo" d="M74.45 16.66L70.98 11.18L74.12 11.18L76.28 14.99L78.44 11.18L81.55 11.18L78.04 16.66L81.72 22.39L78.6 22.39L76.28 18.32L73.93 22.39L70.81 22.39L74.45 16.66Z" fill="#000000" fill-opacity="1.000000" fill-rule="nonzero"/>
	<path id="Logo" d="M86.16 11.18L86.16 15.63L90.44 15.63L90.44 11.18L93.18 11.18L93.18 22.39L90.44 22.39L90.44 17.63L86.16 17.63L86.16 22.39L83.4 22.39L83.4 11.18L86.16 11.18Z" fill="#000000" fill-opacity="1.000000" fill-rule="nonzero"/>
	<path id="Logo" d="M97.72 22.39L94.73 22.39L97.59 17.86C97.23 17.71 96.89 17.5 96.55 17.24C96.23 16.96 95.97 16.61 95.76 16.19C95.57 15.75 95.47 15.21 95.47 14.59C95.47 13.49 95.85 12.65 96.62 12.07C97.39 11.48 98.42 11.18 99.69 11.18L104.63 11.18L104.63 22.39L101.87 22.39L101.87 18.11L100.11 18.11L97.72 22.39ZM98.17 14.62C98.17 15.14 98.34 15.55 98.67 15.83C99.02 16.11 99.51 16.25 100.15 16.25L101.87 16.25L101.87 13.11L99.9 13.11C99.29 13.11 98.85 13.25 98.57 13.54C98.31 13.83 98.17 14.19 98.17 14.62Z" fill="#000000" fill-opacity="1.000000" fill-rule="nonzero"/>
	<path id="Logo" d="M121.96 14.08C121.96 14.71 121.78 15.24 121.42 15.65C121.06 16.06 120.54 16.33 119.86 16.45L119.86 16.54C120.58 16.63 121.16 16.9 121.6 17.32C122.06 17.74 122.29 18.32 122.29 19.06C122.29 19.54 122.21 19.99 122.04 20.4C121.87 20.8 121.61 21.15 121.25 21.46C120.89 21.75 120.41 21.97 119.82 22.14C119.22 22.3 118.49 22.39 117.64 22.39L112.69 22.39L112.69 11.18L117.64 11.18C118.52 11.18 119.28 11.27 119.92 11.45C120.57 11.63 121.07 11.94 121.42 12.36C121.78 12.78 121.96 13.35 121.96 14.08ZM119.46 18.96C119.46 18.45 119.3 18.08 118.96 17.86C118.65 17.63 118.14 17.51 117.45 17.51L115.45 17.51L115.45 20.51L117.47 20.51C118.12 20.51 118.61 20.39 118.94 20.15C119.29 19.92 119.46 19.52 119.46 18.96ZM119.19 14.31C119.19 13.89 119.05 13.59 118.78 13.4C118.51 13.2 118.11 13.11 117.55 13.11L115.45 13.11L115.45 15.63L117.26 15.63C117.9 15.63 118.38 15.52 118.69 15.32C119.03 15.11 119.19 14.77 119.19 14.31Z" fill="#000000" fill-opacity="1.000000" fill-rule="nonzero"/>
	<path id="Logo" d="M138.93 11.18L138.93 20.4L140.49 20.4L140.49 26.36L138 26.36L138 22.39L130.96 22.39L130.96 26.36L128.49 26.36L128.49 20.4L129.38 20.4C129.86 19.6 130.28 18.71 130.63 17.72C130.97 16.71 131.24 15.65 131.44 14.53C131.64 13.42 131.77 12.3 131.83 11.18L138.93 11.18ZM134.07 13.17C133.99 14.04 133.87 14.9 133.7 15.77C133.53 16.63 133.33 17.45 133.08 18.23C132.84 19.02 132.55 19.74 132.2 20.4L136.19 20.4L136.19 13.17L134.07 13.17Z" fill="#000000" fill-opacity="1.000000" fill-rule="nonzero"/>
	<path id="Logo" d="M151.97 16.77C151.97 17.7 151.85 18.53 151.61 19.25C151.38 19.96 151.03 20.58 150.57 21.09C150.13 21.58 149.59 21.96 148.95 22.22C148.32 22.47 147.6 22.59 146.82 22.59C146.08 22.59 145.39 22.47 144.76 22.22C144.14 21.96 143.6 21.58 143.14 21.09C142.7 20.58 142.35 19.96 142.1 19.25C141.85 18.53 141.73 17.7 141.73 16.77C141.73 15.52 141.93 14.48 142.33 13.62C142.74 12.76 143.34 12.1 144.12 11.66C144.89 11.2 145.81 10.98 146.88 10.98C147.87 10.98 148.75 11.2 149.52 11.66C150.28 12.1 150.87 12.76 151.3 13.62C151.75 14.48 151.97 15.52 151.97 16.77ZM144.53 16.77C144.53 17.55 144.61 18.23 144.78 18.79C144.95 19.34 145.2 19.76 145.53 20.05C145.87 20.34 146.32 20.49 146.86 20.49C147.4 20.49 147.83 20.34 148.17 20.05C148.51 19.76 148.76 19.34 148.91 18.79C149.08 18.23 149.16 17.55 149.16 16.77C149.16 15.97 149.08 15.3 148.91 14.76C148.75 14.21 148.49 13.8 148.14 13.52C147.81 13.23 147.38 13.09 146.84 13.09C146.02 13.09 145.43 13.4 145.07 14.04C144.71 14.67 144.53 15.58 144.53 16.77Z" fill="#000000" fill-opacity="1.000000" fill-rule="nonzero"/>
	<path id="Logo" d="M167.28 11.18L167.28 22.39L164.78 22.39L164.78 16.27C164.78 15.81 164.79 15.37 164.8 14.93C164.83 14.48 164.86 14.06 164.89 13.66L164.82 13.66L161.85 22.39L159.8 22.39L156.83 13.66L156.77 13.66C156.79 14.06 156.81 14.48 156.83 14.93C156.86 15.37 156.87 15.84 156.87 16.35L156.87 22.39L154.38 22.39L154.38 11.18L158.16 11.18L160.84 19.31L163.58 11.18L167.28 11.18Z" fill="#000000" fill-opacity="1.000000" fill-rule="nonzero"/>
	<path id="Logo" d="M52.47 37.46L53.63 37.46L50.86 40.57L53.86 43.92L52.62 43.92L49.69 40.64L49.69 43.92L48.63 43.92L48.63 37.46L49.69 37.46L49.69 40.59L52.47 37.46Z" fill="#000000" fill-opacity="1.000000" fill-rule="nonzero"/>
	<path id="Logo" d="M54.02 37.46L55.16 37.46L56.57 41.13C56.65 41.35 56.72 41.56 56.78 41.76C56.86 41.96 56.92 42.16 56.98 42.35C57.03 42.54 57.08 42.72 57.11 42.89L57.16 42.89C57.21 42.69 57.29 42.43 57.39 42.11C57.5 41.78 57.6 41.45 57.72 41.12L59.04 37.46L60.19 37.46L57.39 44.81C57.24 45.21 57.06 45.56 56.85 45.86C56.64 46.16 56.39 46.4 56.09 46.56C55.8 46.73 55.45 46.81 55.03 46.81C54.83 46.81 54.66 46.8 54.52 46.78C54.37 46.76 54.25 46.74 54.14 46.72L54.14 45.87C54.23 45.89 54.34 45.9 54.46 45.92C54.59 45.94 54.72 45.94 54.86 45.94C55.11 45.94 55.32 45.9 55.5 45.8C55.69 45.71 55.84 45.58 55.97 45.4C56.1 45.23 56.21 45.03 56.3 44.8L56.64 43.94L54.02 37.46Z" fill="#000000" fill-opacity="1.000000" fill-rule="nonzero"/>
	<path id="Logo" d="M62.76 40.61L60.51 37.46L61.73 37.46L63.4 39.89L65.06 37.46L66.26 37.46L64.02 40.61L66.38 43.92L65.17 43.92L63.4 41.34L61.6 43.92L60.4 43.92L62.76 40.61Z" fill="#000000" fill-opacity="1.000000" fill-rule="nonzero"/>
	<path id="Logo" d="M73.04 40.67C73.04 41.21 72.97 41.69 72.82 42.11C72.68 42.52 72.48 42.87 72.22 43.16C71.96 43.45 71.64 43.67 71.26 43.82C70.89 43.97 70.47 44.04 70.01 44.04C69.58 44.04 69.19 43.97 68.82 43.82C68.46 43.67 68.14 43.45 67.88 43.16C67.61 42.87 67.4 42.52 67.25 42.11C67.1 41.69 67.03 41.21 67.03 40.67C67.03 39.96 67.15 39.36 67.39 38.87C67.64 38.37 67.98 37.99 68.44 37.73C68.89 37.47 69.42 37.33 70.05 37.33C70.64 37.33 71.15 37.47 71.6 37.73C72.05 37.99 72.4 38.37 72.65 38.87C72.91 39.36 73.04 39.96 73.04 40.67ZM68.13 40.67C68.13 41.18 68.2 41.62 68.33 42C68.46 42.37 68.67 42.66 68.96 42.86C69.24 43.06 69.6 43.16 70.03 43.16C70.47 43.16 70.83 43.06 71.11 42.86C71.4 42.66 71.6 42.37 71.73 42C71.87 41.62 71.94 41.18 71.94 40.67C71.94 40.16 71.87 39.72 71.73 39.36C71.59 39 71.38 38.72 71.1 38.53C70.83 38.33 70.47 38.23 70.02 38.23C69.36 38.23 68.88 38.44 68.58 38.88C68.28 39.31 68.13 39.91 68.13 40.67Z" fill="#000000" fill-opacity="1.000000" fill-rule="nonzero"/>
	<path id="Logo" d="M75.8 37.46L75.8 40.14L79.32 40.14L79.32 37.46L80.39 37.46L80.39 43.92L79.32 43.92L79.32 41.04L75.8 41.04L75.8 43.92L74.73 43.92L74.73 37.46L75.8 37.46Z" fill="#000000" fill-opacity="1.000000" fill-rule="nonzero"/>
	<path id="Logo" d="M83.51 37.46L83.51 40.14L87.04 40.14L87.04 37.46L88.1 37.46L88.1 43.92L87.04 43.92L87.04 41.04L83.51 41.04L83.51 43.92L82.44 43.92L82.44 37.46L83.51 37.46Z" fill="#000000" fill-opacity="1.000000" fill-rule="nonzero"/>
	<path id="Logo" d="M92.62 37.35C93.41 37.35 94 37.52 94.38 37.87C94.76 38.21 94.95 38.76 94.95 39.52L94.95 43.92L94.17 43.92L93.96 43L93.92 43C93.73 43.23 93.54 43.43 93.33 43.59C93.14 43.75 92.91 43.86 92.66 43.93C92.4 44 92.1 44.04 91.73 44.04C91.35 44.04 91 43.97 90.68 43.83C90.37 43.7 90.13 43.49 89.95 43.21C89.78 42.92 89.69 42.56 89.69 42.12C89.69 41.48 89.94 40.98 90.45 40.64C90.96 40.28 91.74 40.09 92.8 40.06L93.9 40.02L93.9 39.64C93.9 39.1 93.79 38.73 93.55 38.52C93.32 38.31 92.99 38.2 92.56 38.2C92.22 38.2 91.9 38.26 91.59 38.36C91.28 38.46 91 38.57 90.73 38.7L90.4 37.9C90.68 37.75 91.02 37.62 91.41 37.52C91.8 37.4 92.2 37.35 92.62 37.35ZM92.93 40.8C92.13 40.83 91.56 40.96 91.25 41.18C90.94 41.41 90.79 41.72 90.79 42.13C90.79 42.5 90.9 42.76 91.12 42.93C91.34 43.1 91.63 43.18 91.98 43.18C92.53 43.18 92.98 43.03 93.35 42.74C93.71 42.43 93.89 41.96 93.89 41.34L93.89 40.76L92.93 40.8Z" fill="#000000" fill-opacity="1.000000" fill-rule="nonzero"/>
	<path id="Logo" d="M97.35 43.92L96.12 43.92L97.97 41.21C97.72 41.14 97.48 41.04 97.24 40.9C97.01 40.76 96.82 40.56 96.67 40.31C96.53 40.06 96.45 39.74 96.45 39.36C96.45 38.74 96.66 38.27 97.08 37.95C97.5 37.62 98.06 37.46 98.76 37.46L101.67 37.46L101.67 43.92L100.6 43.92L100.6 41.35L99.02 41.35L97.35 43.92ZM97.48 39.37C97.48 39.74 97.62 40.02 97.9 40.2C98.18 40.38 98.57 40.47 99.07 40.47L100.6 40.47L100.6 38.34L98.87 38.34C98.37 38.34 98.02 38.43 97.8 38.62C97.59 38.82 97.48 39.07 97.48 39.37Z" fill="#000000" fill-opacity="1.000000" fill-rule="nonzero"/>
	<path id="Logo" d="M110.74 37.36C111.39 37.42 111.95 37.58 112.43 37.87C112.91 38.15 113.29 38.52 113.56 39C113.82 39.47 113.96 40.04 113.96 40.69C113.96 41.34 113.83 41.9 113.57 42.39C113.31 42.86 112.94 43.24 112.47 43.52C111.99 43.79 111.42 43.96 110.74 44.01L110.74 46.81L109.7 46.81L109.7 44.01C109.06 43.96 108.5 43.79 108.02 43.52C107.53 43.24 107.16 42.86 106.89 42.39C106.63 41.9 106.49 41.34 106.49 40.69C106.49 40.03 106.62 39.46 106.88 38.99C107.14 38.5 107.51 38.13 107.99 37.85C108.48 37.57 109.06 37.41 109.74 37.36L109.74 34.75L110.74 34.75L110.74 37.36ZM109.74 38.24C109.25 38.29 108.84 38.41 108.53 38.61C108.21 38.81 107.98 39.09 107.82 39.43C107.68 39.78 107.61 40.2 107.61 40.69C107.61 41.17 107.68 41.59 107.82 41.94C107.98 42.29 108.21 42.56 108.53 42.77C108.84 42.97 109.25 43.1 109.74 43.15L109.74 38.24ZM110.74 43.15C111.23 43.09 111.63 42.96 111.93 42.76C112.25 42.56 112.48 42.29 112.62 41.94C112.78 41.59 112.85 41.17 112.85 40.69C112.85 40.2 112.78 39.79 112.62 39.44C112.47 39.1 112.24 38.83 111.92 38.62C111.61 38.42 111.22 38.3 110.74 38.25L110.74 43.15Z" fill="#000000" fill-opacity="1.000000" fill-rule="nonzero"/>
	<path id="Logo" d="M118.11 37.35C118.9 37.35 119.48 37.52 119.86 37.87C120.24 38.21 120.43 38.76 120.43 39.52L120.43 43.92L119.66 43.92L119.45 43L119.4 43C119.22 43.23 119.02 43.43 118.82 43.59C118.63 43.75 118.4 43.86 118.14 43.93C117.89 44 117.59 44.04 117.22 44.04C116.83 44.04 116.48 43.97 116.17 43.83C115.86 43.7 115.62 43.49 115.44 43.21C115.26 42.92 115.17 42.56 115.17 42.12C115.17 41.48 115.43 40.98 115.94 40.64C116.45 40.28 117.23 40.09 118.29 40.06L119.39 40.02L119.39 39.64C119.39 39.1 119.27 38.73 119.04 38.52C118.81 38.31 118.47 38.2 118.05 38.2C117.71 38.2 117.38 38.26 117.08 38.36C116.77 38.46 116.48 38.57 116.22 38.7L115.89 37.9C116.17 37.75 116.51 37.62 116.9 37.52C117.28 37.4 117.69 37.35 118.11 37.35ZM118.42 40.8C117.61 40.83 117.05 40.96 116.74 41.18C116.43 41.41 116.28 41.72 116.28 42.13C116.28 42.5 116.39 42.76 116.6 42.93C116.83 43.1 117.12 43.18 117.46 43.18C118.01 43.18 118.47 43.03 118.83 42.74C119.2 42.43 119.38 41.96 119.38 41.34L119.38 40.76L118.42 40.8Z" fill="#000000" fill-opacity="1.000000" fill-rule="nonzero"/>
	<path id="Logo" d="M122.1 40.04C122.1 39.1 122.19 38.3 122.38 37.64C122.57 36.97 122.87 36.44 123.26 36.04C123.67 35.64 124.18 35.37 124.81 35.24C125.34 35.12 125.85 35.02 126.35 34.94C126.85 34.85 127.32 34.77 127.76 34.69L127.94 35.62C127.73 35.65 127.5 35.7 127.24 35.74C126.98 35.78 126.72 35.83 126.45 35.88C126.18 35.92 125.93 35.96 125.67 36.01C125.43 36.05 125.22 36.09 125.03 36.13C124.77 36.19 124.53 36.28 124.32 36.42C124.11 36.55 123.93 36.72 123.77 36.95C123.63 37.17 123.51 37.45 123.42 37.78C123.33 38.11 123.28 38.5 123.26 38.95L123.34 38.95C123.45 38.8 123.6 38.64 123.8 38.48C124 38.32 124.24 38.18 124.51 38.07C124.79 37.96 125.11 37.9 125.47 37.9C126.03 37.9 126.5 38.03 126.87 38.28C127.25 38.52 127.54 38.85 127.72 39.29C127.92 39.72 128.01 40.23 128.01 40.81C128.01 41.52 127.89 42.12 127.64 42.6C127.39 43.09 127.04 43.45 126.6 43.69C126.15 43.92 125.63 44.04 125.04 44.04C124.6 44.04 124.2 43.95 123.83 43.79C123.47 43.61 123.16 43.35 122.9 43.01C122.64 42.68 122.44 42.26 122.31 41.76C122.17 41.26 122.1 40.69 122.1 40.04ZM125.13 43.16C125.48 43.16 125.79 43.09 126.05 42.94C126.32 42.8 126.52 42.56 126.67 42.23C126.81 41.9 126.89 41.46 126.89 40.92C126.89 40.26 126.76 39.74 126.51 39.36C126.27 38.97 125.86 38.78 125.3 38.78C124.94 38.78 124.62 38.86 124.33 39.02C124.04 39.18 123.8 39.35 123.6 39.55C123.41 39.75 123.27 39.92 123.19 40.06C123.19 40.45 123.22 40.84 123.28 41.21C123.33 41.58 123.43 41.91 123.57 42.21C123.71 42.5 123.91 42.73 124.16 42.91C124.42 43.07 124.74 43.16 125.13 43.16Z" fill="#000000" fill-opacity="1.000000" fill-rule="nonzero"/>
	<path id="Logo" d="M132.78 37.33C133.58 37.33 134.22 37.61 134.71 38.17C135.2 38.72 135.45 39.56 135.45 40.67C135.45 41.41 135.34 42.03 135.11 42.53C134.89 43.03 134.58 43.41 134.18 43.66C133.78 43.91 133.31 44.04 132.77 44.04C132.44 44.04 132.14 43.99 131.89 43.91C131.63 43.82 131.41 43.71 131.22 43.57C131.04 43.42 130.89 43.27 130.76 43.1L130.69 43.1C130.7 43.23 130.72 43.41 130.74 43.62C130.75 43.83 130.76 44.01 130.76 44.16L130.76 46.81L129.69 46.81L129.69 37.46L130.57 37.46L130.71 38.34L130.76 38.34C130.89 38.15 131.04 37.98 131.22 37.83C131.41 37.68 131.62 37.56 131.87 37.47C132.13 37.38 132.44 37.33 132.78 37.33ZM132.59 38.23C132.15 38.23 131.8 38.31 131.53 38.48C131.27 38.64 131.07 38.89 130.95 39.22C130.83 39.55 130.77 39.96 130.76 40.47L130.76 40.67C130.76 41.21 130.82 41.66 130.93 42.03C131.04 42.39 131.23 42.68 131.5 42.87C131.77 43.06 132.14 43.16 132.61 43.16C133.01 43.16 133.33 43.05 133.58 42.83C133.84 42.62 134.03 42.32 134.15 41.95C134.28 41.58 134.35 41.14 134.35 40.66C134.35 39.92 134.2 39.33 133.91 38.89C133.63 38.45 133.19 38.23 132.59 38.23Z" fill="#000000" fill-opacity="1.000000" fill-rule="nonzero"/>
	<path id="Logo" d="M138.15 41.4C138.15 41.47 138.15 41.58 138.14 41.71C138.14 41.84 138.14 41.98 138.13 42.13C138.12 42.28 138.11 42.42 138.1 42.56C138.1 42.68 138.09 42.79 138.08 42.87L141.56 37.46L142.87 37.46L142.87 43.92L141.87 43.92L141.87 40.11C141.87 39.98 141.87 39.81 141.87 39.6C141.88 39.39 141.89 39.19 141.9 38.99C141.91 38.78 141.91 38.62 141.92 38.52L138.47 43.92L137.15 43.92L137.15 37.46L138.15 37.46L138.15 41.4Z" fill="#000000" fill-opacity="1.000000" fill-rule="nonzero"/>
	<path id="Logo" d="M148.77 37.46L149.94 37.46L147.16 40.57L150.17 43.92L148.93 43.92L146 40.64L146 43.92L144.93 43.92L144.93 37.46L146 37.46L146 40.59L148.77 37.46Z" fill="#000000" fill-opacity="1.000000" fill-rule="nonzero"/>
	<path id="Logo" d="M153.81 37.35C154.6 37.35 155.18 37.52 155.56 37.87C155.94 38.21 156.13 38.76 156.13 39.52L156.13 43.92L155.36 43.92L155.15 43L155.1 43C154.92 43.23 154.72 43.43 154.52 43.59C154.33 43.75 154.1 43.86 153.84 43.93C153.59 44 153.28 44.04 152.92 44.04C152.53 44.04 152.18 43.97 151.87 43.83C151.56 43.7 151.32 43.49 151.14 43.21C150.96 42.92 150.87 42.56 150.87 42.12C150.87 41.48 151.13 40.98 151.64 40.64C152.15 40.28 152.93 40.09 153.99 40.06L155.09 40.02L155.09 39.64C155.09 39.1 154.97 38.73 154.74 38.52C154.5 38.31 154.17 38.2 153.75 38.2C153.41 38.2 153.08 38.26 152.78 38.36C152.47 38.46 152.18 38.57 151.92 38.7L151.59 37.9C151.87 37.75 152.21 37.62 152.59 37.52C152.98 37.4 153.39 37.35 153.81 37.35ZM154.12 40.8C153.31 40.83 152.75 40.96 152.44 41.18C152.13 41.41 151.98 41.72 151.98 42.13C151.98 42.5 152.09 42.76 152.3 42.93C152.53 43.1 152.82 43.18 153.16 43.18C153.71 43.18 154.17 43.03 154.53 42.74C154.9 42.43 155.08 41.96 155.08 41.34L155.08 40.76L154.12 40.8Z" fill="#000000" fill-opacity="1.000000" fill-rule="nonzero"/>
	<path id="Logo" d="M43.27 31L160.11 31L160.11 48.22L43.27 48.22L43.27 31ZM53.63 37.46L52.47 37.46L49.69 40.59L49.69 37.46L48.63 37.46L48.63 43.92L49.69 43.92L49.69 40.64L52.62 43.92L53.86 43.92L50.86 40.57L53.63 37.46ZM55.16 37.46L54.02 37.46L56.64 43.94L56.3 44.8C56.21 45.03 56.1 45.23 55.97 45.4C55.84 45.58 55.69 45.71 55.5 45.8C55.32 45.9 55.11 45.94 54.86 45.94C54.72 45.94 54.59 45.94 54.46 45.92C54.34 45.9 54.23 45.89 54.14 45.87L54.14 46.72C54.25 46.74 54.37 46.76 54.52 46.78C54.66 46.8 54.83 46.81 55.03 46.81C55.45 46.81 55.8 46.73 56.09 46.56C56.39 46.4 56.64 46.16 56.85 45.86C57.06 45.56 57.24 45.21 57.39 44.81L60.19 37.46L59.04 37.46L57.72 41.12C57.6 41.45 57.5 41.78 57.39 42.11C57.29 42.43 57.21 42.69 57.16 42.89L57.11 42.89C57.08 42.72 57.03 42.54 56.98 42.35C56.92 42.16 56.86 41.96 56.78 41.76C56.72 41.56 56.65 41.35 56.57 41.13L55.16 37.46ZM60.51 37.46L62.76 40.61L60.4 43.92L61.6 43.92L63.4 41.34L65.17 43.92L66.38 43.92L64.02 40.61L66.26 37.46L65.06 37.46L63.4 39.89L61.73 37.46L60.51 37.46ZM72.82 42.11C72.97 41.69 73.04 41.21 73.04 40.67C73.04 39.96 72.91 39.36 72.65 38.87C72.4 38.37 72.05 37.99 71.6 37.73C71.15 37.47 70.64 37.33 70.05 37.33C69.42 37.33 68.89 37.47 68.44 37.73C67.98 37.99 67.64 38.37 67.39 38.87C67.15 39.36 67.03 39.96 67.03 40.67C67.03 41.21 67.1 41.69 67.25 42.11C67.4 42.52 67.61 42.87 67.88 43.16C68.14 43.45 68.46 43.67 68.82 43.82C69.19 43.97 69.58 44.04 70.01 44.04C70.47 44.04 70.89 43.97 71.26 43.82C71.64 43.67 71.96 43.45 72.22 43.16C72.48 42.87 72.68 42.52 72.82 42.11ZM75.8 40.14L75.8 37.46L74.73 37.46L74.73 43.92L75.8 43.92L75.8 41.04L79.32 41.04L79.32 43.92L80.39 43.92L80.39 37.46L79.32 37.46L79.32 40.14L75.8 40.14ZM83.51 40.14L83.51 37.46L82.44 37.46L82.44 43.92L83.51 43.92L83.51 41.04L87.04 41.04L87.04 43.92L88.1 43.92L88.1 37.46L87.04 37.46L87.04 40.14L83.51 40.14ZM94.38 37.87C94 37.52 93.41 37.35 92.62 37.35C92.2 37.35 91.8 37.4 91.41 37.52C91.02 37.62 90.68 37.75 90.4 37.9L90.73 38.7C91 38.57 91.28 38.46 91.59 38.36C91.9 38.26 92.22 38.2 92.56 38.2C92.99 38.2 93.32 38.31 93.55 38.52C93.79 38.73 93.9 39.1 93.9 39.64L93.9 40.02L92.8 40.06C91.74 40.09 90.96 40.28 90.45 40.64C89.94 40.98 89.69 41.48 89.69 42.12C89.69 42.56 89.78 42.92 89.95 43.21C90.13 43.49 90.37 43.7 90.68 43.83C91 43.97 91.35 44.04 91.73 44.04C92.1 44.04 92.4 44 92.66 43.93C92.91 43.86 93.14 43.75 93.33 43.59C93.54 43.43 93.73 43.23 93.92 43L93.96 43L94.17 43.92L94.95 43.92L94.95 39.52C94.95 38.76 94.76 38.21 94.38 37.87ZM96.12 43.92L97.35 43.92L99.02 41.35L100.6 41.35L100.6 43.92L101.67 43.92L101.67 37.46L98.76 37.46C98.06 37.46 97.5 37.62 97.08 37.95C96.66 38.27 96.45 38.74 96.45 39.36C96.45 39.74 96.53 40.06 96.67 40.31C96.82 40.56 97.01 40.76 97.24 40.9C97.48 41.04 97.72 41.14 97.97 41.21L96.12 43.92ZM112.43 37.87C111.95 37.58 111.39 37.42 110.74 37.36L110.74 34.75L109.74 34.75L109.74 37.36C109.06 37.41 108.48 37.57 107.99 37.85C107.51 38.13 107.14 38.5 106.88 38.99C106.62 39.46 106.49 40.03 106.49 40.69C106.49 41.34 106.63 41.9 106.89 42.39C107.16 42.86 107.53 43.24 108.02 43.52C108.5 43.79 109.06 43.96 109.7 44.01L109.7 46.81L110.74 46.81L110.74 44.01C111.42 43.96 111.99 43.79 112.47 43.52C112.94 43.24 113.31 42.86 113.57 42.39C113.83 41.9 113.96 41.34 113.96 40.69C113.96 40.04 113.82 39.47 113.56 39C113.29 38.52 112.91 38.15 112.43 37.87ZM119.86 37.87C119.48 37.52 118.9 37.35 118.11 37.35C117.69 37.35 117.28 37.4 116.9 37.52C116.51 37.62 116.17 37.75 115.89 37.9L116.22 38.7C116.48 38.57 116.77 38.46 117.08 38.36C117.38 38.26 117.71 38.2 118.05 38.2C118.47 38.2 118.81 38.31 119.04 38.52C119.27 38.73 119.39 39.1 119.39 39.64L119.39 40.02L118.29 40.06C117.23 40.09 116.45 40.28 115.94 40.64C115.43 40.98 115.17 41.48 115.17 42.12C115.17 42.56 115.26 42.92 115.44 43.21C115.62 43.49 115.86 43.7 116.17 43.83C116.48 43.97 116.83 44.04 117.22 44.04C117.59 44.04 117.89 44 118.14 43.93C118.4 43.86 118.63 43.75 118.82 43.59C119.02 43.43 119.22 43.23 119.4 43L119.45 43L119.66 43.92L120.43 43.92L120.43 39.52C120.43 38.76 120.24 38.21 119.86 37.87ZM122.38 37.64C122.19 38.3 122.1 39.1 122.1 40.04C122.1 40.69 122.17 41.26 122.31 41.76C122.44 42.26 122.64 42.68 122.9 43.01C123.16 43.35 123.47 43.61 123.83 43.79C124.2 43.95 124.6 44.04 125.04 44.04C125.63 44.04 126.15 43.92 126.6 43.69C127.04 43.45 127.39 43.09 127.64 42.6C127.89 42.12 128.01 41.52 128.01 40.81C128.01 40.23 127.92 39.72 127.72 39.29C127.54 38.85 127.25 38.52 126.87 38.28C126.5 38.03 126.03 37.9 125.47 37.9C125.11 37.9 124.79 37.96 124.51 38.07C124.24 38.18 124 38.32 123.8 38.48C123.6 38.64 123.45 38.8 123.34 38.95L123.26 38.95C123.28 38.5 123.33 38.11 123.42 37.78C123.51 37.45 123.63 37.17 123.77 36.95C123.93 36.72 124.11 36.55 124.32 36.42C124.53 36.28 124.77 36.19 125.03 36.13C125.22 36.09 125.43 36.05 125.67 36.01C125.93 35.96 126.18 35.92 126.45 35.88C126.72 35.83 126.98 35.78 127.24 35.74C127.5 35.7 127.73 35.65 127.94 35.62L127.76 34.69C127.32 34.77 126.85 34.85 126.35 34.94C125.85 35.02 125.34 35.12 124.81 35.24C124.18 35.37 123.67 35.64 123.26 36.04C122.87 36.44 122.57 36.97 122.38 37.64ZM134.71 38.17C134.22 37.61 133.58 37.33 132.78 37.33C132.44 37.33 132.13 37.38 131.87 37.47C131.62 37.56 131.41 37.68 131.22 37.83C131.04 37.98 130.89 38.15 130.76 38.34L130.71 38.34L130.57 37.46L129.69 37.46L129.69 46.81L130.76 46.81L130.76 44.16C130.76 44.01 130.75 43.83 130.74 43.62C130.72 43.41 130.7 43.23 130.69 43.1L130.76 43.1C130.89 43.27 131.04 43.42 131.22 43.57C131.41 43.71 131.63 43.82 131.89 43.91C132.14 43.99 132.44 44.04 132.77 44.04C133.31 44.04 133.78 43.91 134.18 43.66C134.58 43.41 134.89 43.03 135.11 42.53C135.34 42.03 135.45 41.41 135.45 40.67C135.45 39.56 135.2 38.72 134.71 38.17ZM138.14 41.71C138.15 41.58 138.15 41.47 138.15 41.4L138.15 37.46L137.15 37.46L137.15 43.92L138.47 43.92L141.92 38.52C141.91 38.62 141.91 38.78 141.9 38.99C141.89 39.19 141.88 39.39 141.87 39.6L141.87 40.11L141.87 43.92L142.87 43.92L142.87 37.46L141.56 37.46L138.08 42.87C138.09 42.79 138.1 42.68 138.1 42.56C138.11 42.42 138.12 42.28 138.13 42.13C138.14 41.98 138.14 41.84 138.14 41.71ZM149.94 37.46L148.77 37.46L146 40.59L146 37.46L144.93 37.46L144.93 43.92L146 43.92L146 40.64L148.93 43.92L150.17 43.92L147.16 40.57L149.94 37.46ZM155.56 37.87C155.18 37.52 154.6 37.35 153.81 37.35C153.39 37.35 152.98 37.4 152.59 37.52C152.21 37.62 151.87 37.75 151.59 37.9L151.92 38.7C152.18 38.57 152.47 38.46 152.78 38.36C153.08 38.26 153.41 38.2 153.75 38.2C154.17 38.2 154.5 38.31 154.74 38.52C154.97 38.73 155.09 39.1 155.09 39.64L155.09 40.02L153.99 40.06C152.93 40.09 152.15 40.28 151.64 40.64C151.13 40.98 150.87 41.48 150.87 42.12C150.87 42.56 150.96 42.92 151.14 43.21C151.32 43.49 151.56 43.7 151.87 43.83C152.18 43.97 152.53 44.04 152.92 44.04C153.28 44.04 153.59 44 153.84 43.93C154.1 43.86 154.33 43.75 154.52 43.59C154.72 43.43 154.92 43.23 155.1 43L155.15 43L155.36 43.92L156.13 43.92L156.13 39.52C156.13 38.76 155.94 38.21 155.56 37.87Z" fill="#000000" fill-opacity="1.000000" fill-rule="evenodd"/>
	<path id="Logo" d="M53.63 37.46L52.47 37.46L49.69 40.59L49.69 37.46L48.63 37.46L48.63 43.92L49.69 43.92L49.69 40.64L52.62 43.92L53.86 43.92L50.86 40.57L53.63 37.46ZM55.16 37.46L54.02 37.46L56.64 43.94L56.3 44.8C56.21 45.03 56.1 45.23 55.97 45.4C55.84 45.58 55.69 45.71 55.5 45.8C55.32 45.9 55.11 45.94 54.86 45.94C54.72 45.94 54.59 45.94 54.46 45.92C54.34 45.9 54.23 45.89 54.14 45.87L54.14 46.72C54.25 46.74 54.37 46.76 54.52 46.78C54.66 46.8 54.83 46.81 55.03 46.81C55.45 46.81 55.8 46.73 56.09 46.56C56.39 46.4 56.64 46.16 56.85 45.86C57.06 45.56 57.24 45.21 57.39 44.81L60.19 37.46L59.04 37.46L57.72 41.12C57.6 41.45 57.5 41.78 57.39 42.11C57.29 42.43 57.21 42.69 57.16 42.89L57.11 42.89C57.08 42.72 57.03 42.54 56.98 42.35C56.92 42.16 56.86 41.96 56.78 41.76C56.72 41.56 56.65 41.35 56.57 41.13L55.16 37.46ZM60.51 37.46L62.76 40.61L60.4 43.92L61.6 43.92L63.4 41.34L65.17 43.92L66.38 43.92L64.02 40.61L66.26 37.46L65.06 37.46L63.4 39.89L61.73 37.46L60.51 37.46ZM72.82 42.11C72.97 41.69 73.04 41.21 73.04 40.67C73.04 39.96 72.91 39.36 72.65 38.87C72.4 38.37 72.05 37.99 71.6 37.73C71.15 37.47 70.64 37.33 70.05 37.33C69.42 37.33 68.89 37.47 68.44 37.73C67.98 37.99 67.64 38.37 67.39 38.87C67.15 39.36 67.03 39.96 67.03 40.67C67.03 41.21 67.1 41.69 67.25 42.11C67.4 42.52 67.61 42.87 67.88 43.16C68.14 43.45 68.46 43.67 68.82 43.82C69.19 43.97 69.58 44.04 70.01 44.04C70.47 44.04 70.89 43.97 71.26 43.82C71.64 43.67 71.96 43.45 72.22 43.16C72.48 42.87 72.68 42.52 72.82 42.11ZM75.8 40.14L75.8 37.46L74.73 37.46L74.73 43.92L75.8 43.92L75.8 41.04L79.32 41.04L79.32 43.92L80.39 43.92L80.39 37.46L79.32 37.46L79.32 40.14L75.8 40.14ZM83.51 40.14L83.51 37.46L82.44 37.46L82.44 43.92L83.51 43.92L83.51 41.04L87.04 41.04L87.04 43.92L88.1 43.92L88.1 37.46L87.04 37.46L87.04 40.14L83.51 40.14ZM94.38 37.87C94 37.52 93.41 37.35 92.62 37.35C92.2 37.35 91.8 37.4 91.41 37.52C91.02 37.62 90.68 37.75 90.4 37.9L90.73 38.7C91 38.57 91.28 38.46 91.59 38.36C91.9 38.26 92.22 38.2 92.56 38.2C92.99 38.2 93.32 38.31 93.55 38.52C93.79 38.73 93.9 39.1 93.9 39.64L93.9 40.02L92.8 40.06C91.74 40.09 90.96 40.28 90.45 40.64C89.94 40.98 89.69 41.48 89.69 42.12C89.69 42.56 89.78 42.92 89.95 43.21C90.13 43.49 90.37 43.7 90.68 43.83C91 43.97 91.35 44.04 91.73 44.04C92.1 44.04 92.4 44 92.66 43.93C92.91 43.86 93.14 43.75 93.33 43.59C93.54 43.43 93.73 43.23 93.92 43L93.96 43L94.17 43.92L94.95 43.92L94.95 39.52C94.95 38.76 94.76 38.21 94.38 37.87ZM96.12 43.92L97.35 43.92L99.02 41.35L100.6 41.35L100.6 43.92L101.67 43.92L101.67 37.46L98.76 37.46C98.06 37.46 97.5 37.62 97.08 37.95C96.66 38.27 96.45 38.74 96.45 39.36C96.45 39.74 96.53 40.06 96.67 40.31C96.82 40.56 97.01 40.76 97.24 40.9C97.48 41.04 97.72 41.14 97.97 41.21L96.12 43.92ZM112.43 37.87C111.95 37.58 111.39 37.42 110.74 37.36L110.74 34.75L109.74 34.75L109.74 37.36C109.06 37.41 108.48 37.57 107.99 37.85C107.51 38.13 107.14 38.5 106.88 38.99C106.62 39.46 106.49 40.03 106.49 40.69C106.49 41.34 106.63 41.9 106.89 42.39C107.16 42.86 107.53 43.24 108.02 43.52C108.5 43.79 109.06 43.96 109.7 44.01L109.7 46.81L110.74 46.81L110.74 44.01C111.42 43.96 111.99 43.79 112.47 43.52C112.94 43.24 113.31 42.86 113.57 42.39C113.83 41.9 113.96 41.34 113.96 40.69C113.96 40.04 113.82 39.47 113.56 39C113.29 38.52 112.91 38.15 112.43 37.87ZM119.86 37.87C119.48 37.52 118.9 37.35 118.11 37.35C117.69 37.35 117.28 37.4 116.9 37.52C116.51 37.62 116.17 37.75 115.89 37.9L116.22 38.7C116.48 38.57 116.77 38.46 117.08 38.36C117.38 38.26 117.71 38.2 118.05 38.2C118.47 38.2 118.81 38.31 119.04 38.52C119.27 38.73 119.39 39.1 119.39 39.64L119.39 40.02L118.29 40.06C117.23 40.09 116.45 40.28 115.94 40.64C115.43 40.98 115.17 41.48 115.17 42.12C115.17 42.56 115.26 42.92 115.44 43.21C115.62 43.49 115.86 43.7 116.17 43.83C116.48 43.97 116.83 44.04 117.22 44.04C117.59 44.04 117.89 44 118.14 43.93C118.4 43.86 118.63 43.75 118.82 43.59C119.02 43.43 119.22 43.23 119.4 43L119.45 43L119.66 43.92L120.43 43.92L120.43 39.52C120.43 38.76 120.24 38.21 119.86 37.87ZM122.38 37.64C122.19 38.3 122.1 39.1 122.1 40.04C122.1 40.69 122.17 41.26 122.31 41.76C122.44 42.26 122.64 42.68 122.9 43.01C123.16 43.35 123.47 43.61 123.83 43.79C124.2 43.95 124.6 44.04 125.04 44.04C125.63 44.04 126.15 43.92 126.6 43.69C127.04 43.45 127.39 43.09 127.64 42.6C127.89 42.12 128.01 41.52 128.01 40.81C128.01 40.23 127.92 39.72 127.72 39.29C127.54 38.85 127.25 38.52 126.87 38.28C126.5 38.03 126.03 37.9 125.47 37.9C125.11 37.9 124.79 37.96 124.51 38.07C124.24 38.18 124 38.32 123.8 38.48C123.6 38.64 123.45 38.8 123.34 38.95L123.26 38.95C123.28 38.5 123.33 38.11 123.42 37.78C123.51 37.45 123.63 37.17 123.77 36.95C123.93 36.72 124.11 36.55 124.32 36.42C124.53 36.28 124.77 36.19 125.03 36.13C125.22 36.09 125.43 36.05 125.67 36.01C125.93 35.96 126.18 35.92 126.45 35.88C126.72 35.83 126.98 35.78 127.24 35.74C127.5 35.7 127.73 35.65 127.94 35.62L127.76 34.69C127.32 34.77 126.85 34.85 126.35 34.94C125.85 35.02 125.34 35.12 124.81 35.24C124.18 35.37 123.67 35.64 123.26 36.04C122.87 36.44 122.57 36.97 122.38 37.64ZM134.71 38.17C134.22 37.61 133.58 37.33 132.78 37.33C132.44 37.33 132.13 37.38 131.87 37.47C131.62 37.56 131.41 37.68 131.22 37.83C131.04 37.98 130.89 38.15 130.76 38.34L130.71 38.34L130.57 37.46L129.69 37.46L129.69 46.81L130.76 46.81L130.76 44.16C130.76 44.01 130.75 43.83 130.74 43.62C130.72 43.41 130.7 43.23 130.69 43.1L130.76 43.1C130.89 43.27 131.04 43.42 131.22 43.57C131.41 43.71 131.63 43.82 131.89 43.91C132.14 43.99 132.44 44.04 132.77 44.04C133.31 44.04 133.78 43.91 134.18 43.66C134.58 43.41 134.89 43.03 135.11 42.53C135.34 42.03 135.45 41.41 135.45 40.67C135.45 39.56 135.2 38.72 134.71 38.17ZM138.14 41.71C138.15 41.58 138.15 41.47 138.15 41.4L138.15 37.46L137.15 37.46L137.15 43.92L138.47 43.92L141.92 38.52C141.91 38.62 141.91 38.78 141.9 38.99C141.89 39.19 141.88 39.39 141.87 39.6L141.87 40.11L141.87 43.92L142.87 43.92L142.87 37.46L141.56 37.46L138.08 42.87C138.09 42.79 138.1 42.68 138.1 42.56C138.11 42.42 138.12 42.28 138.13 42.13C138.14 41.98 138.14 41.84 138.14 41.71ZM149.94 37.46L148.77 37.46L146 40.59L146 37.46L144.93 37.46L144.93 43.92L146 43.92L146 40.64L148.93 43.92L150.17 43.92L147.16 40.57L149.94 37.46ZM155.56 37.87C155.18 37.52 154.6 37.35 153.81 37.35C153.39 37.35 152.98 37.4 152.59 37.52C152.21 37.62 151.87 37.75 151.59 37.9L151.92 38.7C152.18 38.57 152.47 38.46 152.78 38.36C153.08 38.26 153.41 38.2 153.75 38.2C154.17 38.2 154.5 38.31 154.74 38.52C154.97 38.73 155.09 39.1 155.09 39.64L155.09 40.02L153.99 40.06C152.93 40.09 152.15 40.28 151.64 40.64C151.13 40.98 150.87 41.48 150.87 42.12C150.87 42.56 150.96 42.92 151.14 43.21C151.32 43.49 151.56 43.7 151.87 43.83C152.18 43.97 152.53 44.04 152.92 44.04C153.28 44.04 153.59 44 153.84 43.93C154.1 43.86 154.33 43.75 154.52 43.59C154.72 43.43 154.92 43.23 155.1 43L155.15 43L155.36 43.92L156.13 43.92L156.13 39.52C156.13 38.76 155.94 38.21 155.56 37.87ZM68.33 42C68.2 41.62 68.13 41.18 68.13 40.67C68.13 39.91 68.28 39.31 68.58 38.88C68.88 38.44 69.36 38.23 70.02 38.23C70.47 38.23 70.83 38.33 71.1 38.53C71.38 38.72 71.59 39 71.73 39.36C71.87 39.72 71.94 40.16 71.94 40.67C71.94 41.18 71.87 41.62 71.73 42C71.6 42.37 71.4 42.66 71.11 42.86C70.83 43.06 70.47 43.16 70.03 43.16C69.6 43.16 69.24 43.06 68.96 42.86C68.67 42.66 68.46 42.37 68.33 42Z" fill="#000000" fill-opacity="1.000000" fill-rule="evenodd"/>
	<path id="Logo" d="M68.13 40.67C68.13 41.18 68.2 41.62 68.33 42C68.46 42.37 68.67 42.66 68.96 42.86C69.24 43.06 69.6 43.16 70.03 43.16C70.47 43.16 70.83 43.06 71.11 42.86C71.4 42.66 71.6 42.37 71.73 42C71.87 41.62 71.94 41.18 71.94 40.67C71.94 40.16 71.87 39.72 71.73 39.36C71.59 39 71.38 38.72 71.1 38.53C70.83 38.33 70.47 38.23 70.02 38.23C69.36 38.23 68.88 38.44 68.58 38.88C68.28 39.31 68.13 39.91 68.13 40.67Z" fill="#000000" fill-opacity="1.000000" fill-rule="nonzero"/>
</svg>
