<svg width="87.043457" height="22.000000" viewBox="0 0 87.0435 22" fill="none" xmlns="http://www.w3.org/2000/svg" xmlns:xlink="http://www.w3.org/1999/xlink">
	<desc>
			Created with Pixso.
	</desc>
	<defs/>
	<path id="Vector" d="M7.73 0C6.12 0 4.19 1.57 2.63 4.21C0.96 6.97 0 10.36 0 13.31C0 17.65 2.38 22 7.73 22C13.08 22 15.46 17.65 15.46 13.31C15.46 10.36 14.5 6.96 12.83 4.23C11.27 1.57 9.34 0 7.73 0ZM49.5 6.47L54.91 6.47L54.91 20.79L60.72 20.79L60.72 6.47L66.13 6.47L66.13 1.17L49.5 1.17L49.5 6.47ZM78.53 6.47L87.04 6.47L87.04 1.17L78.53 1.17C70.71 1.17 66.54 5.12 66.54 11C66.54 16.87 70.72 20.82 78.53 20.82L87.04 20.82L87.04 15.51L78.53 15.51C74.9 15.51 72.55 14.19 72.55 11C72.55 7.8 74.9 6.47 78.53 6.47ZM37.7 1.18L34.6 12.91L31.51 1.18L21.26 1.18L21.26 20.84L27.06 20.84L27.06 4.83L31.29 20.81L37.94 20.81L42.16 4.82L42.16 20.81L47.97 20.81L47.97 1.18L37.7 1.18Z" fill="#E30A17" fill-opacity="1.000000" fill-rule="nonzero"/>
</svg>
