<svg width="111.000000" height="27.000000" viewBox="0 0 111 27" fill="none" xmlns="http://www.w3.org/2000/svg" xmlns:xlink="http://www.w3.org/1999/xlink">
	<desc>
			Created with Pixso.
	</desc>
	<defs>
		<clipPath id="clip34_1512">
			<rect id="Frame 2" rx="-0.500000" width="110.000000" height="26.000000" transform="translate(0.500000 0.500000)" fill="white" fill-opacity="0"/>
		</clipPath>
	</defs>
	<g clip-path="url(#clip34_1512)">
		<path id="Vector" d="M17.9 2C16.29 2 14.36 3.57 12.8 6.21C11.13 8.97 10.17 12.36 10.17 15.31C10.17 19.65 12.55 24 17.9 24C23.25 24 25.64 19.65 25.64 15.31C25.64 12.36 24.67 8.96 23 6.23C21.44 3.57 19.51 2 17.9 2ZM59.68 8.47L65.09 8.47L65.09 22.79L70.89 22.79L70.89 8.47L76.3 8.47L76.3 3.17L59.68 3.17L59.68 8.47ZM88.7 8.47L97.21 8.47L97.21 3.17L88.7 3.17C80.88 3.17 76.71 7.12 76.71 13C76.71 18.87 80.89 22.82 88.7 22.82L97.21 22.82L97.21 17.51L88.7 17.51C85.07 17.51 82.72 16.19 82.72 13C82.72 9.8 85.07 8.47 88.7 8.47ZM47.88 3.18L44.78 14.91L41.68 3.18L31.43 3.18L31.43 22.84L37.23 22.84L37.23 6.83L41.46 22.81L48.11 22.81L52.34 6.82L52.34 22.81L58.14 22.81L58.14 3.18L47.88 3.18Z" fill="#E30A17" fill-opacity="1.000000" fill-rule="nonzero"/>
	</g>
</svg>
