<svg width="18.000000" height="18.000000" viewBox="0 0 18 18" fill="none" xmlns="http://www.w3.org/2000/svg" xmlns:xlink="http://www.w3.org/1999/xlink">
	<desc>
			Created with Pixso.
	</desc>
	<defs/>
	<path id="Vector" d="M5.54 16.25C5.77 16.28 6.02 16.2 6.19 16.06C6.38 15.89 6.56 15.55 6.56 15.18C6.56 14.76 6.3 14.72 6.2 14.72C6.06 14.72 5.95 14.79 5.85 14.86L5.54 16.25ZM5.93 14.37C6.06 14.29 6.27 14.14 6.58 14.14C7.06 14.14 7.39 14.51 7.39 15.13C7.39 15.48 7.27 15.9 7.02 16.2C6.54 16.8 5.93 16.79 5.42 16.79L5.15 17.96L5.11 17.99C5 17.99 4.9 17.98 4.79 17.98C4.62 17.98 4.48 17.99 4.3 18L4.27 17.96C4.27 17.96 4.44 17.44 4.66 16.55C4.88 15.61 5.09 14.52 5.1 14.29L5.14 14.26L5.96 14.12L5.99 14.16L5.93 14.37ZM4.19 16.74L4.15 16.78C3.99 16.81 3.81 16.83 3.71 16.83C3.35 16.83 2.81 16.77 3.04 15.84C3.19 15.21 3.3 14.74 3.3 14.74L2.96 14.75L2.94 14.71L3.08 14.22L3.11 14.19L3.43 14.19L3.57 13.56L3.6 13.53C3.96 13.44 4.06 13.42 4.39 13.32L4.42 13.35L4.21 14.2L4.7 14.19L4.72 14.23C4.65 14.43 4.64 14.49 4.57 14.72L4.53 14.75L4.09 14.74C4.09 14.74 4 15.12 3.87 15.65C3.74 16.22 3.81 16.19 3.95 16.25C4.06 16.29 4.22 16.23 4.3 16.2L4.33 16.23L4.19 16.74ZM1.49 14.65C1.26 14.65 1 14.77 0.85 15.48C0.69 16.28 1.02 16.33 1.18 16.33C1.32 16.33 1.63 16.25 1.78 15.49C1.89 14.96 1.81 14.65 1.49 14.65ZM2.61 15.49C2.41 16.69 1.67 16.84 1.05 16.84C0.43 16.84 -0.14 16.41 0.02 15.48C0.15 14.75 0.57 14.08 1.61 14.13C2.33 14.17 2.76 14.67 2.61 15.49Z" fill="#00674C" fill-opacity="1.000000" fill-rule="nonzero"/>
	<path id="Vector" d="M16.88 15.29L17.63 16.74L17.6 16.78L17.07 16.79L17.03 16.76C16.9 16.42 16.36 15.34 16.36 15.34C16.22 15.96 16.19 16.1 16.07 16.75L16.03 16.78L15.55 16.79L15.53 16.76C15.53 16.76 15.78 15.68 16.01 14.67C16.11 14.2 16.27 13.46 16.34 13.01L16.37 12.98L16.9 12.89L16.93 12.92C16.83 13.26 16.37 15.27 16.37 15.27C16.72 14.96 17.29 14.35 17.37 14.26L17.42 14.23L17.98 14.23L18 14.28C17.86 14.39 17.6 14.62 17.51 14.7L16.88 15.29ZM15.04 16.75L15 16.78L14.51 16.8L14.49 16.76C14.56 16.43 14.86 15.33 14.86 14.98C14.86 14.69 14.68 14.59 14.45 14.59C14.15 14.59 13.96 14.75 13.81 14.85C13.63 15.68 13.57 15.93 13.42 16.75L13.39 16.78L12.89 16.8L12.87 16.76C12.87 16.76 13.02 16.16 13.15 15.54C13.25 15.05 13.34 14.65 13.38 14.31L13.41 14.28C13.64 14.25 13.69 14.24 13.92 14.19L13.95 14.23L13.88 14.48C14.07 14.35 14.31 14.18 14.71 14.18C14.87 14.18 15.39 14.22 15.39 14.81C15.39 15.17 15.09 16.41 15.04 16.75ZM12.29 14.6C12.22 14.6 12.14 14.6 12.07 14.6C11.91 14.6 11.6 14.61 11.31 14.8C10.81 15.16 10.8 15.79 10.8 15.81C10.8 16.05 10.92 16.42 11.36 16.42C11.49 16.42 11.71 16.39 11.94 16.18L12.29 14.6ZM12.65 15.23C12.48 15.98 12.44 16.16 12.35 16.75L12.31 16.78L11.86 16.79L11.83 16.76L11.87 16.56C11.79 16.63 11.57 16.81 11.16 16.81C10.67 16.81 10.27 16.46 10.27 15.85C10.27 15.46 10.45 15.04 10.66 14.79C11.1 14.26 11.73 14.23 12.17 14.23L12.84 14.24L12.86 14.28L12.65 15.23ZM8.02 16.4C8.3 16.41 8.7 16.4 9.01 16.19C9.37 15.94 9.54 15.5 9.54 15.19C9.54 14.75 9.27 14.57 8.96 14.57C8.72 14.57 8.54 14.68 8.39 14.78C8.39 14.78 8.05 16.28 8.02 16.4ZM7.43 16.76C7.46 16.61 7.67 15.74 7.89 14.76C8.07 13.92 8.19 13.4 8.24 13.01L8.28 12.97L8.8 12.88L8.83 12.91L8.69 13.46L8.47 14.4C8.67 14.29 8.87 14.18 9.18 14.18C9.65 14.18 10.06 14.51 10.06 15.12C10.06 15.37 9.98 15.84 9.65 16.22C9.22 16.72 8.68 16.76 8.06 16.78L7.8 16.78L7.46 16.79L7.43 16.76Z" fill="#6EC72D" fill-opacity="1.000000" fill-rule="nonzero"/>
	<path id="Vector" d="M6.5 5.73C6.5 4.32 7.62 3.18 9.01 3.18C10.39 3.18 11.52 4.32 11.52 5.73C11.52 7.13 10.39 8.27 9.01 8.27C7.62 8.27 6.5 7.13 6.5 5.73Z" fill="#6EC72D" fill-opacity="1.000000" fill-rule="nonzero"/>
	<path id="Vector" d="M10.75 2.51C10.75 1.7 11.39 1.05 12.18 1.05C12.98 1.05 13.62 1.7 13.62 2.51C13.62 3.31 12.98 3.96 12.18 3.96C11.39 3.96 10.75 3.31 10.75 2.51ZM3.34 5.73C3.34 2.56 5.87 0 8.99 0L8.99 2.07C6.99 2.07 5.38 3.71 5.38 5.73C5.38 7.75 7 9.39 8.99 9.39C10.98 9.39 12.6 7.76 12.6 5.71L14.65 5.71C14.65 8.89 12.12 11.46 8.99 11.46C5.87 11.46 3.34 8.89 3.34 5.73Z" fill="#00674C" fill-opacity="1.000000" fill-rule="nonzero"/>
</svg>
