<svg width="232.000000" height="202.000000" viewBox="0 0 232 202" fill="none" xmlns="http://www.w3.org/2000/svg" xmlns:xlink="http://www.w3.org/1999/xlink">
	<desc>
			Created with Pixso.
	</desc>
	<defs>
		<filter id="filter_34_1545_dd" x="0.000000" y="0.000000" width="232.000000" height="202.000000" filterUnits="userSpaceOnUse" color-interpolation-filters="sRGB">
			<feFlood flood-opacity="0" result="BackgroundImageFix"/>
			<feColorMatrix in="SourceAlpha" type="matrix" values="0 0 0 0 0 0 0 0 0 0 0 0 0 0 0 0 0 0 127 0" result="hardAlpha"/>
			<feOffset dx="0" dy="8"/>
			<feGaussianBlur stdDeviation="5.33333"/>
			<feComposite in2="hardAlpha" operator="out" k2="-1" k3="1"/>
			<feColorMatrix type="matrix" values="0 0 0 0 0.24706 0 0 0 0 0.34118 0 0 0 0 1 0 0 0 0.078 0"/>
			<feBlend mode="normal" in2="BackgroundImageFix" result="effect_dropShadow_1"/>
			<feColorMatrix in="SourceAlpha" type="matrix" values="0 0 0 0 0 0 0 0 0 0 0 0 0 0 0 0 0 0 127 0" result="hardAlpha"/>
			<feOffset dx="0" dy="0"/>
			<feGaussianBlur stdDeviation="1.33333"/>
			<feComposite in2="hardAlpha" operator="out" k2="-1" k3="1"/>
			<feColorMatrix type="matrix" values="0 0 0 0 0.24706 0 0 0 0 0.34118 0 0 0 0 1 0 0 0 0.039 0"/>
			<feBlend mode="normal" in2="effect_dropShadow_1" result="effect_dropShadow_2"/>
			<feBlend mode="normal" in="SourceGraphic" in2="effect_dropShadow_2" result="shape"/>
		</filter>
		<clipPath id="clip34_1546">
			<rect id="Logo" rx="-0.500000" width="149.000000" height="45.000000" transform="translate(41.500000 70.500000)" fill="white" fill-opacity="0"/>
		</clipPath>
	</defs>
	<g filter="url(#filter_34_1545_dd)">
		<rect id="Frame 2" rx="-0.500000" width="199.000000" height="169.000000" transform="translate(16.500000 8.500000)" fill="#FEFEFE" fill-opacity="1.000000"/>
		<g clip-path="url(#clip34_1546)">
			<path id="Vector" d="M61.93 79.02L63.04 78.79C63.32 78.79 63.56 78.85 63.72 78.96C63.88 79.08 63.97 79.2 63.97 79.3C63.97 79.4 63.94 79.56 63.9 79.75C63.85 79.94 63.44 81.89 62.67 85.59C61.9 89.28 61.34 92.04 60.99 93.85C62.7 91.54 64.71 88.71 67 85.34C69.29 81.97 70.63 79.74 71.02 78.63C71.13 78.28 71.3 78.01 71.49 77.82C71.68 77.63 71.86 77.52 72.01 77.49C72.15 77.46 72.39 77.43 72.7 77.43C73.01 77.43 73.38 77.5 73.81 77.63C74.24 77.76 74.46 77.98 74.46 78.31C74.46 78.89 73.57 80.6 71.81 83.4C70.06 86.2 68.03 89.18 65.76 92.33C63.48 95.48 61.59 97.98 60.07 99.81C59.81 100.13 59.47 100.31 59.08 100.31C58.7 100.31 58.29 100.24 57.86 100.11C57.43 99.97 57.21 99.74 57.21 99.39C57.21 98.3 58.18 93.01 60.13 83.57C58.46 85.7 56.44 88.68 54.06 92.49C51.58 96.43 50.18 98.88 49.86 99.81C49.68 100.38 49.47 100.72 49.23 100.81C49.07 100.88 48.9 100.91 48.72 100.91L47.52 101.04C47.29 101.04 47.08 100.98 46.87 100.85C46.68 100.72 46.58 100.59 46.58 100.44C46.58 100.05 47.14 98.85 48.25 96.87C49.35 94.88 50.67 92.72 52.16 90.39C53.65 88.05 55.2 85.79 56.82 83.59C58.45 81.38 59.7 79.9 60.59 79.15C60.77 78.99 60.97 78.92 61.21 78.92L61.93 79.02Z" fill="#292F36" fill-opacity="1.000000" fill-rule="nonzero"/>
			<path id="Vector" d="M79.68 88.91C80.45 88.91 80.84 89.18 80.84 89.69C80.84 89.96 80.78 90.17 80.64 90.3C80.51 90.43 80.23 90.85 79.8 91.6C79.37 92.33 78.9 93.26 78.38 94.41C77.87 95.55 77.53 96.53 77.38 97.33C77.35 97.43 77.34 97.57 77.34 97.76C77.34 98.31 77.48 98.57 77.79 98.57C78.1 98.57 78.46 98.43 78.87 98.15C79.29 97.86 79.65 97.57 79.98 97.23C80.3 96.91 80.61 96.57 80.92 96.24C81.23 95.9 81.41 95.7 81.47 95.66C81.53 95.61 81.62 95.58 81.74 95.58C81.93 95.58 82.05 95.73 82.09 96.02C82.14 96.31 82.15 96.6 82.15 96.92C82.15 97.25 82.12 97.45 82.06 97.57C81.77 98.14 81.13 98.82 80.13 99.62C79.14 100.43 78.22 100.82 77.41 100.82C76.6 100.82 75.99 100.57 75.62 100.09C75.25 99.61 75.05 99.06 75.05 98.47C75.05 97.87 75.15 97.36 75.36 96.91C74.52 97.99 73.56 98.89 72.48 99.65C71.38 100.4 70.51 100.78 69.82 100.78C69.13 100.78 68.58 100.57 68.14 100.16C67.58 99.65 67.31 98.95 67.31 98.05C67.31 97.14 67.52 96.24 67.93 95.32C68.34 94.41 68.87 93.57 69.54 92.82C70.2 92.07 70.94 91.38 71.74 90.77C73.41 89.47 74.96 88.83 76.38 88.83C76.92 88.83 77.37 88.91 77.71 89.09C78.04 89.26 78.27 89.5 78.35 89.76C78.59 89.39 78.8 89.18 78.98 89.07C79.11 88.96 79.36 88.91 79.68 88.91ZM77.68 90.58C75.95 90.58 74.16 91.53 72.32 93.42C71.67 94.11 71.06 94.91 70.5 95.86C69.94 96.81 69.67 97.45 69.67 97.8C69.67 98.15 69.78 98.33 69.98 98.33C70.26 98.33 71.05 97.77 72.34 96.68C73.64 95.58 74.5 94.77 74.91 94.24C75.39 93.66 76.3 92.43 77.68 90.58Z" fill="#292F36" fill-opacity="1.000000" fill-rule="nonzero"/>
			<path id="Vector" d="M91.17 81L91.79 81.15C91.88 81.15 91.97 81.19 92.03 81.28C92.1 81.37 92.13 81.46 92.13 81.53C92.13 81.6 92.03 81.82 91.81 82.17C91.59 82.52 91.35 82.92 91.05 83.35C90.76 83.79 90.61 84.04 90.6 84.08C91.38 84.03 91.94 84 92.27 84C92.59 84 92.81 84.03 92.94 84.07C93.06 84.11 93.21 84.24 93.36 84.45C93.52 84.65 93.65 84.81 93.79 84.92C93.92 85.02 93.98 85.18 93.98 85.38C93.98 85.59 93.85 85.78 93.59 85.91C93.34 86.05 93.06 86.14 92.77 86.17C90.42 86.4 89.13 86.52 88.9 86.54C88.09 87.78 86.93 89.7 85.47 92.31C84.01 94.93 83.23 96.57 83.14 97.23C83.1 97.54 83.08 97.77 83.08 97.96C83.08 98.35 83.29 98.54 83.7 98.54C84.11 98.54 84.57 98.38 85.07 98.08C85.58 97.76 86.05 97.42 86.46 97.06C87.6 96.06 88.2 95.55 88.28 95.55C88.54 95.55 88.68 96.01 88.68 96.89C88.68 97.38 88.46 97.81 88 98.21C86.98 99.07 86.12 99.73 85.43 100.16C84.73 100.6 84.04 100.82 83.33 100.82C83.18 100.82 83.04 100.81 82.9 100.78C82.09 100.63 81.5 100.34 81.13 99.9C80.75 99.46 80.57 98.88 80.57 98.15C80.57 97.42 80.79 96.52 81.23 95.47C81.68 94.41 82.22 93.29 82.89 92.11C83.98 90.17 85.07 88.36 86.15 86.67L85.58 86.74C84.41 86.87 83.73 86.93 83.54 86.93L83.41 86.93C83.11 86.93 82.83 86.87 82.56 86.75C82.3 86.64 82.15 86.49 82.15 86.33C82.15 86.16 82.22 86 82.37 85.83C82.52 85.67 82.61 85.54 82.64 85.46C82.71 85.24 82.98 84.99 83.43 84.73C83.89 84.46 84.23 84.32 84.47 84.3C84.7 84.29 84.93 84.27 85.15 84.26C85.37 84.24 85.61 84.24 85.87 84.23C86.14 84.21 86.34 84.21 86.49 84.2L87.85 84.14C88.69 82.89 89.28 82.07 89.59 81.72C89.92 81.35 90.09 81.17 90.14 81.14C90.18 81.11 90.29 81.08 90.45 81.08L91.17 81Z" fill="#292F36" fill-opacity="1.000000" fill-rule="nonzero"/>
			<path id="Vector" d="M100.25 95.58C100.45 95.58 100.56 95.73 100.61 96.02C100.65 96.31 100.67 96.6 100.67 96.92C100.67 97.25 100.64 97.45 100.58 97.57C100.28 98.12 99.65 98.81 98.66 99.61C97.67 100.41 96.72 100.82 95.84 100.82C95.29 100.82 94.79 100.66 94.32 100.34C93.86 100.02 93.62 99.45 93.62 98.65C93.62 97.84 93.85 97.04 94.27 96.27C91.76 99.38 89.81 100.92 88.38 100.92C87.82 100.92 87.36 100.72 87.01 100.32C86.65 99.93 86.49 99.52 86.49 99.08C86.49 98.66 86.55 98.22 86.67 97.77C86.79 97.32 86.92 96.91 87.05 96.54C87.19 96.18 87.39 95.74 87.66 95.22C87.92 94.69 88.13 94.31 88.25 94.06C88.37 93.82 88.59 93.47 88.88 92.98C89.18 92.5 89.55 91.85 90.02 91.03C90.49 90.21 90.88 89.6 91.19 89.21C91.5 88.81 91.79 88.61 92.09 88.61C92.38 88.61 92.63 88.72 92.86 88.96C93.08 89.19 93.2 89.39 93.2 89.54C93.2 89.69 92.86 90.36 92.18 91.55C90.18 95.13 89.18 97.2 89.18 97.8C89.18 97.95 89.24 98.02 89.34 98.02C89.83 98.02 91.04 96.98 92.96 94.91C94.88 92.84 96 91.51 96.31 90.93C96.62 90.34 96.9 89.85 97.2 89.45C97.48 89.06 97.7 88.81 97.85 88.72C98.28 88.45 98.84 88.3 99.53 88.27C99.65 88.27 99.72 88.27 99.78 88.29C99.84 88.3 99.91 88.39 99.99 88.53C100.06 88.68 100.11 88.81 100.11 88.91C100.02 89.19 99.62 89.93 98.9 91.15C98.19 92.36 97.79 93.04 97.71 93.19C96.52 95.63 95.93 97.22 95.93 97.95C95.93 98.37 96.09 98.57 96.41 98.57C97.01 98.5 97.71 98.03 98.54 97.19C98.85 96.88 99.15 96.56 99.44 96.24C99.74 95.92 99.93 95.73 99.99 95.68C100.06 95.61 100.15 95.58 100.25 95.58Z" fill="#292F36" fill-opacity="1.000000" fill-rule="nonzero"/>
			<path id="Vector" d="M104.64 92.12C107.02 89.45 109.06 88.11 110.72 88.11C111.14 88.11 111.48 88.23 111.74 88.48C112.01 88.72 112.14 89.03 112.14 89.42C112.14 89.82 111.86 90.46 111.3 91.38C110.74 92.28 110.22 93.06 109.75 93.68C109.5 94.01 109.22 94.17 108.89 94.17C108.58 94.17 108.33 94.05 108.15 93.82C107.98 93.58 107.89 93.32 107.89 93.01C107.89 92.33 108.26 91.54 109.01 90.68L108.98 90.65C108.64 90.68 107.83 91.34 106.5 92.59C105.19 93.86 104.06 95 103.13 95.99C102.22 97 101.21 98.21 100.12 99.65C99.81 100.08 99.55 100.3 99.32 100.3C99.1 100.3 98.82 100.22 98.47 100.09C98.11 99.96 97.89 99.86 97.82 99.8C97.74 99.74 97.7 99.64 97.7 99.49C97.7 99.36 97.74 99.19 97.82 99.01C97.89 98.82 98.05 98.56 98.26 98.22C98.47 97.89 98.81 97.33 99.25 96.57C99.69 95.82 100.37 94.66 101.3 93.13C102.23 91.6 102.78 90.66 102.97 90.34C103.36 89.69 103.67 89.21 103.92 88.91C104.37 88.34 105.14 88.07 106.22 88.07C106.46 88.07 106.59 88.21 106.59 88.52C106.59 88.99 106.15 89.88 105.28 91.16L104.64 92.12Z" fill="#292F36" fill-opacity="1.000000" fill-rule="nonzero"/>
			<path id="Vector" d="M120.93 89.09C120.93 89.75 120.66 90.33 120.12 90.83C119.57 91.32 118.96 91.57 118.27 91.57C118.05 91.57 117.9 91.51 117.83 91.41C117.75 91.31 117.72 91.16 117.72 91C117.72 90.84 117.74 90.66 117.78 90.5C117.41 90.62 117.01 90.81 116.57 91.06C116.13 91.31 115.58 91.67 114.93 92.17C114.28 92.66 113.96 93.01 113.96 93.26C113.96 93.33 114.08 93.38 114.31 93.38C114.55 93.38 114.92 93.29 115.41 93.13C115.89 92.97 116.25 92.88 116.44 92.88C116.63 92.88 116.76 92.9 116.82 92.91C116.96 92.98 117.09 93.13 117.25 93.36C117.4 93.6 117.47 93.79 117.47 93.92C117.47 94.05 117.34 94.23 117.07 94.44C116.81 94.66 116.51 94.82 116.19 94.94C115.85 95.06 115.63 95.14 115.52 95.2C113.4 96.38 112.33 97.19 112.33 97.62C112.33 98.4 113 98.79 114.34 98.79C115.2 98.79 116.07 98.53 116.93 97.99C117.66 97.54 118.33 97.07 118.92 96.59C119.51 96.12 119.88 95.83 120.04 95.71C120.2 95.6 120.32 95.55 120.4 95.55C120.66 95.55 120.8 95.84 120.8 96.43C120.8 97.01 120.77 97.39 120.69 97.57C120.62 97.76 120.43 97.98 120.09 98.25C117.93 99.99 115.88 100.86 113.96 100.86C112.92 100.86 112.11 100.72 111.49 100.44C110.36 99.93 109.79 99.16 109.79 98.11C109.79 96.73 110.75 95.68 112.69 94.98C112.3 94.81 112.05 94.6 111.95 94.33C111.83 94.06 111.79 93.64 111.79 93.06C111.79 92.47 112.07 91.86 112.61 91.2C113.16 90.55 113.84 90.01 114.64 89.6C116.41 88.65 118 88.18 119.39 88.18C119.73 88.18 120.06 88.26 120.41 88.42C120.77 88.58 120.93 88.8 120.93 89.09Z" fill="#292F36" fill-opacity="1.000000" fill-rule="nonzero"/>
			<path id="Vector" d="M155.39 78.93L155.59 78.93C155.64 78.93 155.69 78.93 155.7 78.95C155.72 78.96 155.73 78.96 155.76 78.98C155.79 78.98 155.81 78.99 155.84 79.02C155.88 79.06 155.95 79.11 156.04 79.15C156.16 79.24 156.22 79.34 156.22 79.46C156.22 79.57 156.1 79.82 155.87 80.2C155.63 80.58 155.02 81.5 154.03 82.99C151.78 86.4 149.75 89.58 147.97 92.5C144.88 97.58 143.31 100.13 143.28 100.16C143.25 100.19 143.24 100.22 143.23 100.25C143.21 100.31 143.18 100.34 143.11 100.34L142.9 100.3L142.49 100.4L142.25 100.35L142 100.4L141.91 100.4L141.07 100.51C140.57 100.51 140.32 100.34 140.32 100C140.32 99.86 140.36 99.68 140.45 99.48C140.76 98.75 142.34 96.11 145.17 91.53C143.31 91.57 141.47 91.6 139.65 91.6L136.4 91.58C135.87 92.43 135.13 93.63 134.2 95.19C132.2 98.59 131.13 100.3 131 100.32C130.87 100.35 130.76 100.38 130.67 100.38C130.59 100.38 130.51 100.34 130.45 100.24C130.38 100.15 130.33 100.09 130.3 100.09C130.28 100.09 130.23 100.11 130.14 100.15C130.07 100.19 129.95 100.21 129.79 100.21L129.43 100.19L129.3 100.11C129.29 100.11 129.27 100.12 129.26 100.15C129.24 100.18 129.2 100.19 129.14 100.19C128.71 100.19 128.49 100.02 128.49 99.65C128.49 99.42 128.58 99.1 128.74 98.7C128.92 98.31 129.14 97.89 129.42 97.43C129.7 96.98 130.41 95.89 131.57 94.18C132.73 92.47 133.3 91.61 133.3 91.6C133.11 91.58 132.89 91.58 132.64 91.57C132.12 91.57 131.77 91.55 131.55 91.51C130.97 91.41 130.57 90.94 130.36 90.11C130.25 89.7 130.2 89.44 130.22 89.31C130.22 89.04 130.33 88.9 130.57 88.9L130.97 89C131.18 89.02 131.65 89.03 132.42 89.07C133.18 89.12 133.73 89.13 134.07 89.13L134.93 89.1C136.24 87.07 137.81 84.77 139.64 82.2C138.31 83.28 136.83 83.82 135.21 83.82C134.44 83.82 133.78 83.65 133.23 83.28C132.67 82.92 132.4 82.45 132.4 81.89C132.4 81.34 132.61 80.9 133.04 80.57C133.46 80.25 133.86 80.09 134.25 80.09C134.63 80.09 134.82 80.14 134.82 80.26C134.82 80.3 134.76 80.35 134.66 80.39C134.56 80.45 134.5 80.49 134.5 80.54C134.5 80.7 134.67 80.84 135.03 80.96C135.38 81.08 135.78 81.15 136.23 81.15C136.67 81.15 137.2 81.02 137.85 80.77C138.5 80.52 139.16 80.19 139.86 79.79C140.83 79.24 141.6 78.77 142.16 78.41C142.49 78.25 142.78 78.17 143.08 78.17C143.37 78.17 143.57 78.2 143.7 78.28C143.83 78.33 143.92 78.41 143.98 78.47C144.04 78.52 144.11 78.61 144.17 78.71C144.24 78.82 144.3 78.9 144.38 78.95C144.44 79.01 144.48 79.06 144.48 79.14C144.48 79.21 144.44 79.31 144.36 79.47C144.29 79.62 143.91 80.23 143.21 81.3C142.52 82.36 141.62 83.72 140.52 85.37C139.43 87.02 138.63 88.23 138.13 89.02C140.83 89.02 143.74 88.97 146.87 88.87C150.68 82.93 152.69 79.82 152.9 79.53C153.1 79.24 153.3 79.05 153.47 78.96C153.65 78.87 153.86 78.83 154.11 78.83L155.39 78.93Z" fill="#292F36" fill-opacity="1.000000" fill-rule="nonzero"/>
			<path id="Vector" d="M160.33 88.88C160.64 88.88 160.95 89.02 161.26 89.29C161.58 89.57 161.73 89.98 161.73 90.53C161.73 91.09 161.54 91.8 161.14 92.69C160.74 93.57 160.21 94.47 159.51 95.39C158.83 96.3 158.07 97.16 157.25 97.96C156.43 98.76 155.54 99.42 154.6 99.93C153.64 100.44 152.78 100.7 152 100.7C151.21 100.7 150.59 100.46 150.12 99.97C149.65 99.49 149.41 98.82 149.41 97.96C149.41 97.1 149.63 96.14 150.06 95.1C150.49 94.05 151.04 93.13 151.72 92.33C152.39 91.53 153.12 90.81 153.92 90.17C155.56 88.86 157 88.21 158.24 88.21C158.8 88.21 159.22 88.34 159.5 88.62C159.6 88.71 159.65 88.8 159.65 88.86L159.65 88.94C159.81 88.88 160.03 88.88 160.33 88.88ZM158.8 90.87L158.7 90.87C158.35 90.87 158.17 90.62 158.17 90.11C157.43 90.34 156.66 90.77 155.85 91.37C155.04 91.96 154.32 92.68 153.68 93.5C152.38 95.13 151.73 96.52 151.72 97.64C151.72 98.19 151.92 98.47 152.34 98.47C152.75 98.47 153.37 98.19 154.18 97.67C154.99 97.14 155.81 96.37 156.62 95.36C157.42 94.37 158.02 93.5 158.42 92.77C158.82 92.04 159.03 91.54 159.03 91.26C159.01 91 158.94 90.87 158.8 90.87Z" fill="#292F36" fill-opacity="1.000000" fill-rule="nonzero"/>
			<path id="Vector" d="M161.4 100.37L160.67 100.34L160.4 100.34C160.3 100.31 160.19 100.25 160.07 100.16C159.96 100.08 159.87 100 159.81 99.97C159.75 99.95 159.72 99.86 159.72 99.76C159.72 99.65 159.76 99.46 159.84 99.22C161.8 94.94 163.71 91.51 165.55 88.96C165.76 88.68 166.09 88.46 166.53 88.32C166.97 88.17 167.41 88.1 167.84 88.1C168.09 88.1 168.23 88.29 168.23 88.68C168.23 88.8 168.18 88.94 168.11 89.12C168.03 89.31 167.83 89.6 167.5 90.02C167.18 90.45 166.79 90.93 166.35 91.45C165.91 91.98 165.66 92.3 165.6 92.39C166.99 90.97 168.23 89.92 169.35 89.22C170.47 88.53 171.27 88.18 171.77 88.18C172.27 88.18 172.66 88.33 172.92 88.61C173.19 88.88 173.32 89.19 173.32 89.51C173.32 89.83 173.29 90.11 173.25 90.31C173.2 90.53 173.11 90.75 173 90.99C172.88 91.22 172.77 91.42 172.69 91.58C172.6 91.74 172.45 91.96 172.26 92.23C172.05 92.49 171.92 92.68 171.84 92.78C171.77 92.88 171.61 93.07 171.37 93.35C171.14 93.63 171 93.79 170.99 93.82C171.27 93.54 171.67 93.13 172.17 92.58C172.67 92.02 173.1 91.57 173.45 91.2C173.81 90.84 174.24 90.42 174.77 89.95C175.3 89.48 175.79 89.1 176.23 88.83C177.32 88.15 178.43 87.8 179.55 87.8C179.94 87.8 180.26 87.92 180.53 88.17C180.79 88.42 180.93 88.69 180.93 89.03C180.93 89.37 180.51 90.17 179.7 91.42C178.89 92.68 178.06 93.95 177.25 95.22C176.44 96.49 176.02 97.29 176.02 97.62C176.02 98.08 176.11 98.35 176.27 98.44C176.45 98.53 176.66 98.56 176.89 98.54C177.13 98.53 177.49 98.37 177.91 98.08C178.36 97.79 178.74 97.49 179.08 97.17C179.64 96.68 180.14 96.19 180.63 95.73C180.73 95.64 180.84 95.6 180.97 95.6C181.16 95.6 181.28 95.74 181.32 96.03C181.37 96.33 181.38 96.62 181.38 96.94C181.38 97.26 181.35 97.46 181.29 97.58C181 98.14 180.35 98.82 179.36 99.64C178.36 100.44 177.4 100.85 176.48 100.85C176.36 100.85 176.29 100.85 176.25 100.84C175.21 100.73 174.49 100.46 174.09 99.99C173.69 99.52 173.5 98.97 173.5 98.34C173.5 97.71 173.72 96.92 174.16 96.02C174.61 95.12 175.08 94.28 175.61 93.55C176.14 92.82 176.61 92.15 177.06 91.55C177.5 90.96 177.72 90.64 177.72 90.59C177.72 90.55 177.68 90.52 177.6 90.52C177.29 90.52 176.6 91.01 175.51 92.02C173.66 93.73 172.07 95.38 170.72 96.95C170.37 97.38 169.53 98.43 168.21 100.14C168.06 100.34 167.81 100.44 167.49 100.44C167.16 100.44 166.82 100.38 166.47 100.25C166.11 100.12 165.94 99.96 165.94 99.77C165.94 99.67 166.74 98.27 168.34 95.57C169.95 92.87 170.75 91.39 170.75 91.16C170.75 90.91 170.6 90.8 170.31 90.8C170.01 90.8 169.39 91.23 168.46 92.11C165.91 94.52 163.93 96.92 162.53 99.3C162.44 99.45 162.26 99.67 162 99.96C161.73 100.25 161.49 100.37 161.4 100.37Z" fill="#292F36" fill-opacity="1.000000" fill-rule="nonzero"/>
			<path id="Vector" d="M190.69 89.09C190.69 89.75 190.42 90.33 189.87 90.83C189.33 91.32 188.72 91.57 188.03 91.57C187.81 91.57 187.66 91.51 187.58 91.41C187.51 91.31 187.48 91.16 187.48 91C187.48 90.84 187.5 90.66 187.54 90.5C187.17 90.62 186.77 90.81 186.33 91.06C185.89 91.31 185.34 91.67 184.69 92.17C184.04 92.66 183.72 93.01 183.72 93.26C183.72 93.33 183.83 93.38 184.07 93.38C184.31 93.38 184.68 93.29 185.16 93.13C185.65 92.97 186.01 92.88 186.2 92.88C186.39 92.88 186.52 92.9 186.58 92.91C186.71 92.98 186.85 93.13 187.01 93.36C187.16 93.6 187.23 93.79 187.23 93.92C187.23 94.05 187.1 94.23 186.83 94.44C186.57 94.66 186.27 94.82 185.95 94.94C185.61 95.06 185.38 95.14 185.28 95.2C183.16 96.38 182.09 97.19 182.09 97.62C182.09 98.4 182.76 98.79 184.1 98.79C184.96 98.79 185.83 98.53 186.68 97.99C187.42 97.54 188.09 97.07 188.68 96.59C189.27 96.12 189.64 95.83 189.8 95.71C189.96 95.6 190.08 95.55 190.15 95.55C190.42 95.55 190.55 95.84 190.55 96.43C190.55 97.01 190.52 97.39 190.45 97.57C190.38 97.76 190.18 97.98 189.84 98.25C187.69 99.99 185.64 100.86 183.72 100.86C182.68 100.86 181.87 100.72 181.25 100.44C180.11 99.93 179.55 99.16 179.55 98.11C179.55 96.73 180.51 95.68 182.45 94.98C182.06 94.81 181.81 94.6 181.71 94.33C181.59 94.06 181.55 93.64 181.55 93.06C181.55 92.47 181.83 91.86 182.37 91.2C182.92 90.55 183.6 90.01 184.4 89.6C186.17 88.65 187.76 88.18 189.15 88.18C189.49 88.18 189.82 88.26 190.17 88.42C190.52 88.58 190.69 88.8 190.69 89.09Z" fill="#292F36" fill-opacity="1.000000" fill-rule="nonzero"/>
			<path id="Vector" d="M41 104.41C44.88 106.02 48.84 107.26 52.87 108.2C56.87 109.2 60.95 109.9 65.02 110.33C67.06 110.61 69.11 110.64 71.13 110.83C73.19 110.85 75.22 111.01 77.26 110.89L80.32 110.82C81.34 110.8 82.36 110.67 83.38 110.61C84.39 110.52 85.41 110.48 86.42 110.35L89.44 109.93C93.51 109.49 97.45 108.55 101.38 107.43C105.35 106.35 109.1 104.92 113.07 103.43C117.13 101.96 121.53 101 125.99 101.46C128.19 101.74 130.41 102.44 132.21 103.72C134.03 104.99 135.33 106.8 136.15 108.7C134.91 107.01 133.36 105.62 131.57 104.76C129.79 103.9 127.82 103.55 125.87 103.61C121.93 103.67 118.05 104.96 114.4 106.6C110.69 108.41 106.68 110.04 102.63 111.4C98.56 112.7 94.35 113.73 90.08 114.26C81.59 115.37 72.89 115.38 64.5 113.71C60.3 112.95 56.19 111.76 52.22 110.26C48.28 108.7 44.42 106.88 41 104.41Z" fill="#292F36" fill-opacity="1.000000" fill-rule="nonzero"/>
			<path id="Vector" d="M182.21 80.11C178.92 78.73 175.57 77.65 172.17 76.8C168.79 75.91 165.36 75.28 161.92 74.85C160.21 74.58 158.47 74.53 156.75 74.32C155.02 74.28 153.31 74.1 151.58 74.18C150.73 74.19 149.86 74.19 149 74.18C148.14 74.18 147.27 74.26 146.42 74.29C145.56 74.35 144.69 74.37 143.83 74.45L141.26 74.76C137.82 75.04 134.48 75.74 131.15 76.6C127.77 77.4 124.56 78.54 121.15 79.68C117.65 80.83 113.85 81.53 110.05 81C108.17 80.7 106.28 80.04 104.79 78.87C103.27 77.72 102.23 76.15 101.6 74.5C102.65 75.94 103.95 77.12 105.44 77.85C106.93 78.58 108.57 78.89 110.21 78.87C113.52 78.87 116.79 77.82 119.89 76.51C123.05 75.02 126.52 73.71 129.98 72.63C133.47 71.59 137.1 70.81 140.73 70.43C147.98 69.67 155.39 69.84 162.5 71.51C166.06 72.25 169.53 73.39 172.85 74.79C176.18 76.22 179.4 77.88 182.21 80.11Z" fill="#292F36" fill-opacity="1.000000" fill-rule="nonzero"/>
		</g>
		<rect id="Frame 2" rx="-0.500000" width="199.000000" height="169.000000" transform="translate(16.500000 8.500000)" stroke="#E7E8E3" stroke-opacity="1.000000" stroke-width="1.000000"/>
	</g>
</svg>
