<svg width="232.000000" height="202.000000" viewBox="0 0 232 202" fill="none" xmlns="http://www.w3.org/2000/svg" xmlns:xlink="http://www.w3.org/1999/xlink">
	<desc>
			Created with Pixso.
	</desc>
	<defs>
		<filter id="filter_34_1559_dd" x="0.000000" y="0.000000" width="232.000000" height="202.000000" filterUnits="userSpaceOnUse" color-interpolation-filters="sRGB">
			<feFlood flood-opacity="0" result="BackgroundImageFix"/>
			<feColorMatrix in="SourceAlpha" type="matrix" values="0 0 0 0 0 0 0 0 0 0 0 0 0 0 0 0 0 0 127 0" result="hardAlpha"/>
			<feOffset dx="0" dy="8"/>
			<feGaussianBlur stdDeviation="5.33333"/>
			<feComposite in2="hardAlpha" operator="out" k2="-1" k3="1"/>
			<feColorMatrix type="matrix" values="0 0 0 0 0.24706 0 0 0 0 0.34118 0 0 0 0 1 0 0 0 0.078 0"/>
			<feBlend mode="normal" in2="BackgroundImageFix" result="effect_dropShadow_1"/>
			<feColorMatrix in="SourceAlpha" type="matrix" values="0 0 0 0 0 0 0 0 0 0 0 0 0 0 0 0 0 0 127 0" result="hardAlpha"/>
			<feOffset dx="0" dy="0"/>
			<feGaussianBlur stdDeviation="1.33333"/>
			<feComposite in2="hardAlpha" operator="out" k2="-1" k3="1"/>
			<feColorMatrix type="matrix" values="0 0 0 0 0.24706 0 0 0 0 0.34118 0 0 0 0 1 0 0 0 0.039 0"/>
			<feBlend mode="normal" in2="effect_dropShadow_1" result="effect_dropShadow_2"/>
			<feBlend mode="normal" in="SourceGraphic" in2="effect_dropShadow_2" result="shape"/>
		</filter>
		<clipPath id="clip34_1560">
			<rect id="Logo" rx="-0.500000" width="149.000000" height="63.000000" transform="translate(41.500000 61.500000)" fill="white" fill-opacity="0"/>
		</clipPath>
	</defs>
	<g filter="url(#filter_34_1559_dd)">
		<rect id="Frame 2" rx="-0.500000" width="199.000000" height="169.000000" transform="translate(16.500000 8.500000)" fill="#FEFEFE" fill-opacity="1.000000"/>
		<g clip-path="url(#clip34_1560)">
			<path id="Vector" d="M41 99.94L41 61L63.05 61L63.05 99.92L41 99.92L41 99.94ZM60.38 90.88L60.94 86.58L58.89 86.37L58.27 89.68C56.99 90.34 55.42 90.67 53.53 90.67C50.97 90.67 48.94 89.83 47.46 88.14C45.95 86.44 45.22 84.21 45.22 81.44C45.22 78.73 45.95 76.51 47.4 74.76C48.85 73 50.75 72.13 53.11 72.13C54.32 72.13 55.34 72.28 56.17 72.57C56.99 72.85 57.74 73.23 58.45 73.73L59.06 77L61.14 76.79L60.54 72.49C59.66 71.71 58.62 71.08 57.41 70.59C56.2 70.11 54.7 69.86 52.93 69.86C50.82 69.86 49.01 70.4 47.49 71.48C45.97 72.57 44.78 73.99 43.94 75.76C43.1 77.55 42.68 79.48 42.68 81.53C42.68 84.79 43.65 87.51 45.59 89.68C47.53 91.85 50.05 92.93 53.18 92.93C56.26 92.93 58.66 92.25 60.38 90.88Z" fill="#292F36" fill-opacity="1.000000" fill-rule="nonzero"/>
			<path id="Vector" d="M70.53 99.94L70.53 61L80.01 61L80.01 99.92L70.53 99.92L70.53 99.94ZM71.54 92.59L79.02 92.59L79.02 90.63L76.44 90.63L76.44 68.89L71.5 68.89L71.5 70.85L74.12 70.85L74.12 90.63L71.54 90.63L71.54 92.59Z" fill="#292F36" fill-opacity="1.000000" fill-rule="nonzero"/>
			<path id="Vector" d="M87.5 99.94L87.5 61L104.15 61L104.15 99.92L87.5 99.92L87.5 99.94ZM90.52 78.43L89.99 81.97L91.91 82.22L92.48 79.57C93.3 79.15 94.23 78.94 95.33 78.94C96.65 78.94 97.54 79.29 98 79.97C98.46 80.66 98.68 81.55 98.68 82.65L98.68 84.02C98.28 83.99 97.86 83.95 97.4 83.93C96.94 83.91 96.5 83.89 96.06 83.89C94.41 83.89 92.84 84.2 91.38 84.81C89.91 85.41 89.18 86.69 89.18 88.61C89.18 90.25 89.67 91.37 90.68 91.98C91.69 92.61 92.68 92.91 93.65 92.91C94.84 92.91 95.86 92.59 96.7 91.94C97.54 91.3 98.2 90.57 98.68 89.73L98.68 89.81C98.72 91.89 99.61 92.91 101.37 92.91C102.05 92.91 102.69 92.74 103.29 92.4L103.25 90.82C102.96 90.95 102.63 91.03 102.27 91.03C101.42 91.03 101 90.48 101 89.37L101 82.08C101 78.66 99.25 76.94 95.73 76.94C94.76 76.94 93.85 77.06 92.99 77.29C92.11 77.53 91.29 77.91 90.52 78.43ZM98.66 86.84C98.57 88.1 98.08 89.11 97.18 89.83C96.28 90.57 95.33 90.93 94.31 90.93C93.66 90.93 93.04 90.74 92.46 90.38C91.85 90.02 91.56 89.33 91.56 88.35C91.56 87.15 92.02 86.38 92.9 86.02C93.79 85.66 94.78 85.49 95.9 85.49C96.39 85.49 96.87 85.51 97.32 85.57C97.78 85.6 98.24 85.64 98.64 85.66L98.64 86.84L98.66 86.84Z" fill="#292F36" fill-opacity="1.000000" fill-rule="nonzero"/>
			<path id="Vector" d="M111.65 99.94L111.65 61L126.79 61L126.79 99.92L111.65 99.92L111.65 99.94ZM125.2 88.15C125.2 86.94 124.89 86.04 124.26 85.45C123.64 84.86 122.89 84.46 121.98 84.23C121.06 84.01 120.16 83.82 119.27 83.66C118.37 83.51 117.6 83.26 116.98 82.94C116.36 82.62 116.05 82.05 116.05 81.23C116.05 80.45 116.34 79.88 116.94 79.5C117.55 79.11 118.3 78.94 119.23 78.94C120.31 78.94 121.32 79.19 122.25 79.7L122.62 82.18L124.54 81.93L124.17 78.35C123.55 77.95 122.8 77.63 121.9 77.36C121.01 77.1 120.05 76.94 119.03 76.94C117.68 76.94 116.43 77.29 115.28 77.95C114.13 78.62 113.56 79.76 113.56 81.4C113.56 82.6 113.87 83.47 114.49 84.02C115.11 84.6 115.88 84.98 116.82 85.2C117.75 85.43 118.66 85.62 119.58 85.79C120.49 85.95 121.26 86.21 121.88 86.56C122.51 86.9 122.82 87.49 122.82 88.35C122.82 89.22 122.42 89.87 121.61 90.29C120.8 90.71 119.89 90.91 118.85 90.91C117.68 90.91 116.58 90.67 115.57 90.15L115.66 88.12L113.81 87.91L113.36 91.39C114 91.83 114.84 92.19 115.86 92.48C116.89 92.76 117.91 92.91 118.96 92.91C120.73 92.91 122.21 92.49 123.4 91.64C124.59 90.82 125.2 89.64 125.2 88.15Z" fill="#292F36" fill-opacity="1.000000" fill-rule="nonzero"/>
			<path id="Vector" d="M134.27 99.94L134.27 61L149.41 61L149.41 99.92L134.27 99.92L134.27 99.94ZM147.82 88.15C147.82 86.94 147.5 86.04 146.88 85.45C146.26 84.86 145.51 84.46 144.6 84.23C143.68 84.01 142.78 83.82 141.89 83.66C140.99 83.51 140.22 83.26 139.6 82.94C138.98 82.62 138.67 82.05 138.67 81.23C138.67 80.45 138.96 79.88 139.56 79.5C140.17 79.11 140.92 78.94 141.85 78.94C142.93 78.94 143.94 79.19 144.87 79.7L145.24 82.18L147.16 81.93L146.79 78.35C146.17 77.95 145.42 77.63 144.52 77.36C143.63 77.1 142.67 76.94 141.65 76.94C140.3 76.94 139.05 77.29 137.9 77.95C136.74 78.62 136.18 79.76 136.18 81.4C136.18 82.6 136.49 83.47 137.11 84.02C137.73 84.6 138.5 84.98 139.43 85.2C140.37 85.43 141.28 85.62 142.2 85.79C143.11 85.95 143.88 86.21 144.5 86.56C145.13 86.9 145.44 87.49 145.44 88.35C145.44 89.22 145.03 89.87 144.23 90.29C143.42 90.71 142.51 90.91 141.47 90.91C140.3 90.91 139.2 90.67 138.19 90.15L138.28 88.12L136.43 87.91L135.98 91.39C136.62 91.83 137.46 92.19 138.48 92.48C139.51 92.76 140.53 92.91 141.58 92.91C143.35 92.91 144.83 92.49 146.02 91.64C147.21 90.82 147.82 89.64 147.82 88.15Z" fill="#292F36" fill-opacity="1.000000" fill-rule="nonzero"/>
			<path id="Vector" d="M156.89 99.94L156.89 61L166.87 61L166.87 99.92L156.89 99.92L156.89 99.94ZM158.36 92.59L165.84 92.59L165.84 90.63L163.26 90.63L163.26 77.27L158.3 77.27L158.3 79.23L160.96 79.23L160.96 90.63L158.38 90.63L158.38 92.59L158.36 92.59ZM160.7 70.17L160.7 73.31L163.23 73.31L163.23 70.17L160.7 70.17Z" fill="#292F36" fill-opacity="1.000000" fill-rule="nonzero"/>
			<path id="Vector" d="M174.35 99.94L174.35 61L190.29 61L190.29 99.92L174.35 99.92L174.35 99.94ZM188.86 87.43L186.87 86.97C186.43 89.56 185.1 90.86 182.9 90.86C181.44 90.86 180.32 90.34 179.55 89.32C178.78 88.29 178.4 86.84 178.4 85.01C178.4 83.36 178.74 81.95 179.42 80.77C180.1 79.59 181.23 79.02 182.81 79.02C184.02 79.02 185.08 79.3 185.96 79.88L186.52 82.46L188.44 82.22L187.88 78.52C187.13 77.93 186.34 77.52 185.52 77.29C184.69 77.06 183.8 76.94 182.83 76.94C180.54 76.94 178.8 77.78 177.66 79.46C176.51 81.13 175.94 83.04 175.94 85.15C175.94 87.6 176.55 89.52 177.78 90.88C178.98 92.25 180.61 92.93 182.64 92.93C184.67 92.93 186.17 92.34 187.13 91.18C188.08 90 188.66 88.76 188.86 87.43Z" fill="#292F36" fill-opacity="1.000000" fill-rule="nonzero"/>
			<path id="Vector" d="M50.53 121.2C50.11 122 49.49 122.62 48.68 123.06C47.86 123.5 46.89 123.73 45.75 123.73L42.48 123.73L42.48 112.99L45.75 112.99C46.89 112.99 47.88 113.2 48.68 113.64C49.49 114.08 50.11 114.69 50.53 115.51C50.95 116.32 51.15 117.26 51.15 118.36C51.15 119.45 50.95 120.4 50.53 121.2ZM48.72 121.41C49.43 120.68 49.78 119.67 49.78 118.36C49.78 117.05 49.43 116.04 48.72 115.31C48 114.59 46.98 114.23 45.63 114.23L43.78 114.23L43.78 122.49L45.63 122.49C46.98 122.49 48 122.13 48.72 121.41Z" fill="#292F36" fill-opacity="1.000000" fill-rule="nonzero"/>
			<path id="Vector" d="M57.94 114.12L57.94 117.79L61.86 117.79L61.86 118.85L57.94 118.85L57.94 122.6L62.3 122.6L62.3 123.73L56.61 123.73L56.61 112.99L62.3 112.99L62.3 114.12L57.94 114.12Z" fill="#292F36" fill-opacity="1.000000" fill-rule="nonzero"/>
			<path id="Vector" d="M73.86 122.36C73.63 122.79 73.28 123.16 72.8 123.42C72.33 123.69 71.74 123.84 71.03 123.84C70.35 123.84 69.73 123.71 69.2 123.46C68.67 123.19 68.24 122.85 67.92 122.4C67.6 121.94 67.42 121.42 67.37 120.85L68.79 120.85C68.83 121.16 68.92 121.46 69.09 121.75C69.25 122.03 69.51 122.28 69.82 122.47C70.13 122.66 70.51 122.76 70.97 122.76C71.56 122.76 72.01 122.6 72.33 122.26C72.64 121.92 72.8 121.52 72.8 121.01C72.8 120.57 72.69 120.21 72.47 119.94C72.25 119.67 71.98 119.45 71.67 119.29C71.36 119.14 70.9 118.97 70.35 118.78C69.69 118.55 69.18 118.34 68.78 118.15C68.37 117.96 68.04 117.66 67.77 117.26C67.49 116.86 67.35 116.34 67.35 115.7C67.35 115.14 67.48 114.65 67.73 114.21C67.99 113.79 68.35 113.45 68.85 113.22C69.32 112.99 69.91 112.88 70.55 112.88C71.56 112.88 72.38 113.13 72.97 113.64C73.57 114.15 73.9 114.8 74.01 115.6L72.58 115.6C72.51 115.18 72.29 114.8 71.96 114.48C71.61 114.15 71.15 113.98 70.57 113.98C70.04 113.98 69.6 114.14 69.29 114.42C68.96 114.71 68.81 115.12 68.81 115.64C68.81 116.06 68.92 116.4 69.12 116.65C69.34 116.91 69.6 117.1 69.91 117.26C70.22 117.41 70.66 117.56 71.19 117.75C71.85 117.98 72.38 118.19 72.8 118.4C73.2 118.61 73.55 118.91 73.83 119.31C74.1 119.71 74.25 120.26 74.25 120.95C74.21 121.44 74.1 121.92 73.86 122.36Z" fill="#292F36" fill-opacity="1.000000" fill-rule="nonzero"/>
			<path id="Vector" d="M81 112.99L81 123.73L79.66 123.73L79.66 112.99L81 112.99Z" fill="#292F36" fill-opacity="1.000000" fill-rule="nonzero"/>
			<path id="Vector" d="M94.51 113.81C95.33 114.44 95.88 115.28 96.15 116.34L94.74 116.34C94.51 115.7 94.09 115.16 93.52 114.78C92.95 114.38 92.27 114.19 91.49 114.19C90.79 114.19 90.15 114.36 89.6 114.71C89.05 115.05 88.61 115.52 88.28 116.15C87.97 116.78 87.81 117.52 87.81 118.38C87.81 119.25 87.97 120.02 88.28 120.64C88.59 121.27 89.05 121.77 89.62 122.11C90.19 122.45 90.85 122.62 91.6 122.62C92.24 122.62 92.8 122.47 93.33 122.2C93.87 121.92 94.29 121.5 94.63 120.97C94.98 120.43 95.16 119.79 95.24 119.06L91.18 119.06L91.18 118.04L96.35 118.04L96.35 119.31C96.26 120.17 96.01 120.93 95.59 121.63C95.16 122.34 94.6 122.87 93.88 123.27C93.17 123.67 92.36 123.88 91.45 123.88C90.46 123.88 89.58 123.65 88.81 123.19C88.05 122.74 87.46 122.09 87.04 121.25C86.62 120.43 86.4 119.48 86.4 118.42C86.4 117.35 86.62 116.4 87.04 115.58C87.46 114.76 88.06 114.1 88.81 113.64C89.56 113.18 90.44 112.94 91.43 112.94C92.68 112.9 93.68 113.2 94.51 113.81Z" fill="#292F36" fill-opacity="1.000000" fill-rule="nonzero"/>
			<path id="Vector" d="M109.86 123.73L108.53 123.73L103.16 115.24L103.16 123.73L101.83 123.73L101.83 112.99L103.16 112.99L108.53 121.48L108.53 112.99L109.86 112.99L109.86 123.73Z" fill="#292F36" fill-opacity="1.000000" fill-rule="nonzero"/>
			<path id="Vector" d="M129.11 122.36C128.88 122.79 128.53 123.16 128.05 123.42C127.58 123.69 126.99 123.84 126.28 123.84C125.6 123.84 124.98 123.71 124.45 123.46C123.92 123.19 123.49 122.85 123.17 122.4C122.85 121.94 122.67 121.42 122.62 120.85L124.04 120.85C124.08 121.16 124.17 121.46 124.34 121.75C124.5 122.03 124.76 122.28 125.07 122.47C125.38 122.66 125.76 122.76 126.22 122.76C126.81 122.76 127.26 122.6 127.58 122.26C127.89 121.92 128.05 121.52 128.05 121.01C128.05 120.57 127.94 120.21 127.72 119.94C127.5 119.67 127.23 119.45 126.92 119.29C126.61 119.14 126.15 118.97 125.6 118.78C124.94 118.55 124.43 118.34 124.03 118.15C123.62 117.96 123.29 117.66 123.02 117.26C122.74 116.86 122.6 116.34 122.6 115.7C122.6 115.14 122.73 114.65 122.98 114.21C123.24 113.79 123.6 113.45 124.1 113.22C124.57 112.99 125.16 112.88 125.8 112.88C126.81 112.88 127.63 113.13 128.22 113.64C128.82 114.15 129.15 114.8 129.26 115.6L127.83 115.6C127.76 115.18 127.54 114.8 127.21 114.48C126.86 114.15 126.4 113.98 125.82 113.98C125.29 113.98 124.85 114.14 124.54 114.42C124.21 114.71 124.06 115.12 124.06 115.64C124.06 116.06 124.17 116.4 124.37 116.65C124.59 116.91 124.85 117.1 125.16 117.26C125.47 117.41 125.91 117.56 126.44 117.75C127.1 117.98 127.63 118.19 128.05 118.4C128.45 118.61 128.8 118.91 129.08 119.31C129.35 119.71 129.5 120.26 129.5 120.95C129.46 121.44 129.35 121.92 129.11 122.36Z" fill="#292F36" fill-opacity="1.000000" fill-rule="nonzero"/>
			<path id="Vector" d="M141.25 112.99L141.25 114.12L138.34 114.12L138.34 123.73L136.98 123.73L136.98 114.12L134.07 114.12L134.07 112.99L141.25 112.99Z" fill="#292F36" fill-opacity="1.000000" fill-rule="nonzero"/>
			<path id="Vector" d="M147.47 112.99L147.47 119.43C147.47 120.47 147.69 121.25 148.15 121.77C148.6 122.26 149.21 122.53 150.01 122.53C150.8 122.53 151.4 122.28 151.84 121.77C152.28 121.25 152.5 120.49 152.5 119.45L152.5 113.01L153.84 113.01L153.84 119.45C153.84 120.91 153.49 122.01 152.79 122.74C152.1 123.48 151.17 123.84 149.99 123.84C148.84 123.84 147.91 123.48 147.21 122.74C146.52 122 146.17 120.91 146.17 119.45L146.17 113.01L147.47 113.01L147.47 112.99Z" fill="#292F36" fill-opacity="1.000000" fill-rule="nonzero"/>
			<path id="Vector" d="M167.62 121.2C167.2 122 166.57 122.62 165.77 123.06C164.95 123.5 163.98 123.73 162.84 123.73L159.57 123.73L159.57 112.99L162.84 112.99C163.98 112.99 164.96 113.2 165.77 113.64C166.57 114.08 167.2 114.69 167.62 115.51C168.04 116.32 168.24 117.26 168.24 118.36C168.24 119.45 168.04 120.4 167.62 121.2ZM165.82 121.41C166.54 120.68 166.89 119.67 166.89 118.36C166.89 117.05 166.54 116.04 165.82 115.31C165.11 114.59 164.09 114.23 162.73 114.23L160.88 114.23L160.88 122.49L162.73 122.49C164.07 122.49 165.11 122.13 165.82 121.41Z" fill="#292F36" fill-opacity="1.000000" fill-rule="nonzero"/>
			<path id="Vector" d="M175.05 112.99L175.05 123.73L173.71 123.73L173.71 112.99L175.05 112.99Z" fill="#292F36" fill-opacity="1.000000" fill-rule="nonzero"/>
			<path id="Vector" d="M188.15 113.56C188.92 114.04 189.52 114.69 189.96 115.52C190.4 116.36 190.62 117.31 190.62 118.36C190.62 119.41 190.4 120.36 189.96 121.2C189.52 122.03 188.92 122.68 188.15 123.16C187.38 123.63 186.52 123.86 185.57 123.86C184.62 123.86 183.74 123.63 182.97 123.16C182.2 122.68 181.58 122.03 181.14 121.2C180.7 120.36 180.48 119.41 180.48 118.36C180.48 117.31 180.7 116.36 181.14 115.52C181.58 114.69 182.19 114.04 182.97 113.56C183.76 113.09 184.62 112.86 185.57 112.86C186.52 112.86 187.38 113.09 188.15 113.56ZM183.65 114.67C183.08 115.01 182.64 115.49 182.33 116.13C182.02 116.76 181.86 117.5 181.86 118.36C181.86 119.2 182.02 119.94 182.33 120.59C182.64 121.23 183.08 121.71 183.65 122.05C184.22 122.4 184.84 122.57 185.55 122.57C186.25 122.57 186.89 122.4 187.46 122.05C188.02 121.71 188.46 121.22 188.77 120.59C189.09 119.96 189.25 119.22 189.25 118.38C189.25 117.52 189.09 116.78 188.77 116.15C188.46 115.52 188.02 115.03 187.46 114.69C186.89 114.34 186.27 114.17 185.55 114.17C184.86 114.15 184.22 114.33 183.65 114.67Z" fill="#292F36" fill-opacity="1.000000" fill-rule="nonzero"/>
		</g>
		<rect id="Frame 2" rx="-0.500000" width="199.000000" height="169.000000" transform="translate(16.500000 8.500000)" stroke="#E7E8E3" stroke-opacity="1.000000" stroke-width="1.000000"/>
	</g>
</svg>
