<svg width="232.000000" height="202.000000" viewBox="0 0 232 202" fill="none" xmlns="http://www.w3.org/2000/svg" xmlns:xlink="http://www.w3.org/1999/xlink">
	<desc>
			Created with Pixso.
	</desc>
	<defs>
		<filter id="filter_34_1537_dd" x="0.000000" y="0.000000" width="232.000000" height="202.000000" filterUnits="userSpaceOnUse" color-interpolation-filters="sRGB">
			<feFlood flood-opacity="0" result="BackgroundImageFix"/>
			<feColorMatrix in="SourceAlpha" type="matrix" values="0 0 0 0 0 0 0 0 0 0 0 0 0 0 0 0 0 0 127 0" result="hardAlpha"/>
			<feOffset dx="0" dy="8"/>
			<feGaussianBlur stdDeviation="5.33333"/>
			<feComposite in2="hardAlpha" operator="out" k2="-1" k3="1"/>
			<feColorMatrix type="matrix" values="0 0 0 0 0.24706 0 0 0 0 0.34118 0 0 0 0 1 0 0 0 0.078 0"/>
			<feBlend mode="normal" in2="BackgroundImageFix" result="effect_dropShadow_1"/>
			<feColorMatrix in="SourceAlpha" type="matrix" values="0 0 0 0 0 0 0 0 0 0 0 0 0 0 0 0 0 0 127 0" result="hardAlpha"/>
			<feOffset dx="0" dy="0"/>
			<feGaussianBlur stdDeviation="1.33333"/>
			<feComposite in2="hardAlpha" operator="out" k2="-1" k3="1"/>
			<feColorMatrix type="matrix" values="0 0 0 0 0.24706 0 0 0 0 0.34118 0 0 0 0 1 0 0 0 0.039 0"/>
			<feBlend mode="normal" in2="effect_dropShadow_1" result="effect_dropShadow_2"/>
			<feBlend mode="normal" in="SourceGraphic" in2="effect_dropShadow_2" result="shape"/>
		</filter>
		<clipPath id="clip34_1538">
			<rect id="Logo" rx="-0.500000" width="149.000000" height="39.000000" transform="translate(41.500000 73.500000)" fill="white" fill-opacity="0"/>
		</clipPath>
	</defs>
	<g filter="url(#filter_34_1537_dd)">
		<rect id="Frame 2" rx="-0.500000" width="199.000000" height="169.000000" transform="translate(16.500000 8.500000)" fill="#FEFEFE" fill-opacity="1.000000"/>
		<g clip-path="url(#clip34_1538)">
			<path id="Vector" d="M72.82 112.79L48.29 112.79C44.26 112.79 41 109.46 41 105.37L41 80.42C41 76.32 44.26 73 48.29 73L72.82 73C76.85 73 80.12 76.32 80.12 80.42L80.12 105.37C80.12 109.46 76.85 112.79 72.82 112.79Z" fill="#292F36" fill-opacity="1.000000" fill-rule="nonzero"/>
			<path id="Vector" d="M67.61 93.26C68.3 94.15 68.66 95.18 68.66 96.35C68.66 98.08 68.09 99.43 66.96 100.39C65.83 101.34 64.22 101.84 62.11 101.84L52.92 101.84L52.92 81.73L61.89 81.73C63.91 81.73 65.46 82.19 66.55 83.08C67.65 83.96 68.2 85.24 68.2 86.88C68.2 88.1 67.88 89.1 67.25 89.91C66.62 90.72 65.79 91.24 64.76 91.49C65.97 91.78 66.91 92.37 67.61 93.26ZM57.69 89.96L60.83 89.96C62.49 89.96 63.32 89.24 63.32 87.79C63.32 86.35 62.47 85.63 60.77 85.63L57.69 85.63L57.69 89.96ZM63.76 95.68C63.76 94.96 63.53 94.39 63.07 93.99C62.6 93.58 61.94 93.38 61.08 93.38L57.71 93.38L57.71 97.9L61.12 97.9C62.88 97.89 63.76 97.15 63.76 95.68Z" fill="#FFFFFF" fill-opacity="1.000000" fill-rule="nonzero"/>
			<path id="Vector" d="M102.79 101.84L98.51 94.25L97.43 94.25L97.43 101.84L92.64 101.84L92.64 81.73L100.81 81.73C102.37 81.73 103.7 82.01 104.77 82.56C105.86 83.11 106.66 83.86 107.21 84.82C107.75 85.78 108.02 86.87 108.02 88.11C108.02 89.57 107.62 90.81 106.83 91.84C106.03 92.86 104.89 93.56 103.38 93.94L108.07 101.85L102.79 101.85L102.79 101.84ZM97.43 90.93L100.39 90.93C101.34 90.93 102.04 90.71 102.48 90.28C102.92 89.86 103.15 89.22 103.15 88.39C103.15 87.59 102.92 86.97 102.47 86.51C102.01 86.06 101.32 85.82 100.39 85.82L97.43 85.82L97.43 90.93Z" fill="#292F36" fill-opacity="1.000000" fill-rule="nonzero"/>
			<path id="Vector" d="M129.65 98.18L122.25 98.18L121.02 101.85L115.99 101.85L123.23 81.89L128.73 81.89L135.98 101.85L130.89 101.85L129.65 98.18ZM128.42 94.47L125.97 87.08L123.47 94.47L128.42 94.47Z" fill="#292F36" fill-opacity="1.000000" fill-rule="nonzero"/>
			<path id="Vector" d="M162.37 101.84L157.58 101.84L149.59 89.5L149.59 101.84L144.8 101.84L144.8 81.73L149.59 81.73L157.58 94.19L157.58 81.73L162.37 81.73L162.37 101.84Z" fill="#292F36" fill-opacity="1.000000" fill-rule="nonzero"/>
			<path id="Vector" d="M189.19 97C188.36 98.52 187.16 99.71 185.61 100.57C184.05 101.42 182.22 101.85 180.12 101.85L172.65 101.85L172.65 81.75L180.12 81.75C182.24 81.75 184.08 82.16 185.62 83C187.17 83.83 188.36 85 189.19 86.52C190.02 88.04 190.43 89.78 190.43 91.76C190.43 93.72 190.01 95.46 189.19 97ZM184.04 95.98C185.07 94.98 185.59 93.56 185.59 91.75C185.59 89.92 185.07 88.52 184.04 87.51C183.01 86.51 181.56 86 179.69 86L177.43 86L177.43 97.49L179.69 97.49C181.56 97.49 183.01 97 184.04 95.98Z" fill="#292F36" fill-opacity="1.000000" fill-rule="nonzero"/>
		</g>
		<rect id="Frame 2" rx="-0.500000" width="199.000000" height="169.000000" transform="translate(16.500000 8.500000)" stroke="#E7E8E3" stroke-opacity="1.000000" stroke-width="1.000000"/>
	</g>
</svg>
