<svg width="232.000000" height="202.000000" viewBox="0 0 232 202" fill="none" xmlns="http://www.w3.org/2000/svg" xmlns:xlink="http://www.w3.org/1999/xlink">
	<desc>
			Created with Pixso.
	</desc>
	<defs>
		<filter id="filter_34_1581_dd" x="0.000000" y="0.000000" width="232.000000" height="202.000000" filterUnits="userSpaceOnUse" color-interpolation-filters="sRGB">
			<feFlood flood-opacity="0" result="BackgroundImageFix"/>
			<feColorMatrix in="SourceAlpha" type="matrix" values="0 0 0 0 0 0 0 0 0 0 0 0 0 0 0 0 0 0 127 0" result="hardAlpha"/>
			<feOffset dx="0" dy="8"/>
			<feGaussianBlur stdDeviation="5.33333"/>
			<feComposite in2="hardAlpha" operator="out" k2="-1" k3="1"/>
			<feColorMatrix type="matrix" values="0 0 0 0 0.24706 0 0 0 0 0.34118 0 0 0 0 1 0 0 0 0.078 0"/>
			<feBlend mode="normal" in2="BackgroundImageFix" result="effect_dropShadow_1"/>
			<feColorMatrix in="SourceAlpha" type="matrix" values="0 0 0 0 0 0 0 0 0 0 0 0 0 0 0 0 0 0 127 0" result="hardAlpha"/>
			<feOffset dx="0" dy="0"/>
			<feGaussianBlur stdDeviation="1.33333"/>
			<feComposite in2="hardAlpha" operator="out" k2="-1" k3="1"/>
			<feColorMatrix type="matrix" values="0 0 0 0 0.24706 0 0 0 0 0.34118 0 0 0 0 1 0 0 0 0.039 0"/>
			<feBlend mode="normal" in2="effect_dropShadow_1" result="effect_dropShadow_2"/>
			<feBlend mode="normal" in="SourceGraphic" in2="effect_dropShadow_2" result="shape"/>
		</filter>
		<clipPath id="clip34_1582">
			<rect id="Logo" rx="-0.500000" width="149.000000" height="49.000000" transform="translate(41.500000 68.500000)" fill="white" fill-opacity="0"/>
		</clipPath>
	</defs>
	<g filter="url(#filter_34_1581_dd)">
		<rect id="Frame 2" rx="-0.500000" width="199.000000" height="169.000000" transform="translate(16.500000 8.500000)" fill="#FEFEFE" fill-opacity="1.000000"/>
		<g clip-path="url(#clip34_1582)">
			<path id="Vector" d="M54.22 68L54.22 68.21L53.34 68.43L53.34 77.99L54.22 78.2L54.22 78.42L50.06 78.42L50.06 78.2L50.94 77.99L50.94 69.84L47.5 78.57L47.06 78.57L42.6 69.84L42.6 77.75L43.77 78.2L43.77 78.42L41 78.42L41 78.2L42.16 77.75L42.16 68.43L41.29 68.21L41.29 68L43.1 68C43.38 68 43.62 68.03 43.82 68.09C44.01 68.16 44.21 68.24 44.35 68.36C44.52 68.48 44.64 68.61 44.76 68.76C44.87 68.91 44.97 69.09 45.07 69.27L48.25 75.5L50.68 69.27C50.76 69.06 50.84 68.87 50.95 68.73C51.05 68.58 51.18 68.44 51.33 68.33C51.47 68.21 51.65 68.13 51.86 68.08C52.07 68.03 52.33 68 52.66 68L54.22 68Z" fill="#292F36" fill-opacity="1.000000" fill-rule="nonzero"/>
			<path id="Vector" d="M59.41 70.77C60.01 70.77 60.56 70.85 61.03 71.03C61.5 71.22 61.9 71.48 62.24 71.81C62.59 72.16 62.83 72.58 63.01 73.06C63.19 73.54 63.27 74.1 63.27 74.72C63.27 75.33 63.19 75.9 63.01 76.38C62.83 76.86 62.57 77.27 62.24 77.62C61.9 77.97 61.5 78.22 61.03 78.4C60.56 78.58 60.01 78.67 59.41 78.67C58.81 78.67 58.25 78.58 57.78 78.4C57.31 78.22 56.91 77.95 56.57 77.62C56.23 77.27 55.98 76.86 55.8 76.38C55.63 75.9 55.55 75.33 55.55 74.72C55.55 74.1 55.63 73.54 55.8 73.06C55.98 72.58 56.24 72.16 56.57 71.81C56.91 71.46 57.31 71.22 57.78 71.03C58.25 70.85 58.79 70.77 59.41 70.77ZM59.41 78.39C59.57 78.39 59.73 78.34 59.91 78.22C60.07 78.1 60.22 77.92 60.35 77.64C60.48 77.36 60.59 76.99 60.67 76.53C60.75 76.05 60.8 75.45 60.8 74.73C60.8 74 60.75 73.41 60.67 72.94C60.59 72.48 60.48 72.09 60.35 71.83C60.22 71.56 60.07 71.36 59.91 71.25C59.75 71.13 59.58 71.08 59.41 71.08C59.24 71.08 59.08 71.13 58.9 71.25C58.74 71.36 58.59 71.55 58.47 71.83C58.34 72.11 58.22 72.48 58.14 72.94C58.06 73.42 58.01 74.02 58.01 74.73C58.01 75.46 58.06 76.06 58.14 76.53C58.22 76.99 58.34 77.37 58.47 77.64C58.59 77.9 58.74 78.1 58.9 78.22C59.07 78.32 59.23 78.39 59.41 78.39Z" fill="#292F36" fill-opacity="1.000000" fill-rule="nonzero"/>
			<path id="Vector" d="M70.36 68C71.23 68 71.67 68.44 71.67 69.34L71.67 78L72.55 78.22L72.55 78.44L71.23 78.44C70.87 78.44 70.6 78.39 70.39 78.27C70.18 78.15 70 78.02 69.88 77.89C69.74 77.72 69.63 77.52 69.56 77.32C69.43 77.59 69.27 77.8 69.07 78C68.91 78.17 68.68 78.32 68.41 78.47C68.13 78.62 67.81 78.68 67.44 78.68C67.01 78.68 66.62 78.6 66.27 78.44C65.89 78.27 65.59 78.02 65.33 77.69C65.07 77.36 64.84 76.94 64.69 76.46C64.53 75.96 64.47 75.4 64.47 74.73C64.47 74.07 64.55 73.51 64.69 73.01C64.86 72.51 65.07 72.11 65.36 71.78C65.63 71.45 65.98 71.2 66.36 71.03C66.75 70.87 67.19 70.78 67.68 70.78C67.94 70.78 68.17 70.82 68.38 70.87C68.59 70.93 68.77 71 68.91 71.08C69.09 71.17 69.24 71.26 69.37 71.38L69.37 68.48L68.49 68.26L68.49 68.04L70.36 68.04L70.36 68ZM69.33 71.81C69.22 71.7 69.12 71.6 68.99 71.51C68.88 71.43 68.77 71.36 68.64 71.3C68.51 71.23 68.38 71.22 68.23 71.22C68.05 71.22 67.87 71.26 67.71 71.36C67.55 71.46 67.42 71.63 67.29 71.88C67.18 72.13 67.08 72.49 67.01 72.94C66.95 73.41 66.92 73.99 66.92 74.72C66.92 75.43 66.95 76 67.01 76.44C67.08 76.89 67.16 77.24 67.27 77.49C67.37 77.74 67.48 77.92 67.63 78C67.76 78.09 67.89 78.14 68.02 78.14C68.25 78.14 68.44 78.07 68.6 77.95C68.77 77.84 68.9 77.69 69.01 77.54C69.14 77.36 69.25 77.16 69.35 76.94L69.35 71.81L69.33 71.81Z" fill="#292F36" fill-opacity="1.000000" fill-rule="nonzero"/>
			<path id="Vector" d="M77.43 78.68C76.18 78.68 75.21 78.34 74.52 77.64C73.83 76.94 73.49 75.96 73.49 74.73C73.49 74.12 73.57 73.56 73.75 73.07C73.92 72.59 74.17 72.18 74.48 71.83C74.78 71.48 75.16 71.23 75.61 71.05C76.05 70.87 76.54 70.78 77.07 70.78C77.62 70.78 78.11 70.87 78.53 71.02C78.97 71.18 79.33 71.4 79.63 71.66C79.94 71.93 80.17 72.24 80.33 72.61C80.49 72.97 80.57 73.36 80.57 73.77C80.57 73.9 80.57 74.04 80.56 74.14C80.54 74.24 80.53 74.34 80.51 74.42C80.48 74.52 80.46 74.6 80.43 74.67C80.01 74.75 79.55 74.83 79.07 74.88C78.66 74.95 78.19 75 77.65 75.03C77.12 75.07 76.57 75.1 75.98 75.1C75.98 75.71 76.03 76.23 76.11 76.64C76.19 77.06 76.32 77.39 76.47 77.62C76.63 77.87 76.81 78.04 77.02 78.14C77.23 78.24 77.48 78.29 77.72 78.29C78.01 78.29 78.29 78.24 78.55 78.12C78.81 78 79.03 77.87 79.21 77.69C79.41 77.51 79.55 77.29 79.67 77.06C79.78 76.83 79.83 76.59 79.83 76.34L80.18 76.34C80.18 76.64 80.12 76.93 79.99 77.21C79.86 77.49 79.67 77.74 79.42 77.95C79.18 78.17 78.89 78.34 78.55 78.47C78.22 78.62 77.85 78.68 77.43 78.68ZM75.97 74.72C76.29 74.72 76.58 74.72 76.84 74.7C77.1 74.68 77.31 74.67 77.49 74.65C77.7 74.63 77.87 74.6 78.01 74.58C78.03 74.49 78.06 74.37 78.08 74.25C78.09 74.14 78.11 74.02 78.12 73.89C78.14 73.75 78.14 73.61 78.14 73.46C78.14 73.01 78.11 72.63 78.04 72.33C77.98 72.03 77.9 71.78 77.78 71.58C77.69 71.4 77.57 71.25 77.43 71.18C77.28 71.12 77.17 71.07 77.04 71.07C76.91 71.07 76.78 71.12 76.65 71.22C76.52 71.31 76.41 71.5 76.29 71.75C76.19 72.01 76.1 72.38 76.03 72.86C75.97 73.34 75.97 73.95 75.97 74.72Z" fill="#292F36" fill-opacity="1.000000" fill-rule="nonzero"/>
			<path id="Vector" d="M86.71 71.28C86.41 71.28 86.15 71.35 85.93 71.46C85.7 71.58 85.51 71.73 85.34 71.88C85.16 72.06 85.02 72.26 84.87 72.48L84.87 78L85.75 78.22L85.75 78.44L81.66 78.44L81.66 78.22L82.54 78L82.54 71.43L81.66 71.22L81.66 71L82.98 71C83.32 71 83.59 71.07 83.82 71.18C84.03 71.3 84.21 71.43 84.34 71.56C84.48 71.73 84.6 71.91 84.66 72.11C84.81 71.9 84.99 71.7 85.2 71.51C85.38 71.36 85.6 71.23 85.88 71.1C86.15 70.97 86.46 70.92 86.84 70.92C87.35 70.92 87.74 71.05 88 71.28C88.26 71.53 88.38 71.88 88.38 72.33C88.38 72.66 88.28 72.94 88.08 73.14C87.89 73.34 87.61 73.44 87.29 73.44C87.21 73.44 87.14 73.44 87.06 73.44C86.98 73.44 86.93 73.42 86.88 73.42C86.82 73.41 86.75 73.41 86.71 73.37L86.71 71.28Z" fill="#292F36" fill-opacity="1.000000" fill-rule="nonzero"/>
			<path id="Vector" d="M94.65 73.22C94.65 72.89 94.62 72.59 94.56 72.34C94.49 72.09 94.41 71.9 94.3 71.75C94.2 71.58 94.09 71.46 93.94 71.4C93.81 71.33 93.68 71.28 93.55 71.28C93.32 71.28 93.13 71.35 92.97 71.46C92.81 71.58 92.66 71.73 92.56 71.88C92.43 72.06 92.33 72.26 92.24 72.48L92.24 78L93.11 78.22L93.11 78.44L89.03 78.44L89.03 78.22L89.9 78L89.9 71.43L89.03 71.22L89.03 71L90.34 71C90.68 71 90.96 71.07 91.18 71.18C91.39 71.3 91.57 71.43 91.7 71.56C91.85 71.73 91.96 71.91 92.03 72.11C92.16 71.86 92.32 71.63 92.51 71.43C92.68 71.26 92.9 71.12 93.16 70.97C93.42 70.82 93.76 70.75 94.15 70.75C94.57 70.75 94.96 70.82 95.3 70.97C95.66 71.1 95.95 71.3 96.2 71.51C96.44 71.75 96.63 72 96.78 72.29C96.93 72.59 96.99 72.89 96.99 73.21L96.99 77.99L97.87 78.2L97.87 78.42L95.97 78.42C95.09 78.42 94.65 77.97 94.65 77.07L94.65 73.22Z" fill="#292F36" fill-opacity="1.000000" fill-rule="nonzero"/>
			<path id="Vector" d="M42.54 88.93L42.54 88.31L53.81 88.31L53.81 88.93L51.44 89.54L51.44 102.07L59.94 102.07L59.94 89.54L57.57 88.93L57.57 88.31L68.85 88.31L68.85 88.93L66.48 89.54L66.48 115.43L68.85 116.05L68.85 116.66L57.57 116.66L57.57 116.03L59.94 115.42L59.94 103.08L51.44 103.08L51.44 115.42L53.81 116.03L53.81 116.65L42.54 116.65L42.54 116.03L44.9 115.42L44.9 89.52L42.54 88.93Z" fill="#292F36" fill-opacity="1.000000" fill-rule="nonzero"/>
			<path id="Vector" d="M82.86 95.8C84.5 95.8 85.96 96.05 87.26 96.53C88.56 97.01 89.64 97.72 90.55 98.65C91.46 99.58 92.16 100.71 92.63 102.04C93.1 103.37 93.34 104.86 93.34 106.54C93.34 108.21 93.1 109.71 92.63 111.04C92.16 112.36 91.46 113.47 90.55 114.4C89.64 115.33 88.54 116.05 87.26 116.53C85.96 117.01 84.5 117.26 82.86 117.26C81.22 117.26 79.76 117.01 78.47 116.53C77.17 116.05 76.08 115.33 75.17 114.4C74.26 113.47 73.57 112.35 73.1 111.04C72.63 109.71 72.38 108.21 72.38 106.54C72.38 104.86 72.63 103.37 73.1 102.04C73.57 100.71 74.26 99.6 75.17 98.65C76.08 97.71 77.18 97.01 78.47 96.53C79.76 96.05 81.22 95.8 82.86 95.8ZM82.86 116.43C83.32 116.43 83.75 116.28 84.21 115.98C84.66 115.68 85.05 115.17 85.41 114.42C85.77 113.67 86.06 112.66 86.28 111.38C86.51 110.11 86.62 108.48 86.62 106.5C86.62 104.53 86.51 102.9 86.28 101.62C86.06 100.35 85.77 99.33 85.41 98.59C85.05 97.84 84.65 97.32 84.21 97.03C83.77 96.73 83.32 96.58 82.86 96.58C82.41 96.58 81.97 96.73 81.52 97.03C81.06 97.32 80.67 97.84 80.31 98.59C79.96 99.33 79.67 100.35 79.44 101.62C79.21 102.9 79.1 104.53 79.1 106.5C79.1 108.48 79.21 110.11 79.44 111.38C79.67 112.66 79.96 113.67 80.31 114.42C80.67 115.17 81.08 115.68 81.52 115.98C81.97 116.28 82.41 116.43 82.86 116.43Z" fill="#292F36" fill-opacity="1.000000" fill-rule="nonzero"/>
			<path id="Vector" d="M122.98 102.47C122.98 101.51 122.9 100.68 122.73 100.03C122.57 99.38 122.38 98.83 122.12 98.42C121.86 98 121.58 97.71 121.29 97.51C120.98 97.32 120.69 97.22 120.4 97.22C119.89 97.22 119.46 97.39 119.07 97.72C118.68 98.05 118.35 98.44 118.06 98.83C117.75 99.32 117.46 99.86 117.23 100.45L117.23 115.42L119.62 116.03L119.62 116.65L108.56 116.65L108.56 116.03L110.92 115.42L110.92 102.47C110.92 101.51 110.84 100.68 110.68 100.03C110.52 99.38 110.32 98.83 110.06 98.42C109.81 98 109.53 97.71 109.24 97.51C108.93 97.32 108.64 97.22 108.35 97.22C107.84 97.22 107.4 97.39 107.02 97.72C106.63 98.05 106.3 98.44 106.01 98.83C105.69 99.32 105.41 99.86 105.18 100.45L105.18 115.42L107.55 116.03L107.55 116.65L96.49 116.65L96.49 116.03L98.86 115.42L98.86 97.62L96.49 97.01L96.49 96.39L100.04 96.39C100.96 96.39 101.73 96.56 102.31 96.88C102.91 97.19 103.37 97.56 103.72 97.92C104.11 98.39 104.4 98.88 104.6 99.42C104.94 98.74 105.36 98.14 105.86 97.59C106.32 97.12 106.87 96.71 107.52 96.33C108.18 95.95 108.98 95.76 109.94 95.76C111.51 95.76 112.89 96.13 114.02 96.84C115.17 97.56 116.05 98.49 116.65 99.61C116.99 98.92 117.41 98.29 117.92 97.71C118.37 97.22 118.92 96.78 119.57 96.38C120.24 95.98 121.03 95.76 121.99 95.76C123.07 95.76 124.05 95.95 124.96 96.3C125.85 96.64 126.63 97.12 127.28 97.74C127.92 98.35 128.43 99.05 128.78 99.86C129.14 100.68 129.32 101.54 129.32 102.45L129.32 115.4L131.69 116.01L131.69 116.63L126.55 116.63C124.18 116.63 122.99 115.42 122.99 112.99L122.99 102.47L122.98 102.47Z" fill="#292F36" fill-opacity="1.000000" fill-rule="nonzero"/>
			<path id="Vector" d="M144.73 117.24C141.36 117.24 138.73 116.3 136.86 114.39C135 112.48 134.06 109.87 134.06 106.52C134.06 104.84 134.3 103.35 134.77 102.02C135.24 100.69 135.9 99.58 136.75 98.64C137.59 97.71 138.61 96.99 139.81 96.51C141.01 96.03 142.33 95.78 143.74 95.78C145.22 95.78 146.55 96 147.71 96.43C148.88 96.86 149.89 97.44 150.7 98.17C151.51 98.9 152.14 99.76 152.58 100.74C153.02 101.72 153.23 102.77 153.23 103.88C153.23 104.26 153.21 104.59 153.16 104.88C153.12 105.16 153.08 105.41 153.02 105.62C152.94 105.89 152.87 106.12 152.82 106.3C151.66 106.55 150.44 106.75 149.14 106.92C148.04 107.08 146.76 107.22 145.31 107.35C143.87 107.47 142.34 107.53 140.77 107.53C140.77 109.21 140.88 110.6 141.13 111.72C141.37 112.83 141.7 113.72 142.12 114.39C142.54 115.05 143.04 115.52 143.63 115.8C144.21 116.08 144.84 116.23 145.52 116.23C146.32 116.23 147.07 116.08 147.76 115.78C148.46 115.48 149.06 115.08 149.58 114.59C150.1 114.09 150.5 113.52 150.81 112.89C151.12 112.26 151.27 111.62 151.27 110.97L152.25 110.97C152.25 111.78 152.08 112.56 151.72 113.31C151.36 114.07 150.86 114.74 150.2 115.32C149.53 115.9 148.75 116.36 147.83 116.71C146.89 117.06 145.85 117.24 144.73 117.24ZM140.77 106.52C141.66 106.52 142.46 106.5 143.14 106.45C143.82 106.4 144.4 106.37 144.88 106.32C145.43 106.27 145.9 106.2 146.3 106.12C146.35 105.86 146.42 105.56 146.5 105.23C146.55 104.93 146.59 104.59 146.63 104.23C146.66 103.86 146.69 103.48 146.69 103.08C146.69 101.87 146.59 100.86 146.42 100.03C146.24 99.2 145.99 98.54 145.72 98.02C145.44 97.51 145.12 97.14 144.78 96.93C144.42 96.71 144.06 96.59 143.72 96.59C143.38 96.59 143.03 96.73 142.67 96.98C142.31 97.24 142 97.72 141.73 98.44C141.45 99.15 141.23 100.16 141.03 101.46C140.87 102.75 140.77 104.45 140.77 106.52Z" fill="#292F36" fill-opacity="1.000000" fill-rule="nonzero"/>
			<path id="Vector" d="M172.65 116.23L172.65 99.81L158.47 88.33L158.47 116.23L172.65 116.23Z" fill="#292F36" fill-opacity="1.000000" fill-rule="nonzero"/>
			<path id="Vector" d="M190.18 116.23L190.18 99.81L176.23 88.33L176.23 116.23L190.18 116.23Z" fill="#292F36" fill-opacity="1.000000" fill-rule="nonzero"/>
		</g>
		<rect id="Frame 2" rx="-0.500000" width="199.000000" height="169.000000" transform="translate(16.500000 8.500000)" stroke="#E7E8E3" stroke-opacity="1.000000" stroke-width="1.000000"/>
	</g>
</svg>
