<svg width="95.000000" height="22.000000" viewBox="0 0 95 22" fill="none" xmlns="http://www.w3.org/2000/svg" xmlns:xlink="http://www.w3.org/1999/xlink">
	<desc>
			Created with Pixso.
	</desc>
	<defs>
		<clipPath id="clip34_1489">
			<rect id="Frame" rx="-0.500000" width="94.000000" height="21.000000" transform="translate(0.500000 0.500000)" fill="white" fill-opacity="0"/>
		</clipPath>
		<radialGradient gradientTransform="translate(0.478567 16.6256) rotate(0) scale(13.8667 14.3704)" cx="0.000000" cy="0.000000" r="1.000000" id="paint_radial_34_1507_0" gradientUnits="userSpaceOnUse">
			<stop stop-color="#D6005E"/>
			<stop offset="1.000000" stop-color="#E3448A"/>
		</radialGradient>
	</defs>
	<g clip-path="url(#clip34_1489)">
		<path id="Vector" d="M21.73 2.54L26.13 2.54C28.36 2.54 29.86 4.44 29.86 6.29C29.86 8.19 28.36 10.1 26.13 10.1L23.4 10.1L23.4 13.16L21.73 13.16L21.73 2.54ZM25.96 8.48C27.41 8.48 28.19 7.33 28.19 6.29C28.19 5.19 27.41 4.09 25.96 4.09L23.4 4.09L23.4 8.48L25.96 8.48Z" fill="#323E48" fill-opacity="1.000000" fill-rule="nonzero"/>
		<path id="Vector" d="M30.36 9.29C30.36 7.04 31.87 5.25 34.21 5.25C36.6 5.25 37.77 7.33 37.77 9.41L37.77 9.81L32.03 9.81C32.26 11.14 33.37 11.89 34.87 11.89C35.82 11.89 36.6 11.6 37.27 11.2L37.27 12.64C36.66 13.1 35.65 13.39 34.54 13.39C32.2 13.39 30.36 11.77 30.36 9.29ZM36.1 8.48C36.1 7.67 35.49 6.64 34.15 6.64C32.87 6.64 32.14 7.56 32.09 8.48L36.1 8.48Z" fill="#323E48" fill-opacity="1.000000" fill-rule="nonzero"/>
		<path id="Vector" d="M39.22 5.42L40.89 5.42L40.89 8.43L44.68 8.43L44.68 5.42L46.35 5.42L46.35 13.16L44.68 13.16L44.68 9.93L40.89 9.93L40.89 13.16L39.22 13.16L39.22 5.42Z" fill="#323E48" fill-opacity="1.000000" fill-rule="nonzero"/>
		<path id="Vector" d="M47.75 9.29C47.75 7.04 49.25 5.25 51.59 5.25C53.99 5.25 55.16 7.33 55.16 9.41L55.16 9.81L49.42 9.81C49.64 11.14 50.75 11.89 52.26 11.89C53.21 11.89 53.99 11.6 54.65 11.2L54.65 12.64C54.04 13.1 53.04 13.39 51.92 13.39C49.58 13.39 47.75 11.77 47.75 9.29ZM53.48 8.48C53.48 7.67 52.87 6.64 51.53 6.64C50.25 6.64 49.53 7.56 49.47 8.48L53.48 8.48Z" fill="#323E48" fill-opacity="1.000000" fill-rule="nonzero"/>
		<path id="Vector" d="M56.1 9.29C56.1 6.87 57.94 5.25 60.17 5.25C61.06 5.25 61.73 5.42 62.4 5.77L62.4 7.21C61.73 6.87 61.12 6.69 60.39 6.69C58.95 6.69 57.72 7.73 57.72 9.29C57.72 10.85 58.89 11.89 60.39 11.89C61.23 11.89 61.9 11.72 62.51 11.31L62.51 12.76C61.79 13.16 61.06 13.39 60.12 13.39C57.94 13.39 56.1 11.72 56.1 9.29Z" fill="#323E48" fill-opacity="1.000000" fill-rule="nonzero"/>
		<path id="Vector" d="M63.35 9.29C63.35 6.87 65.19 5.25 67.41 5.25C68.31 5.25 68.97 5.42 69.64 5.77L69.64 7.21C68.97 6.87 68.36 6.69 67.64 6.69C66.19 6.69 64.96 7.73 64.96 9.29C64.96 10.85 66.13 11.89 67.64 11.89C68.47 11.89 69.14 11.72 69.75 11.31L69.75 12.76C69.03 13.16 68.31 13.39 67.36 13.39C65.24 13.39 63.35 11.72 63.35 9.29Z" fill="#323E48" fill-opacity="1.000000" fill-rule="nonzero"/>
		<path id="Vector" d="M78.89 11.72L78.89 12.99C78.67 13.16 78.28 13.22 77.95 13.22C77.22 13.22 76.61 12.87 76.39 12.12C75.83 12.76 74.94 13.33 73.65 13.33C72.09 13.33 70.87 12.41 70.87 10.73C70.87 9 72.09 8.48 73.71 8.48C74.83 8.48 76.27 8.48 76.27 8.48L76.27 8.37C76.27 7.04 75.22 6.69 74.1 6.69C73.21 6.69 72.32 7.04 71.76 7.39L71.76 5.88C72.32 5.6 73.15 5.25 74.49 5.25C76.5 5.25 77.95 6.23 77.95 8.19L77.95 11.08C77.95 11.54 78.22 11.83 78.56 11.83C78.56 11.83 78.73 11.83 78.89 11.72ZM76.16 9.81C76.16 9.81 74.99 9.81 74.21 9.81C73.15 9.81 72.43 10.04 72.43 10.79C72.43 11.66 73.15 11.95 74.05 11.95C74.94 11.95 75.77 11.49 76.16 11.02L76.16 9.81Z" fill="#323E48" fill-opacity="1.000000" fill-rule="nonzero"/>
		<path id="Vector" d="M80.06 5.42L81.73 5.42L81.73 8.43L85.52 8.43L85.52 5.42L87.19 5.42L87.19 13.16L85.52 13.16L85.52 9.93L81.73 9.93L81.73 13.16L80.06 13.16L80.06 5.42Z" fill="#323E48" fill-opacity="1.000000" fill-rule="nonzero"/>
		<path id="Vector" d="M88.59 9.29C88.59 6.87 90.43 5.25 92.65 5.25C93.55 5.25 94.22 5.42 94.88 5.77L94.88 7.21C94.22 6.87 93.6 6.69 92.88 6.69C91.43 6.69 90.2 7.73 90.2 9.29C90.2 10.85 91.37 11.89 92.88 11.89C93.71 11.89 94.38 11.72 95 11.31L95 12.76C94.27 13.16 93.55 13.39 92.6 13.39C90.43 13.39 88.59 11.72 88.59 9.29Z" fill="#323E48" fill-opacity="1.000000" fill-rule="nonzero"/>
		<path id="Vector" d="M21.73 17.32L22.51 17.32L22.51 18.82L23.84 17.32L24.79 17.32L23.23 19.05L25.07 21.13L24.12 21.13L22.56 19.4L22.56 21.13L21.73 21.13L21.73 17.32Z" fill="#323E48" fill-opacity="1.000000" fill-rule="nonzero"/>
		<path id="Vector" d="M26.07 17.32L27.69 17.32C28.47 17.32 28.97 17.78 28.97 18.47C28.97 19.17 28.47 19.63 27.69 19.63L26.85 19.63L26.85 21.13L26.07 21.13L26.07 17.32ZM27.63 18.93C27.97 18.93 28.19 18.76 28.19 18.47C28.19 18.18 27.97 18.01 27.63 18.01L26.85 18.01L26.85 18.93L27.63 18.93Z" fill="#323E48" fill-opacity="1.000000" fill-rule="nonzero"/>
		<path id="Vector" d="M30.08 17.32L32.76 17.32L32.76 18.01L30.81 18.01L30.81 18.76L32.37 18.76L32.37 19.45L30.81 19.45L30.81 20.44L32.87 20.44L32.87 21.13L30.08 21.13L30.08 17.32Z" fill="#323E48" fill-opacity="1.000000" fill-rule="nonzero"/>
		<path id="Vector" d="M33.87 20.44L34.21 20.44C34.54 19.92 34.71 19.22 34.71 17.95L34.71 17.38L37.27 17.38L37.27 20.49L37.77 20.49L37.77 22L37.05 22L37.05 21.24L34.54 21.24L34.54 22L33.82 22L33.82 20.44L33.87 20.44ZM36.55 20.44L36.55 18.01L35.49 18.01C35.49 18.82 35.43 19.63 35.1 20.44L36.55 20.44Z" fill="#323E48" fill-opacity="1.000000" fill-rule="nonzero"/>
		<path id="Vector" d="M38.94 17.32L39.72 17.32L39.72 19.8L41.51 17.32L42.17 17.32L42.17 21.13L41.45 21.13L41.45 18.65L39.56 21.13L38.94 21.13L38.94 17.32Z" fill="#323E48" fill-opacity="1.000000" fill-rule="nonzero"/>
		<path id="Vector" d="M46.3 17.32L46.3 18.01L45.13 18.01L45.13 21.13L44.35 21.13L44.35 18.01L43.18 18.01L43.18 17.32L46.3 17.32Z" fill="#323E48" fill-opacity="1.000000" fill-rule="nonzero"/>
		<path id="Vector" d="M2.39 17.32L0 17.32L0 6.64C0 3 2.89 0 6.4 0L14.31 0L14.31 6.58C14.31 10.27 11.42 13.22 7.91 13.22L3.9 13.22L4.79 10.74L7.85 10.74C10.08 10.74 11.86 8.89 11.86 6.58L11.86 2.48L6.35 2.48C4.12 2.48 2.34 4.33 2.34 6.64L2.34 17.32L2.39 17.32Z" fill="url(#paint_radial_34_1507_0)" fill-opacity="1.000000" fill-rule="nonzero"/>
	</g>
</svg>
