<svg width="141.000000" height="22.000000" viewBox="0 0 141 22" fill="none" xmlns="http://www.w3.org/2000/svg" xmlns:xlink="http://www.w3.org/1999/xlink">
	<desc>
			Created with Pixso.
	</desc>
	<defs>
		<clipPath id="clip34_1373">
			<rect id="Frame 2" rx="-0.500000" width="140.000000" height="21.000000" transform="translate(0.500000 0.500000)" fill="white" fill-opacity="0"/>
		</clipPath>
		<linearGradient x1="0.918651" y1="11.307364" x2="3.918692" y2="3.476506" id="paint_linear_34_1374_0" gradientUnits="userSpaceOnUse">
			<stop offset="0.070000" stop-color="#A2CC39"/>
			<stop offset="0.260000" stop-color="#81C45E"/>
			<stop offset="0.920000" stop-color="#0FA7DF"/>
		</linearGradient>
	</defs>
	<g clip-path="url(#clip34_1373)">
		<path id="Vector" d="M19.12 4.27C19.62 4.94 20.05 5.68 20.39 6.46L10.67 13.84L6.61 11.22L6.61 8.06L10.67 10.68L19.12 4.27Z" fill="#21A038" fill-opacity="1.000000" fill-rule="nonzero"/>
		<linearGradient x1="15.880287" y1="21.162167" x2="3.794533" y2="0.011022" id="paint_linear_34_13741_0" gradientUnits="userSpaceOnUse">
			<stop offset="0.140000" stop-color="#F1E813"/>
			<stop offset="0.300000" stop-color="#E6E418"/>
			<stop offset="0.580000" stop-color="#C9DA26"/>
			<stop offset="0.890000" stop-color="#A2CC39"/>
		</linearGradient>
		<path id="Vector" d="M2.46 11C2.46 10.85 2.46 10.71 2.47 10.57L0.01 10.45C0 10.63 0 10.81 0 11C-0.01 12.44 0.27 13.87 0.81 15.21C1.34 16.54 2.13 17.75 3.12 18.77L4.87 16.97C4.1 16.19 3.5 15.26 3.09 14.23C2.67 13.21 2.46 12.11 2.46 11Z" fill="url(#paint_linear_34_13741_0)" fill-opacity="1.000000" fill-rule="nonzero"/>
		<linearGradient x1="1.859956" y1="16.080870" x2="20.253166" y2="4.416388" id="paint_linear_34_13742_1" gradientUnits="userSpaceOnUse">
			<stop offset="0.060000" stop-color="#0FA7DF"/>
			<stop offset="0.540000" stop-color="#0098F8"/>
			<stop offset="0.920000" stop-color="#0290EA"/>
		</linearGradient>
		<path id="Vector" d="M10.67 2.54C10.81 2.54 10.94 2.54 11.08 2.55L11.2 0.01C11.03 0 10.85 0 10.67 0C9.27 -0.01 7.88 0.28 6.58 0.83C5.29 1.38 4.11 2.19 3.12 3.22L4.87 5.02C5.63 4.23 6.53 3.61 7.53 3.18C8.52 2.75 9.59 2.54 10.67 2.54Z" fill="url(#paint_linear_34_13742_1)" fill-opacity="1.000000" fill-rule="nonzero"/>
		<linearGradient x1="-0.429660" y1="15.282141" x2="20.335051" y2="7.479006" id="paint_linear_34_13743_2" gradientUnits="userSpaceOnUse">
			<stop offset="0.120000" stop-color="#A2CC39"/>
			<stop offset="0.280000" stop-color="#86C239"/>
			<stop offset="0.870000" stop-color="#219F38"/>
		</linearGradient>
		<path id="Vector" d="M10.67 19.45C10.53 19.45 10.39 19.45 10.26 19.44L10.14 21.98C10.31 21.99 10.49 22 10.67 22C12.07 22 13.46 21.71 14.75 21.16C16.05 20.61 17.22 19.8 18.21 18.77L16.47 16.97C15.71 17.76 14.8 18.38 13.81 18.81C12.81 19.24 11.75 19.45 10.67 19.45Z" fill="url(#paint_linear_34_13743_2)" fill-opacity="1.000000" fill-rule="nonzero"/>
		<linearGradient x1="-1.632947" y1="4.660284" x2="19.774120" y2="16.064123" id="paint_linear_34_13744_3" gradientUnits="userSpaceOnUse">
			<stop offset="0.060000" stop-color="#0290EA"/>
			<stop offset="0.790000" stop-color="#0C89CA"/>
		</linearGradient>
		<path id="Vector" d="M15.3 4.01L17.37 2.44C15.47 0.85 13.11 -0.01 10.67 0L10.67 2.54C12.32 2.53 13.93 3.05 15.3 4.01Z" fill="url(#paint_linear_34_13744_3)" fill-opacity="1.000000" fill-rule="nonzero"/>
		<path id="Vector" d="M21.34 11C21.34 10.33 21.29 9.67 21.17 9.02L18.88 10.77C18.88 10.84 18.88 10.92 18.88 11C18.88 12.18 18.64 13.35 18.17 14.43C17.71 15.51 17.03 16.47 16.17 17.26L17.83 19.15C18.94 18.12 19.82 16.86 20.43 15.46C21.03 14.05 21.34 12.53 21.34 11Z" fill="#21A038" fill-opacity="1.000000" fill-rule="nonzero"/>
		<linearGradient x1="1.668361" y1="5.771994" x2="21.427227" y2="17.117662" id="paint_linear_34_13746_4" gradientUnits="userSpaceOnUse">
			<stop offset="0.130000" stop-color="#F1E813"/>
			<stop offset="0.300000" stop-color="#EAE616"/>
			<stop offset="0.530000" stop-color="#D8DF1F"/>
			<stop offset="0.800000" stop-color="#BAD52D"/>
			<stop offset="0.980000" stop-color="#A2CC39"/>
		</linearGradient>
		<path id="Vector" d="M10.67 19.45C9.52 19.45 8.39 19.21 7.34 18.73C6.29 18.25 5.35 17.55 4.58 16.67L2.75 18.37C3.75 19.52 4.97 20.43 6.34 21.05C7.7 21.68 9.18 22 10.67 22L10.67 19.45Z" fill="url(#paint_linear_34_13746_4)" fill-opacity="1.000000" fill-rule="nonzero"/>
		<linearGradient x1="0.918651" y1="11.307364" x2="3.918692" y2="3.476506" id="paint_linear_34_13747_5" gradientUnits="userSpaceOnUse">
			<stop offset="0.070000" stop-color="#A2CC39"/>
			<stop offset="0.260000" stop-color="#81C45E"/>
			<stop offset="0.920000" stop-color="#0FA7DF"/>
		</linearGradient>
		<path id="Vector" d="M5.16 4.73L3.51 2.84C2.4 3.87 1.52 5.13 0.91 6.53C0.31 7.94 -0.01 9.46 0 11L2.46 11C2.46 9.81 2.7 8.64 3.17 7.56C3.63 6.48 4.31 5.52 5.16 4.73Z" fill="url(#paint_linear_34_13747_5)" fill-opacity="1.000000" fill-rule="nonzero"/>
		<path id="Vector" d="M63.2 6.46L66.32 4.17L55.88 4.17L55.88 17.96L66.32 17.96L66.32 15.66L58.86 15.66L58.86 12.13L65.23 12.13L65.23 9.84L58.86 9.84L58.86 6.46L63.2 6.46Z" fill="#21A038" fill-opacity="1.000000" fill-rule="nonzero"/>
		<path id="Vector" d="M48.86 9.54L45.23 9.54L45.23 6.46L51.02 6.46L54.14 4.16L42.25 4.16L42.25 17.95L48.47 17.95C51.96 17.95 53.96 16.37 53.96 13.62C53.96 10.99 52.15 9.54 48.86 9.54ZM48.34 15.65L45.23 15.65L45.23 11.83L48.34 11.83C50.23 11.83 51.11 12.47 51.11 13.74C51.11 15.01 50.17 15.65 48.34 15.65Z" fill="#21A038" fill-opacity="1.000000" fill-rule="nonzero"/>
		<path id="Vector" d="M74 4.17L68.31 4.17L68.31 17.95L71.29 17.95L71.29 14.05L74 14.05C77.62 14.05 79.87 12.14 79.87 9.1C79.87 6.06 77.62 4.17 74 4.17ZM73.93 11.75L71.29 11.75L71.29 6.46L73.93 6.46C75.84 6.46 76.89 7.4 76.89 9.11C76.89 10.82 75.84 11.75 73.93 11.75Z" fill="#21A038" fill-opacity="1.000000" fill-rule="nonzero"/>
		<path id="Vector" d="M37.78 14.7C37.02 15.12 36.15 15.33 35.28 15.33C32.66 15.33 30.76 13.46 30.76 10.89C30.76 8.32 32.66 6.45 35.28 6.45C36.22 6.44 37.15 6.72 37.92 7.27L40 5.74L39.86 5.64C38.64 4.57 37.02 4 35.16 4C33.15 4 31.32 4.68 30.01 5.91C29.35 6.55 28.83 7.31 28.48 8.16C28.13 9 27.95 9.91 27.97 10.82C27.95 11.75 28.13 12.66 28.48 13.52C28.83 14.37 29.34 15.15 30 15.8C31.31 17.08 33.14 17.79 35.14 17.79C37.23 17.79 39.06 17.06 40.3 15.74L38.43 14.35L37.78 14.7Z" fill="#21A038" fill-opacity="1.000000" fill-rule="nonzero"/>
		<path id="Vector" d="M91.68 9.54L88.06 9.54L88.06 6.46L95.84 6.46L95.84 4.16L85.08 4.16L85.08 17.95L91.29 17.95C94.77 17.95 96.77 16.37 96.77 13.62C96.78 10.99 94.97 9.54 91.68 9.54ZM91.16 15.65L88.06 15.65L88.06 11.83L91.16 11.83C93.05 11.83 93.93 12.47 93.93 13.74C93.93 15.01 93 15.65 91.16 15.65Z" fill="#21A038" fill-opacity="1.000000" fill-rule="nonzero"/>
		<path id="Vector" d="M130.64 17.93L127.62 17.93L127.62 4.14L130.64 4.14L130.64 9.93L132.28 9.93L136.72 4.14L140.15 4.14L134.88 10.7L141 17.93L136.99 17.93L132.5 12.51L130.64 12.51L130.64 17.93Z" fill="#21A038" fill-opacity="1.000000" fill-rule="nonzero"/>
		<path id="Vector" d="M107.75 15.31L101.36 15.31L100.27 17.99L97.06 17.99L103.05 4.2L106.27 4.2L112.16 17.99L108.83 17.99L107.75 15.31ZM106.75 12.81L104.57 7.46L102.38 12.81L106.75 12.81Z" fill="#21A038" fill-opacity="1.000000" fill-rule="nonzero"/>
		<path id="Vector" d="M116.23 4.2L116.23 9.96L122.48 9.96L122.48 4.2L125.59 4.2L125.59 17.99L122.48 17.99L122.48 12.55L116.23 12.55L116.23 17.99L113.11 17.99L113.11 4.2L116.23 4.2Z" fill="#21A038" fill-opacity="1.000000" fill-rule="nonzero"/>
	</g>
</svg>
