<svg width="33.799805" height="32.066620" viewBox="0 0 33.7998 32.0666" fill="none" xmlns="http://www.w3.org/2000/svg" xmlns:xlink="http://www.w3.org/1999/xlink">
	<desc>
			Created with Pixso.
	</desc>
	<defs/>
	<path id="Vector" d="M30.33 0.86L30.33 8.66L33.79 8.66L33.77 10.59L31.03 22.46L11.93 24.26C11.14 24.26 10.46 23.74 10.25 22.98L4.68 2.37C4.58 1.99 4.23 1.73 3.84 1.73L0 1.73L0 0L3.84 0C5.01 0 6.04 0.79 6.35 1.92L8.17 8.66L10.39 8.66L10.39 4.33L16.46 4.33L16.46 0.86L30.33 0.86ZM18.2 2.6L28.6 2.6L28.6 8.66L23.4 8.66L23.4 4.33L18.2 4.33L18.2 2.6ZM12.13 6.06L21.66 6.06L21.66 8.66L12.13 8.66L12.13 6.06ZM29.63 20.86L12.13 22.53L11.92 22.53L8.64 10.4L32.04 10.4L29.63 20.86ZM11.7 26C10.02 26 8.66 27.36 8.66 29.03C8.66 30.7 10.02 32.06 11.7 32.06C13.37 32.06 14.73 30.7 14.73 29.03C14.73 27.36 13.37 26 11.7 26ZM27.3 26C25.62 26 24.26 27.36 24.26 29.03C24.26 30.7 25.62 32.06 27.3 32.06C28.97 32.06 30.33 30.7 30.33 29.03C30.33 27.36 28.97 26 27.3 26ZM11.7 30.33C10.98 30.33 10.4 29.75 10.4 29.03C10.4 28.31 10.98 27.73 11.7 27.73C12.41 27.73 13 28.31 13 29.03C13 29.75 12.41 30.33 11.7 30.33ZM27.3 30.33C26.58 30.33 26 29.75 26 29.03C26 28.31 26.58 27.73 27.3 27.73C28.01 27.73 28.6 28.31 28.6 29.03C28.6 29.75 28.01 30.33 27.3 30.33Z" fill="#3F57FF" fill-opacity="1.000000" fill-rule="evenodd"/>
</svg>
