<svg width="34.666016" height="33.800140" viewBox="0 0 34.666 33.8001" fill="none" xmlns="http://www.w3.org/2000/svg" xmlns:xlink="http://www.w3.org/1999/xlink">
	<desc>
			Created with Pixso.
	</desc>
	<defs/>
	<path id="Vector" d="M18.19 29.46L21.66 29.46L21.66 31.2L18.19 31.2L18.19 29.46ZM12.13 0L0 0L0 1.73L12.13 1.73L12.13 0ZM29.46 4.33L31.19 4.33L31.19 12.13C31.19 13.08 30.42 13.86 29.46 13.86L27.73 13.86C26.77 13.86 25.99 13.08 25.99 12.13L25.99 11.26L22.94 11.26L22.06 12.37L26.86 18.77L26.86 24.26L25.13 24.26L25.13 19.35L20.94 13.77L19.48 15.6L15.18 15.6L13.72 13.77L9.53 19.35L9.53 24.26L7.79 24.26L7.79 18.77L12.6 12.37L11.71 11.26L8.66 11.26L8.66 12.13C8.66 13.08 7.88 13.86 6.93 13.86L5.19 13.86C4.24 13.86 3.46 13.08 3.46 12.13L3.46 4.33L5.19 4.33L5.19 2.6L6.93 2.6L6.93 4.33L8.66 4.33L8.66 6.93L25.99 6.93L25.99 4.33L27.73 4.33L27.73 2.6L29.46 2.6L29.46 4.33ZM29.46 6.06L27.73 6.06L27.73 8.66L6.93 8.66L6.93 6.06L5.19 6.06L5.19 12.13L6.93 12.13L6.93 9.53L12.54 9.53L16.01 13.86L18.64 13.86L22.11 9.53L27.73 9.53L27.73 12.13L29.46 12.13L29.46 6.06ZM22.53 0L22.53 1.73L34.66 1.73L34.66 0L22.53 0ZM22.02 19.06L24.26 21.3L24.26 33.8L10.4 33.79L10.4 21.3L12.64 19.06L22.02 19.06ZM12.49 21.66L16.46 21.66L16.46 20.8L13.35 20.8L12.49 21.66ZM22.53 23.4L18.19 23.4L18.19 25.13L16.46 25.13L16.46 23.4L12.13 23.4L12.13 32.06L22.53 32.06L22.53 23.4ZM22.17 21.66L21.3 20.8L18.19 20.8L18.19 21.66L22.17 21.66ZM17.33 11.26C16.85 11.26 16.46 11.65 16.46 12.13C16.46 12.61 16.85 13 17.33 13C17.81 13 18.19 12.61 18.19 12.13C18.19 11.65 17.81 11.26 17.33 11.26Z" fill="#3F57FF" fill-opacity="1.000000" fill-rule="nonzero"/>
</svg>
