<svg width="52.000000" height="52.000000" viewBox="0 0 52 52" fill="none" xmlns="http://www.w3.org/2000/svg" xmlns:xlink="http://www.w3.org/1999/xlink">
	<desc>
			Created with Pixso.
	</desc>
	<defs>
		<clipPath id="clip25_604">
			<rect id="noun-contract-3493167" rx="-0.500000" width="51.000000" height="51.000000" transform="translate(0.500000 0.500000)" fill="white" fill-opacity="0"/>
		</clipPath>
	</defs>
	<rect id="noun-contract-3493167" rx="-0.500000" width="51.000000" height="51.000000" transform="translate(0.500000 0.500000)" fill="#FFFFFF" fill-opacity="0"/>
	<g clip-path="url(#clip25_604)">
		<path id="Vector" d="M32.28 41.05L11.48 41.05L11.48 19.92L16.97 17.17C17.86 16.73 18.41 15.84 18.41 14.85L18.41 9.85L32.28 9.85L32.28 22.85L34.01 22.85L34.01 9.85C34.01 8.9 33.23 8.12 32.28 8.12L17.08 8.12L9.74 19.12L9.74 41.05C9.74 42.01 10.52 42.79 11.48 42.79L32.28 42.79C33.23 42.79 34.01 42.01 34.01 41.05L34.01 34.12L32.28 34.12L32.28 41.05ZM16.2 15.62L13.14 17.15L16.68 11.85L16.68 14.85C16.68 15.18 16.49 15.48 16.2 15.62L16.2 15.62ZM29.68 22.85L14.08 22.85L14.08 21.12L29.68 21.12L29.68 22.85ZM29.68 26.32L14.08 26.32L14.08 24.59L29.68 24.59L29.68 26.32ZM25.34 29.79L14.08 29.79L14.08 28.05L25.34 28.05L25.34 29.79ZM29.68 17.65L25.34 17.65L25.34 15.92L29.68 15.92L29.68 17.65ZM41.81 20.76L40.44 19.39C39.76 18.71 38.66 18.71 37.99 19.39L25.43 31.94L24.15 37.04L29.25 35.77L41.81 23.21C42.49 22.54 42.49 21.44 41.81 20.76L41.81 20.76ZM28.37 34.2L26.54 34.66L26.99 32.83L36.61 23.21L37.99 24.59L28.37 34.2ZM39.21 23.36L37.84 21.99L39.21 20.61L40.59 21.99L39.21 23.36ZM16.68 37.59L16.68 36.72C16.68 36.12 16.41 35.73 16 35.73C15.77 35.73 15.54 35.86 15.36 36.08C15.17 36.31 14.94 36.77 14.94 37.59L13.21 37.59C13.21 36.53 13.49 35.63 14.02 34.98C14.53 34.36 15.25 34 16 34C16.95 34 17.92 34.59 18.27 35.74C19.3 35.11 21.21 34.83 23.36 36.97L22.13 38.2C20.25 36.31 19.13 37.23 19.01 37.35L18.76 37.57L16.68 37.59Z" fill="#3F57FF" fill-opacity="1.000000" fill-rule="nonzero"/>
	</g>
</svg>
