<svg width="40.000000" height="22.000000" viewBox="0 0 40 22" fill="none" xmlns="http://www.w3.org/2000/svg" xmlns:xlink="http://www.w3.org/1999/xlink">
	<desc>
			Created with Pixso.
	</desc>
	<defs>
		<clipPath id="clip34_1385">
			<rect id="Frame" rx="-0.500000" width="39.000000" height="21.000000" transform="translate(0.500000 0.500000)" fill="white" fill-opacity="0"/>
		</clipPath>
	</defs>
	<rect id="Frame" rx="-0.500000" width="39.000000" height="21.000000" transform="translate(0.500000 0.500000)" fill="#FFFFFF" fill-opacity="0"/>
	<g clip-path="url(#clip34_1385)">
		<path id="Vector" d="M1.6 19.16L0 19.16L0 18.2L4.36 18.2L4.36 19.17L2.76 19.17L2.76 21.84L1.6 21.84L1.6 19.16Z" fill="#222220" fill-opacity="1.000000" fill-rule="nonzero"/>
		<path id="Vector" d="M8.83 18.2L8.83 21.83L7.71 21.83L7.71 19.72L5.77 21.83L4.77 21.83L4.77 18.2L5.9 18.2L5.9 20.32L7.84 18.2L8.83 18.2Z" fill="#222220" fill-opacity="1.000000" fill-rule="nonzero"/>
		<path id="Vector" d="M10.77 21.83L9.65 21.83L9.65 18.2L10.77 18.2L10.77 19.54L12.58 19.54L12.58 18.2L13.71 18.2L13.71 21.83L12.58 21.83L12.58 20.48L10.77 20.48L10.77 21.83Z" fill="#222220" fill-opacity="1.000000" fill-rule="nonzero"/>
		<path id="Vector" d="M14.52 21.83L14.52 18.2L15.65 18.2L15.65 19.18L16.81 19.18C17.09 19.17 17.37 19.2 17.64 19.28C17.89 19.36 18.11 19.53 18.27 19.75C18.42 19.97 18.5 20.23 18.48 20.5C18.49 20.78 18.4 21.07 18.23 21.3C18.05 21.53 17.8 21.69 17.51 21.76C17.28 21.82 17.04 21.85 16.81 21.84L14.52 21.83ZM15.65 20.96L16.62 20.96C16.77 20.97 16.92 20.95 17.06 20.9C17.15 20.87 17.22 20.81 17.27 20.73C17.32 20.65 17.35 20.56 17.35 20.47C17.35 20.38 17.32 20.29 17.27 20.22C17.21 20.15 17.13 20.1 17.05 20.07C16.9 20.03 16.76 20.02 16.61 20.03L15.64 20.03L15.65 20.96Z" fill="#222220" fill-opacity="1.000000" fill-rule="nonzero"/>
		<path id="Vector" d="M20.12 21.83L18.99 21.83L18.99 18.2L20.12 18.2L20.12 19.57L20.43 19.57L21.79 18.2L23.2 18.2L21.4 19.95L23.27 21.84L21.77 21.84L20.43 20.47L20.12 20.47L20.12 21.83Z" fill="#222220" fill-opacity="1.000000" fill-rule="nonzero"/>
		<path id="Vector" d="M28.03 20.02C28.03 21.11 27.12 21.95 25.62 21.95C24.11 21.95 23.19 21.11 23.19 20.02C23.19 18.94 24.1 18.1 25.63 18.1C27.15 18.1 28.03 18.94 28.03 20.02ZM26.85 20.02C26.85 19.43 26.36 18.99 25.62 18.99C24.87 18.99 24.38 19.43 24.38 20.02C24.38 20.62 24.86 21.06 25.62 21.06C26.37 21.06 26.85 20.62 26.85 20.02Z" fill="#222220" fill-opacity="1.000000" fill-rule="nonzero"/>
		<path id="Vector" d="M34.01 20.01C34.01 21.05 33.17 21.6 31.75 21.63L31.75 22L30.62 22L30.62 21.63C29.21 21.6 28.36 21.05 28.36 20.01C28.36 18.97 29.21 18.39 30.62 18.35L30.62 17.99L31.75 17.99L31.75 18.35C33.17 18.39 34.01 18.97 34.01 20.01ZM30.62 19.14C29.84 19.17 29.5 19.52 29.5 20.01C29.5 20.5 29.84 20.82 30.62 20.85L30.62 19.14ZM32.86 20.01C32.86 19.52 32.53 19.17 31.75 19.14L31.75 20.85C32.53 20.82 32.86 20.5 32.86 20.01Z" fill="#222220" fill-opacity="1.000000" fill-rule="nonzero"/>
		<path id="Vector" d="M40 20.01C40 21.05 39.15 21.6 37.73 21.63L37.73 22L36.6 22L36.6 21.63C35.19 21.6 34.34 21.05 34.34 20.01C34.34 18.97 35.19 18.39 36.6 18.35L36.6 17.99L37.73 17.99L37.73 18.35C39.15 18.39 40 18.97 40 20.01ZM36.6 19.14C35.83 19.17 35.48 19.52 35.48 20.01C35.48 20.5 35.83 20.82 36.6 20.85L36.6 19.14ZM38.85 20.01C38.85 19.52 38.51 19.17 37.73 19.14L37.73 20.85C38.51 20.82 38.85 20.5 38.85 20.01L38.85 20.01Z" fill="#222220" fill-opacity="1.000000" fill-rule="nonzero"/>
		<path id="Vector" d="M16.65 10.31C16.85 10.15 17.02 10.07 17.02 9.69C16.71 9.84 15.85 9.84 15.49 9.35C15.38 9.21 15.49 9.14 15.59 9.25C15.84 9.52 16.29 9.4 16.46 9.32C16.43 9.22 16.38 9.12 16.31 9.05C16.37 8.99 16.55 8.9 16.58 8.74C16.43 8.7 16.27 8.67 16.11 8.65C16.16 8.61 16.19 8.56 16.21 8.5C16.23 8.44 16.22 8.37 16.2 8.31C15.83 8.43 15.36 8.27 15.26 8.14C15.15 8 15.26 7.88 15.35 7.97C15.54 8.16 16.45 8.38 16.8 8.04C16.67 8.01 16.57 7.94 16.5 7.83C16.82 7.8 17.07 7.62 17.08 7.39C16.87 7.4 16.66 7.37 16.47 7.3C16.54 7.28 16.6 7.25 16.65 7.2C16.71 7.15 16.74 7.09 16.76 7.02C16.18 6.98 16.14 6.56 16.13 6.49C16.51 6.7 17.17 6.61 17 6.08C16.69 6.07 16.37 5.57 17.23 5.11C18.01 4.69 18.91 4.24 18.83 3.5C18.78 3.03 17.99 2.7 17.89 2.46C17.56 2.62 17.5 2.8 17.64 3.1C17.64 3.1 16.9 3.17 16.84 2.72C16.84 2.61 16.86 2.51 16.91 2.42C16.95 2.33 17.02 2.25 17.1 2.18C17.01 2.18 16.46 2.04 16.29 2.48C15.98 2.28 15.71 2.28 15.5 2.5C15.84 2.69 16.04 3.37 16.6 3.57C16.21 3.78 15.57 3.69 15.2 3.04C14.84 3.57 14.64 4.08 15.39 4.63C14.02 5.25 14.03 6.42 12.83 6.98C12.96 7.3 13.21 7.3 13.54 7.25C13.02 7.91 13.46 8.6 12.64 8.89C12.72 9.16 12.87 9.37 13.17 9.29C13.09 9.42 13.03 9.42 12.9 9.56C13.35 9.84 13.87 9.64 14 8.75C14.02 8.59 14.24 8.69 14.16 8.85C13.65 9.88 14.94 10.66 14.49 11.43C14.89 11.41 15.19 11.38 15.36 11.24C15.44 11.39 15.48 11.55 15.47 11.72C15.56 11.71 15.63 11.67 15.69 11.61C15.75 11.56 15.79 11.48 15.79 11.4C15.94 11.81 16.46 12.26 17.29 12.26C16.85 11.64 17.26 11.01 16.63 10.3L16.65 10.31ZM15.81 11.07L15.63 11.37C15.57 11.18 15.48 11 15.38 10.82C15.24 11.12 15.01 11.12 14.8 11.12C14.86 10.43 13.98 9.73 14.36 8.94C14.38 8.9 14.4 8.86 14.4 8.82C14.4 8.78 14.4 8.74 14.39 8.69C14.37 8.65 14.35 8.62 14.33 8.58C14.3 8.55 14.26 8.52 14.22 8.51C13.63 8.21 13.91 9.44 13.31 9.48C13.39 9.33 13.45 9.18 13.49 9.02C13.36 9.05 13.06 9.24 12.92 9C13.06 8.92 13.18 8.82 13.26 8.69C13.35 8.56 13.41 8.41 13.42 8.25C13.45 8.03 13.51 7.8 13.59 7.59C13.71 7.37 13.86 7.16 14.03 6.98C13.97 6.98 13.3 7.12 13.15 7.05C14.31 6.36 14.05 5.47 15.81 4.68C15.34 4.34 14.87 4.07 15.21 3.43C15.69 4 16.61 3.81 17.1 3.53C16.61 3.44 15.98 3.01 15.83 2.54C16.03 2.51 16.26 2.71 16.39 2.8C16.46 2.63 16.49 2.42 16.7 2.38C16.42 2.98 16.98 3.3 17.52 3.3C17.6 3.3 17.95 3.26 17.95 3.26C17.9 3.15 17.67 2.84 17.84 2.72C17.97 2.84 18.13 2.94 18.27 3.04C19.32 3.84 17.77 4.58 17.14 4.92C16.14 5.45 16.41 6.08 16.82 6.24C16.82 6.31 16.78 6.34 16.71 6.36C16.42 6.46 16.15 6.25 15.92 6.12C15.93 6.52 15.9 6.89 16.35 7.11L16.04 7.22C16.3 7.42 16.38 7.52 16.7 7.56C16.54 7.62 16.38 7.65 16.21 7.65C16.24 7.78 16.29 7.9 16.37 8C15.72 8.08 15.46 7.72 15.26 7.73C14.83 7.76 14.86 8.55 15.91 8.55L15.8 8.73C15.92 8.8 16.06 8.84 16.19 8.87C16.12 8.92 16.05 9 16 9.06L16.16 9.2C15.74 9.28 15.62 8.82 15.34 9.04C14.91 9.37 15.85 10.07 16.75 9.97C16.63 10.08 16.5 10.18 16.37 10.28C17.1 10.96 16.74 11.6 17.04 12.06C16.76 12.05 16.49 11.94 16.27 11.76C16.05 11.59 15.9 11.35 15.83 11.08L15.81 11.07Z" fill="#DEE0E1" fill-opacity="1.000000" fill-rule="evenodd"/>
		<path id="Vector" d="M14.68 8.6C14.83 8.75 15.02 8.77 15.36 8.75C14.97 8.7 14.76 8.61 14.63 8.37C14.61 8.23 14.6 8.09 14.59 7.95C14.6 7.46 14.74 6.99 14.99 6.56C15 6.79 15.09 7.01 15.24 7.17C15.4 7.34 15.61 7.45 15.83 7.48C15.31 7.26 15 6.75 15.17 6.26C15.28 6.09 15.4 5.91 15.54 5.73C15.61 5.64 15.68 5.56 15.74 5.48C15.67 5.73 15.97 5.99 16.18 6.03C16.07 5.93 15.83 5.58 16.37 4.99C16.21 5.07 16.06 5.16 15.92 5.27C16.93 4.2 17.75 4.16 18.13 3.63C17.58 4 16.13 4.2 15.47 4.02C15.83 4.26 16.7 4.24 16.92 4.19C16.21 4.87 14.66 5.58 14.39 6.2C14.64 5.91 14.97 5.7 15.34 5.61C15.09 5.96 14.87 6.32 14.69 6.71C14.28 7.59 13.72 7.6 13.69 8.33C13.89 7.76 14.26 7.62 14.53 7.25C14.48 7.52 14.46 7.79 14.47 8.06C14.47 8.36 14.54 8.65 14.65 8.93C14.62 9.29 14.65 9.91 15.08 10.31C14.84 9.98 14.73 9.57 14.76 9.17C15.08 9.79 16.02 10.65 16.47 11.23C16.02 10.48 14.92 9.62 14.67 8.61L14.68 8.6Z" fill="#DEE0E1" fill-opacity="1.000000" fill-rule="evenodd"/>
		<path id="Vector" d="M25.03 5.61C25.4 5.7 25.73 5.9 25.98 6.19C25.71 5.57 24.16 4.87 23.45 4.19C23.67 4.23 24.54 4.25 24.9 4.01C24.24 4.19 22.79 3.99 22.24 3.62C22.63 4.16 23.44 4.19 24.45 5.26C24.31 5.15 24.16 5.06 24 4.99C24.55 5.57 24.31 5.92 24.19 6.03C24.4 5.98 24.7 5.72 24.63 5.47C24.7 5.55 24.77 5.64 24.83 5.72C24.97 5.9 25.09 6.08 25.2 6.25C25.37 6.74 25.06 7.25 24.53 7.48C24.76 7.44 24.97 7.33 25.12 7.17C25.28 7 25.37 6.78 25.37 6.56C25.63 6.98 25.76 7.46 25.77 7.94C25.77 8.08 25.76 8.22 25.74 8.36C25.6 8.61 25.39 8.7 25.01 8.74C25.35 8.76 25.54 8.74 25.69 8.59C25.45 9.59 24.34 10.46 23.89 11.21C24.34 10.63 25.28 9.77 25.61 9.15C25.63 9.55 25.52 9.96 25.29 10.29C25.7 9.89 25.74 9.27 25.71 8.91C25.82 8.63 25.88 8.34 25.89 8.04C25.9 7.77 25.88 7.5 25.83 7.23C26.1 7.61 26.48 7.75 26.67 8.31C26.63 7.58 26.08 7.57 25.67 6.69C25.49 6.3 25.27 5.93 25.02 5.59L25.03 5.61Z" fill="#DEE0E1" fill-opacity="1.000000" fill-rule="evenodd"/>
		<path id="Vector" d="M26.82 7.26C27.15 7.31 27.4 7.31 27.52 6.99C26.33 6.43 26.34 5.26 24.97 4.64C25.72 4.09 25.52 3.57 25.16 3.05C24.79 3.7 24.15 3.79 23.76 3.58C24.31 3.38 24.52 2.71 24.85 2.51C24.66 2.29 24.38 2.28 24.07 2.48C23.9 2.04 23.35 2.18 23.27 2.18C23.35 2.24 23.41 2.33 23.46 2.42C23.5 2.51 23.52 2.61 23.52 2.71C23.47 3.16 22.73 3.09 22.73 3.09C22.88 2.79 22.81 2.61 22.48 2.46C22.38 2.7 21.59 3.02 21.54 3.5C21.46 4.24 22.35 4.69 23.13 5.1C23.99 5.56 23.68 6.06 23.37 6.08C23.19 6.61 23.86 6.7 24.23 6.49C24.23 6.56 24.18 6.98 23.61 7.01C23.62 7.08 23.66 7.14 23.71 7.19C23.77 7.24 23.83 7.28 23.9 7.29C23.71 7.37 23.49 7.4 23.28 7.39C23.3 7.62 23.56 7.8 23.87 7.83C23.8 7.94 23.69 8.01 23.57 8.05C23.91 8.38 24.83 8.16 25.02 7.97C25.1 7.88 25.21 8.01 25.11 8.14C25 8.27 24.54 8.43 24.17 8.32C24.15 8.37 24.14 8.44 24.16 8.5C24.17 8.56 24.21 8.61 24.25 8.66C24.1 8.67 23.94 8.7 23.79 8.74C23.83 8.9 24.01 8.99 24.07 9.05C23.99 9.12 23.94 9.22 23.91 9.32C24.07 9.4 24.53 9.52 24.78 9.25C24.88 9.14 24.98 9.21 24.88 9.35C24.52 9.84 23.66 9.85 23.36 9.69C23.36 10.08 23.51 10.15 23.72 10.31C23.1 11.02 23.51 11.65 23.07 12.27C23.9 12.27 24.43 11.82 24.56 11.41C24.57 11.49 24.6 11.57 24.66 11.62C24.72 11.68 24.8 11.72 24.88 11.73C24.87 11.56 24.91 11.4 24.99 11.25C25.16 11.39 25.47 11.42 25.87 11.43C25.42 10.67 26.7 9.9 26.19 8.86C26.12 8.7 26.34 8.6 26.36 8.76C26.48 9.65 27.01 9.85 27.46 9.57C27.32 9.43 27.26 9.43 27.18 9.3C27.48 9.38 27.64 9.16 27.71 8.9C26.9 8.61 27.34 7.92 26.82 7.26L26.82 7.26ZM26.89 9.03C26.92 9.19 26.98 9.34 27.06 9.49C26.46 9.45 26.74 8.22 26.15 8.51C26.11 8.53 26.07 8.56 26.05 8.59C26.02 8.62 26 8.66 25.98 8.7C25.97 8.74 25.97 8.79 25.97 8.83C25.97 8.87 25.99 8.91 26.01 8.95C26.39 9.74 25.51 10.44 25.56 11.13C25.34 11.13 25.11 11.13 24.98 10.84C24.88 11.01 24.79 11.19 24.72 11.38L24.55 11.08C24.48 11.35 24.32 11.59 24.11 11.77C23.89 11.95 23.62 12.05 23.34 12.07C23.64 11.6 23.28 10.96 24.01 10.28C23.88 10.19 23.75 10.09 23.63 9.97C24.53 10.08 25.46 9.38 25.04 9.05C24.76 8.83 24.64 9.28 24.21 9.2L24.38 9.06C24.32 9.01 24.25 8.93 24.18 8.87C24.32 8.85 24.45 8.8 24.57 8.74L24.46 8.56C25.51 8.56 25.54 7.77 25.11 7.74C24.92 7.72 24.65 8.08 24.01 8.01C24.08 7.9 24.13 7.78 24.17 7.65C24 7.65 23.83 7.63 23.68 7.57C23.99 7.53 24.07 7.43 24.34 7.23L24.03 7.12C24.47 6.9 24.45 6.52 24.46 6.13C24.23 6.26 23.95 6.46 23.67 6.37C23.6 6.34 23.55 6.31 23.55 6.24C23.97 6.08 24.23 5.45 23.24 4.93C22.6 4.58 21.05 3.85 22.1 3.05C22.24 2.95 22.4 2.85 22.53 2.73C22.7 2.85 22.47 3.16 22.41 3.27C22.41 3.27 22.76 3.31 22.84 3.31C23.38 3.31 23.95 2.99 23.67 2.39C23.88 2.43 23.91 2.64 23.97 2.81C24.11 2.72 24.35 2.52 24.53 2.55C24.38 3.02 23.76 3.45 23.26 3.54C23.76 3.81 24.67 4 25.16 3.43C25.49 4.08 25.02 4.35 24.56 4.69C26.32 5.48 26.06 6.37 27.22 7.06C27.07 7.13 26.4 7 26.34 6.99C26.51 7.17 26.65 7.38 26.78 7.6C26.86 7.81 26.92 8.03 26.95 8.26C26.97 8.42 27.02 8.57 27.11 8.7C27.2 8.83 27.31 8.93 27.45 9.01C27.32 9.25 27.02 9.06 26.89 9.03L26.89 9.03Z" fill="#DEE0E1" fill-opacity="1.000000" fill-rule="evenodd"/>
		<path id="Vector" d="M18.5 10.96L18.76 10.75L18.72 10.68C18.69 10.62 18.7 10.62 18.73 10.6L18.86 10.5C18.88 10.49 18.89 10.48 18.91 10.48C18.93 10.48 18.95 10.48 18.96 10.49L19.35 10.58L18.94 10.58C18.91 10.58 18.87 10.59 18.84 10.61C18.81 10.63 18.79 10.66 18.78 10.69L18.75 10.75L18.64 10.97C18.62 11.02 18.61 11.07 18.62 11.12C18.62 11.17 18.65 11.22 18.69 11.26L18.76 11.35L18.61 11.66L18.74 11.66L18.85 11.44C18.94 11.36 19 11.26 19.04 11.15C19 11.11 18.96 11.09 18.99 11.04L19.04 10.93C19.05 10.9 19.06 10.89 19.1 10.9L19.52 10.99C19.55 11 19.59 11 19.62 11C19.66 10.99 19.69 10.97 19.71 10.94C19.76 10.85 19.77 10.86 19.9 10.88L20.11 10.9C20.35 10.93 20.6 10.88 20.81 10.77C20.86 10.84 20.91 10.92 20.96 10.99C20.98 11.02 20.96 11.05 20.94 11.1L20.71 11.66L21.08 11.66L21.29 11.14C21.3 11.1 21.32 11.07 21.36 11.04L21.23 11.66L21.59 11.66L21.69 11.04C21.71 10.91 21.69 10.86 21.63 10.81C21.48 10.68 21.48 10.42 21.43 10.26C21.46 10.25 21.49 10.24 21.52 10.25C21.6 10.25 21.66 10.45 21.75 10.57C21.94 10.83 22.19 11.11 22.47 10.71C22.45 10.67 22.41 10.63 22.38 10.59L22.3 10.5C22.25 10.45 22.03 10.2 21.94 10.12C21.85 10.03 21.74 9.98 21.62 9.96C21.5 9.95 21.38 9.98 21.28 10.04C20.99 9.89 20.68 10.04 20.61 10.04L20.1 10.01C20.09 10.01 20.07 10 20.06 10C20.04 9.99 20.03 9.97 20.02 9.96L20.12 9.93C20.03 9.57 19.81 9.27 19.43 9.22C19.43 9.22 19.4 9.11 19.35 9.09L19.23 9.22C19.2 9.23 19.17 9.23 19.14 9.25L18.65 9.07L19.01 9.43C19.01 9.43 18.83 9.69 18.77 9.75C18.75 9.76 18.74 9.79 18.74 9.81C18.74 9.84 18.75 9.86 18.77 9.88L18.84 9.97C18.88 10.02 18.92 10.02 18.98 9.99L19.06 9.95C19.09 9.92 19.21 9.98 19.25 9.93C19.23 10.03 19.22 10.12 19.22 10.22L18.89 10.18C18.86 10.17 18.84 10.17 18.81 10.18C18.78 10.18 18.76 10.2 18.74 10.21L18.46 10.43C18.41 10.46 18.38 10.51 18.37 10.57C18.36 10.62 18.37 10.68 18.39 10.73L18.5 10.96ZM21.22 11.03L21 11.57L20.86 11.57L21.09 11.04C21.11 10.98 21.06 10.94 21.01 10.87C21.09 10.91 21.17 10.95 21.25 10.98C21.24 11 21.23 11.01 21.23 11.03L21.22 11.03ZM19.07 9.85L19.01 9.88C18.96 9.91 18.94 9.92 18.9 9.87L18.88 9.84C18.87 9.82 18.86 9.81 18.87 9.79C18.87 9.78 18.88 9.76 18.89 9.75L19.16 9.43L18.91 9.23L19.23 9.35L19.35 9.2C19.38 9.23 19.37 9.31 19.37 9.31C19.52 9.34 19.66 9.43 19.75 9.54C19.85 9.66 19.9 9.81 19.89 9.96C19.94 10.03 20.01 10.08 20.09 10.09L20.65 10.13C20.74 10.13 20.97 9.95 21.27 10.13C21.34 10.08 21.42 10.05 21.5 10.04C21.62 10.04 21.74 10.07 21.85 10.13C21.95 10.19 22.04 10.28 22.1 10.38C22.21 10.51 22.35 10.71 22.35 10.71C22.29 10.78 22.23 10.8 22.18 10.79C22.14 10.77 22.11 10.74 22.09 10.71C22.07 10.67 22.05 10.63 22.05 10.6C22.01 10.5 21.94 10.41 21.86 10.35C21.9 10.44 21.93 10.53 21.94 10.63C21.72 10.42 21.68 10.16 21.53 10.12C21.49 10.12 21.45 10.12 21.41 10.14C21.37 10.16 21.33 10.19 21.31 10.22C21.39 10.4 21.38 10.6 21.46 10.74C21.52 10.84 21.53 10.85 21.56 10.87C21.63 10.91 21.59 11 21.58 11.06L21.5 11.57L21.36 11.57L21.45 11.07C21.47 10.92 21.04 10.92 20.82 10.63C20.63 10.85 20.1 10.79 19.87 10.76C19.83 10.74 19.78 10.74 19.74 10.76C19.7 10.77 19.66 10.8 19.64 10.84C19.61 10.89 19.56 10.87 19.53 10.87L19.11 10.78C19.1 10.77 19.08 10.77 19.07 10.77C19.05 10.77 19.04 10.77 19.03 10.78C19.01 10.79 19 10.79 18.99 10.81C18.98 10.82 18.98 10.83 18.97 10.84L18.89 11.01C18.88 11.03 18.87 11.05 18.88 11.07C18.88 11.08 18.89 11.1 18.9 11.11L18.95 11.16C18.93 11.21 18.89 11.26 18.85 11.3L18.76 11.2C18.74 11.17 18.72 11.14 18.72 11.1C18.72 11.07 18.73 11.04 18.74 11.01L18.88 10.73C18.89 10.71 18.9 10.69 18.92 10.68C18.94 10.67 18.96 10.67 18.98 10.67L19.5 10.67L19.34 10.41C19.22 10.22 19.42 9.88 19.39 9.72C19.37 9.94 19.11 9.84 19.07 9.87L19.07 9.85ZM18.51 10.49L18.76 10.3C18.77 10.28 18.79 10.27 18.81 10.26C18.83 10.26 18.85 10.25 18.88 10.25L19.22 10.3C19.24 10.35 19.26 10.41 19.3 10.46L18.93 10.38C18.91 10.38 18.89 10.38 18.87 10.38C18.85 10.39 18.83 10.4 18.81 10.41L18.64 10.54C18.62 10.56 18.61 10.58 18.61 10.6C18.61 10.62 18.61 10.64 18.62 10.65L18.65 10.71L18.53 10.8L18.48 10.72C18.44 10.63 18.43 10.54 18.51 10.48L18.51 10.49Z" fill="#DEE0E1" fill-opacity="1.000000" fill-rule="evenodd"/>
		<path id="Vector" d="M19.58 3.96C19.69 4.03 19.82 4.09 19.95 4.15L19.95 3.99L19.43 3.8C19.43 3.8 19.43 3.86 19.58 3.97L19.58 3.96Z" fill="#DEE0E1" fill-opacity="1.000000" fill-rule="evenodd"/>
		<path id="Vector" d="M19.95 3.77L19.95 3.61L19.36 3.41C19.42 3.47 19.5 3.53 19.58 3.58C19.69 3.66 19.82 3.72 19.95 3.77L19.95 3.77Z" fill="#DEE0E1" fill-opacity="1.000000" fill-rule="evenodd"/>
		<path id="Vector" d="M19.95 3.42L19.95 3.26L19.3 3.03C19.3 3.03 19.42 3.13 19.58 3.23C19.69 3.3 19.82 3.37 19.95 3.42L19.95 3.42Z" fill="#DEE0E1" fill-opacity="1.000000" fill-rule="evenodd"/>
		<path id="Vector" d="M21.77 5.54L22.43 5.54C22.41 5.48 22.36 5.42 22.31 5.39C22.25 5.36 22.18 5.34 22.11 5.35C22.04 5.35 21.97 5.36 21.91 5.4C21.85 5.43 21.8 5.48 21.77 5.54Z" fill="#DEE0E1" fill-opacity="1.000000" fill-rule="evenodd"/>
		<path id="Vector" d="M21.08 3.03L20.43 3.26L20.43 3.42C20.56 3.37 20.68 3.3 20.8 3.23C20.95 3.13 21.08 3.03 21.08 3.03L21.08 3.03Z" fill="#DEE0E1" fill-opacity="1.000000" fill-rule="evenodd"/>
		<path id="Vector" d="M20.95 3.79L20.43 3.99L20.43 4.14C20.56 4.09 20.68 4.02 20.8 3.95C20.95 3.85 20.95 3.78 20.95 3.78L20.95 3.79Z" fill="#DEE0E1" fill-opacity="1.000000" fill-rule="evenodd"/>
		<path id="Vector" d="M21.02 3.41L20.44 3.61L20.44 3.77C20.57 3.72 20.69 3.65 20.81 3.58C20.89 3.53 20.96 3.47 21.03 3.4L21.02 3.41Z" fill="#DEE0E1" fill-opacity="1.000000" fill-rule="evenodd"/>
		<path id="Vector" d="M18.26 5.35C18.2 5.34 18.13 5.35 18.07 5.39C18.01 5.42 17.96 5.48 17.94 5.54L18.6 5.54C18.57 5.48 18.52 5.43 18.46 5.4C18.4 5.36 18.33 5.35 18.26 5.35Z" fill="#DEE0E1" fill-opacity="1.000000" fill-rule="evenodd"/>
		<path id="Vector" d="M21.5 2.61C21.5 2.24 20.88 1.91 20.19 1.91C19.5 1.91 18.87 2.24 18.87 2.61L18.88 2.7L19.16 4.26L17.86 5.01C17.77 5.07 17.69 5.15 17.63 5.24C17.57 5.33 17.53 5.43 17.52 5.54L17.76 5.54C17.77 5.41 17.84 5.29 17.94 5.21C18.04 5.12 18.17 5.08 18.31 5.08C18.61 5.1 18.79 5.28 18.96 5.54L19.01 5.61L19.08 5.71L17.16 5.71C17.32 5.98 17.41 6.29 17.43 6.61L17.43 10.54C17.43 11.55 18.22 12.03 19.08 12.03C19.74 12.03 19.83 12 20.19 12.36C20.56 12 20.64 12.03 21.31 12.03C22.16 12.03 22.95 11.55 22.95 10.54L22.95 6.6C22.97 6.29 23.06 5.98 23.23 5.7L21.3 5.7L21.37 5.6L21.41 5.53C21.59 5.28 21.77 5.1 22.07 5.08C22.21 5.07 22.34 5.12 22.44 5.2C22.54 5.29 22.6 5.41 22.62 5.54L22.86 5.54C22.84 5.43 22.81 5.33 22.75 5.24C22.69 5.15 22.61 5.07 22.52 5.01L21.21 4.26L21.49 2.7L21.5 2.61ZM19.14 2.79L20.11 3.12L20.11 4.62L19.39 4.25L19.14 2.79ZM19.37 5.98C19.52 6.16 19.73 6.29 19.96 6.33C19.98 6.44 20.04 6.53 20.13 6.6C20.11 6.66 20.11 6.73 20.12 6.79C20.13 6.85 20.15 6.92 20.19 6.97C20.22 7.02 20.27 7.07 20.32 7.11C20.37 7.15 20.43 7.17 20.5 7.19C20.51 7.25 20.54 7.32 20.59 7.37C20.63 7.42 20.69 7.45 20.76 7.47L20.55 7.71C20.52 7.74 20.48 7.77 20.44 7.79C20.39 7.81 20.34 7.82 20.29 7.81L19.38 7.71C19.42 7.61 19.31 7.5 19.03 7.55L19.38 6.56L19.16 6.1L18.75 6.45L18.72 7.48L18.54 7.4C18.31 7.3 18.24 7.71 18.46 7.71L18.55 7.71C18.55 7.73 18.55 7.75 18.56 7.77C18.56 7.79 18.58 7.81 18.59 7.82C18.58 7.82 18.57 7.83 18.57 7.84C18.56 7.85 18.56 7.87 18.56 7.88C18.56 7.89 18.56 7.9 18.57 7.91C18.57 7.92 18.58 7.93 18.59 7.94C18.58 7.94 18.57 7.95 18.56 7.96C18.55 7.98 18.55 7.99 18.55 8C18.55 8.01 18.55 8.03 18.55 8.04C18.56 8.05 18.56 8.06 18.57 8.07C18.56 8.1 18.55 8.13 18.55 8.16C18.54 8.18 18.55 8.21 18.56 8.24C18.57 8.27 18.58 8.29 18.61 8.31C18.63 8.33 18.65 8.35 18.68 8.36C18.81 8.39 18.89 8.25 18.92 8.17L20.34 8.6C20.43 8.63 20.52 8.63 20.61 8.61C20.7 8.59 20.78 8.54 20.85 8.48L21.22 8.16C21.19 8.25 21.19 8.34 21.23 8.42C21.26 8.51 21.33 8.58 21.41 8.62C21.4 8.71 21.39 8.8 21.4 8.89L17.71 8.89L17.71 6.6C17.7 6.38 17.65 6.17 17.57 5.97L19.37 5.98ZM20.9 6.85C20.86 6.92 20.84 7 20.85 7.09C20.85 7.17 20.88 7.25 20.92 7.32L20.86 7.38C20.59 7.35 20.49 6.95 20.49 6.95C20.49 6.99 20.49 7.02 20.49 7.06C20.41 7.03 20.34 6.98 20.3 6.91C20.26 6.84 20.24 6.76 20.24 6.68C20.31 6.71 20.37 6.73 20.44 6.74L20.46 6.63C20.38 6.62 20.31 6.59 20.25 6.54C20.19 6.49 20.14 6.42 20.12 6.35L20.1 6.35L20.19 6.35C20.3 6.35 20.4 6.33 20.5 6.31C20.54 6.36 20.6 6.41 20.66 6.44C20.72 6.48 20.78 6.5 20.85 6.51C20.83 6.62 20.85 6.74 20.9 6.85L20.9 6.85ZM21.29 7.88C21.26 7.91 21.24 7.96 21.23 8L21.08 8.13C21.08 8.02 21.06 7.92 21.02 7.82C20.98 7.72 20.91 7.63 20.83 7.56L20.99 7.41L21.02 7.44C21.01 7.48 21 7.53 21.01 7.58C21.02 7.62 21.04 7.67 21.06 7.71C21.09 7.75 21.12 7.79 21.16 7.81C21.2 7.84 21.24 7.86 21.29 7.87L21.29 7.88ZM20.58 7.81L20.7 7.7C20.79 7.77 20.85 7.85 20.89 7.95C20.93 8.05 20.95 8.16 20.94 8.27L20.81 8.39C20.78 8.41 20.75 8.44 20.72 8.45C20.75 8.34 20.75 8.23 20.73 8.12C20.71 8.01 20.65 7.9 20.58 7.82L20.58 7.81ZM20.32 7.91C20.36 7.92 20.41 7.91 20.45 7.9C20.51 7.99 20.55 8.09 20.56 8.2C20.57 8.3 20.55 8.41 20.51 8.51C20.45 8.51 20.38 8.5 20.32 8.48L20.28 8.47C20.36 8.3 20.37 8.1 20.31 7.91L20.32 7.91ZM20.01 7.88L20.18 7.9C20.21 8.08 20.18 8.26 20.1 8.42L19.9 8.36C19.99 8.22 20.03 8.04 20.01 7.87L20.01 7.88ZM19.65 7.83L19.86 7.86C19.87 8.02 19.84 8.18 19.76 8.33L19.55 8.27C19.63 8.14 19.66 7.99 19.65 7.83ZM18.8 7.78C18.79 7.79 18.77 7.79 18.75 7.79C18.74 7.79 18.72 7.78 18.71 7.77C18.69 7.76 18.68 7.75 18.67 7.73C18.67 7.72 18.67 7.7 18.67 7.68C18.72 7.65 18.78 7.64 18.83 7.64C18.89 7.65 18.95 7.66 19 7.69C19.05 7.73 19.09 7.82 19.16 7.87C19.15 7.96 19.13 8.05 19.1 8.13C19.06 8.13 19.02 8.12 18.99 8.1C18.96 8.08 18.94 8.05 18.93 8.01C18.91 7.98 18.91 7.94 18.92 7.91C18.92 7.87 18.94 7.84 18.96 7.81C18.95 7.79 18.92 7.77 18.89 7.77C18.86 7.76 18.83 7.76 18.8 7.78L18.8 7.78ZM18.67 8.16C18.71 8.18 18.75 8.19 18.8 8.19C18.8 8.2 18.79 8.21 18.79 8.22C18.78 8.23 18.78 8.24 18.77 8.24C18.76 8.25 18.75 8.25 18.74 8.26C18.73 8.26 18.72 8.26 18.71 8.26C18.7 8.25 18.69 8.25 18.68 8.24C18.67 8.24 18.67 8.23 18.66 8.22C18.66 8.21 18.66 8.2 18.66 8.19C18.66 8.18 18.66 8.17 18.67 8.16ZM18.47 7.61C18.46 7.61 18.45 7.6 18.45 7.58C18.44 7.57 18.44 7.56 18.44 7.55C18.45 7.54 18.45 7.53 18.46 7.52C18.47 7.51 18.49 7.51 18.5 7.51C18.56 7.51 18.63 7.58 18.71 7.61C18.63 7.62 18.55 7.62 18.47 7.61L18.47 7.61ZM18.67 8.01C18.71 8.05 18.83 8.03 18.83 8.03L18.83 8.06C18.78 8.13 18.63 8.1 18.66 8.01L18.67 8.01ZM18.83 7.93C18.74 7.96 18.65 7.91 18.68 7.86C18.72 7.89 18.83 7.87 18.83 7.87L18.83 7.93ZM18.96 6.89L18.79 7.51L18.85 6.51L19.11 6.29L19.25 6.58L18.91 7.55L19 6.9C19 6.85 18.97 6.85 18.96 6.9L18.96 6.89ZM18.99 7.64C19.07 7.64 19.15 7.64 19.24 7.65C19.28 7.67 19.25 7.74 19.2 7.73C19.12 7.71 19.05 7.68 18.99 7.64ZM19.29 7.79L19.5 7.82C19.51 7.96 19.48 8.1 19.41 8.22L19.22 8.16C19.27 8.04 19.29 7.91 19.3 7.78L19.29 7.79ZM22.68 10.53C22.69 10.74 22.64 10.95 22.53 11.13C22.43 11.32 22.27 11.47 22.08 11.57L22.22 11.3L22.09 11.3L21.92 11.65C21.72 11.72 21.52 11.75 21.31 11.75C20.63 11.75 20.45 11.78 20.2 12.03C19.94 11.78 19.77 11.75 19.08 11.75C18.88 11.75 18.67 11.72 18.48 11.65L18.65 11.31L18.52 11.31L18.37 11.61C18.33 11.59 18.3 11.57 18.26 11.55L18.39 11.31L18.26 11.31L18.17 11.5C18.02 11.39 17.9 11.24 17.82 11.08C17.74 10.91 17.7 10.73 17.7 10.54L17.7 9.03L22.67 9.03L22.68 10.53ZM22.82 5.97C22.73 6.16 22.69 6.38 22.68 6.59L22.68 8.89L22.41 8.89C22.3 8.73 22.23 8.56 22.18 8.38C22.16 8.46 22.15 8.55 22.17 8.64C22.18 8.73 22.21 8.81 22.26 8.89L21.91 8.89C21.84 8.72 21.78 8.54 21.75 8.36C21.65 8.48 21.71 8.8 21.78 8.89L21.55 8.89C21.54 8.77 21.55 8.66 21.58 8.55C21.46 8.52 21.33 8.46 21.33 8.33C21.35 8.35 21.38 8.37 21.41 8.38C21.44 8.39 21.47 8.39 21.5 8.38L21.6 8.31C21.27 8.32 21.26 7.96 21.52 7.8C21.26 7.8 21.06 7.65 21.16 7.38C21.12 7.36 21.08 7.32 21.05 7.28C21.02 7.24 21 7.19 20.99 7.14C20.98 7.09 20.98 7.04 20.99 6.99C21 6.94 21.02 6.89 21.05 6.85C21 6.78 20.97 6.71 20.96 6.63C20.95 6.55 20.96 6.47 20.99 6.39C20.86 6.4 20.73 6.35 20.63 6.26L20.61 6.26C20.77 6.19 20.9 6.09 21 5.96L22.82 5.97ZM21.83 4.86C21.56 4.91 21.33 5.23 21.14 5.52L21.12 5.56L20.92 5.56L20.92 5.59C20.9 5.82 20.69 6.13 20.21 6.13C20.02 6.13 19.85 6.08 19.7 5.97C19.61 5.9 19.54 5.8 19.51 5.7C19.5 5.66 19.49 5.63 19.49 5.59L19.49 5.56L19.29 5.56L19.24 5.54C19.05 5.25 18.82 4.92 18.56 4.88L19.29 4.46L20.19 4.94L21.09 4.45L21.83 4.86ZM20.99 4.23L20.27 4.61L20.27 3.12L21.24 2.79L20.99 4.23ZM20.19 2.95L19.12 2.54C19.21 2.33 19.63 2.15 20.19 2.15C20.75 2.15 21.16 2.33 21.25 2.54L20.19 2.95Z" fill="#DEE0E1" fill-opacity="1.000000" fill-rule="evenodd"/>
		<path id="Vector" d="M22.56 7.45L22.56 7.34C22.2 7.34 22.12 6.91 22.12 6.91C22.1 6.98 22.1 7.05 22.11 7.11C22.12 7.18 22.15 7.24 22.2 7.29C22.24 7.35 22.29 7.39 22.36 7.42C22.42 7.44 22.49 7.46 22.56 7.45Z" fill="#DEE0E1" fill-opacity="1.000000" fill-rule="evenodd"/>
		<path id="Vector" d="M22.1 8.17L22.07 8.06C21.76 8.13 21.61 7.66 21.61 7.66C21.58 7.73 21.58 7.8 21.6 7.87C21.62 7.94 21.65 8.01 21.7 8.06C21.75 8.11 21.82 8.15 21.89 8.17C21.96 8.18 22.03 8.19 22.1 8.17Z" fill="#DEE0E1" fill-opacity="1.000000" fill-rule="evenodd"/>
		<path id="Vector" d="M22.33 7.72C21.96 7.78 21.81 7.36 21.81 7.36C21.8 7.42 21.8 7.47 21.81 7.53C21.82 7.58 21.85 7.63 21.88 7.68C21.91 7.72 21.96 7.76 22 7.79C22.05 7.82 22.11 7.84 22.16 7.85C22.15 7.91 22.15 7.97 22.18 8.02C22.2 8.08 22.23 8.13 22.28 8.17C22.33 8.2 22.39 8.23 22.46 8.23C22.52 8.23 22.58 8.22 22.63 8.19L22.6 8.09C22.55 8.11 22.5 8.11 22.45 8.09C22.4 8.08 22.35 8.05 22.32 8.01C22.29 7.97 22.28 7.92 22.28 7.86C22.28 7.81 22.3 7.76 22.33 7.72L22.33 7.72Z" fill="#DEE0E1" fill-opacity="1.000000" fill-rule="evenodd"/>
		<path id="Vector" d="M22.1 6.53L22.1 6.41C21.62 6.32 21.66 5.99 21.66 5.99C21.64 6.05 21.64 6.12 21.65 6.19C21.66 6.26 21.69 6.32 21.74 6.37C21.78 6.42 21.83 6.46 21.9 6.49C21.96 6.52 22.03 6.53 22.1 6.53L22.1 6.53Z" fill="#DEE0E1" fill-opacity="1.000000" fill-rule="evenodd"/>
		<path id="Vector" d="M19.04 11.31L18.87 11.66L19 11.66L19.17 11.31L19.04 11.31Z" fill="#DEE0E1" fill-opacity="1.000000" fill-rule="evenodd"/>
		<path id="Vector" d="M19.3 11.31L19.13 11.66L19.26 11.66L19.43 11.31L19.3 11.31Z" fill="#DEE0E1" fill-opacity="1.000000" fill-rule="evenodd"/>
		<path id="Vector" d="M20.35 11.31L20.17 11.66L20.3 11.66L20.48 11.31L20.35 11.31Z" fill="#DEE0E1" fill-opacity="1.000000" fill-rule="evenodd"/>
		<path id="Vector" d="M20.61 11.31L20.44 11.66L20.57 11.66L20.74 11.31L20.61 11.31Z" fill="#DEE0E1" fill-opacity="1.000000" fill-rule="evenodd"/>
		<path id="Vector" d="M20.09 11.31L19.91 11.66L20.04 11.66L20.22 11.31L20.09 11.31Z" fill="#DEE0E1" fill-opacity="1.000000" fill-rule="evenodd"/>
		<path id="Vector" d="M21.61 11.66L21.74 11.66L21.91 11.31L21.78 11.31L21.61 11.66Z" fill="#DEE0E1" fill-opacity="1.000000" fill-rule="evenodd"/>
		<path id="Vector" d="M19.56 11.31L19.39 11.66L19.52 11.66L19.7 11.31L19.56 11.31Z" fill="#DEE0E1" fill-opacity="1.000000" fill-rule="evenodd"/>
		<path id="Vector" d="M19.83 11.31L19.65 11.66L19.78 11.66L19.96 11.31L19.83 11.31Z" fill="#DEE0E1" fill-opacity="1.000000" fill-rule="evenodd"/>
		<path id="Vector" d="M19.23 9.46C19.22 9.46 19.21 9.46 19.2 9.46C19.19 9.47 19.18 9.48 19.18 9.49C19.17 9.49 19.17 9.51 19.17 9.52C19.17 9.53 19.18 9.54 19.18 9.55C19.19 9.56 19.2 9.56 19.21 9.56C19.22 9.57 19.23 9.57 19.24 9.56C19.25 9.56 19.26 9.55 19.27 9.54C19.28 9.54 19.28 9.52 19.28 9.51C19.28 9.5 19.28 9.49 19.27 9.48C19.26 9.47 19.25 9.46 19.23 9.46Z" fill="#DEE0E1" fill-opacity="1.000000" fill-rule="evenodd"/>
		<path id="Vector" d="M20.19 1.68C20.62 1.67 21.04 1.8 21.39 2.04C21.45 1.77 21.55 1.5 21.7 1.26L21.27 1.31L21.04 0.83L20.61 1.05L20.19 0.64L19.77 1.05L19.33 0.83L19.11 1.31L18.68 1.26C18.83 1.5 18.93 1.76 18.99 2.04C19.34 1.8 19.76 1.67 20.19 1.68ZM19.18 1.49L19.39 1.06L19.78 1.25L20.19 0.85L20.61 1.26L21 1.07L21.19 1.5L21.45 1.46C21.38 1.58 21.33 1.7 21.29 1.83C20.95 1.65 20.57 1.55 20.19 1.55C19.8 1.55 19.43 1.65 19.09 1.83C19.05 1.7 19 1.58 18.93 1.46L19.18 1.49Z" fill="#DEE0E1" fill-opacity="1.000000" fill-rule="evenodd"/>
		<path id="Vector" d="M20.63 0.83C20.64 0.84 20.66 0.83 20.67 0.83C20.69 0.83 20.7 0.82 20.71 0.81C20.72 0.8 20.73 0.79 20.74 0.77C20.75 0.76 20.75 0.75 20.75 0.73C20.74 0.65 20.71 0.58 20.67 0.51C20.67 0.51 20.53 0.65 20.53 0.71C20.52 0.74 20.53 0.77 20.55 0.79C20.57 0.82 20.6 0.83 20.63 0.83L20.63 0.83Z" fill="#DEE0E1" fill-opacity="1.000000" fill-rule="evenodd"/>
		<path id="Vector" d="M21.33 1.09C21.36 1.1 21.39 1.1 21.42 1.09C21.45 1.09 21.47 1.07 21.49 1.04C21.5 0.96 21.51 0.88 21.5 0.8C21.5 0.8 21.31 0.88 21.29 0.94C21.27 0.96 21.27 0.99 21.28 1.02C21.29 1.05 21.31 1.07 21.33 1.09Z" fill="#DEE0E1" fill-opacity="1.000000" fill-rule="evenodd"/>
		<path id="Vector" d="M19.75 0.83C19.78 0.83 19.8 0.82 19.82 0.8C19.84 0.77 19.85 0.74 19.85 0.71C19.85 0.65 19.71 0.51 19.71 0.51C19.67 0.58 19.64 0.65 19.63 0.73C19.63 0.76 19.64 0.79 19.66 0.81C19.69 0.83 19.72 0.84 19.75 0.84L19.75 0.83Z" fill="#DEE0E1" fill-opacity="1.000000" fill-rule="evenodd"/>
		<path id="Vector" d="M19.04 1.09C19.07 1.07 19.09 1.05 19.09 1.02C19.1 0.99 19.1 0.96 19.09 0.94C19.06 0.88 18.88 0.8 18.88 0.8C18.87 0.88 18.87 0.96 18.89 1.04C18.89 1.05 18.9 1.06 18.91 1.07C18.93 1.08 18.94 1.09 18.95 1.09C18.97 1.1 18.98 1.1 19 1.1C19.01 1.1 19.03 1.09 19.04 1.09Z" fill="#DEE0E1" fill-opacity="1.000000" fill-rule="evenodd"/>
		<path id="Vector" d="M27.51 4.91C27.66 4.85 27.78 4.73 27.84 4.59C27.45 4.53 26.44 4.11 25.6 4.45C25.91 4.16 26.2 4.12 26.22 3.7C26.26 3.73 26.3 3.76 26.34 3.77C26.39 3.78 26.43 3.79 26.48 3.78C26.53 3.77 26.57 3.75 26.61 3.73C26.64 3.7 26.68 3.67 26.7 3.63C26.61 3.38 26.39 3.58 26.36 3.51C26.33 3.44 26.64 3.54 26.71 3.21C26.46 3.13 26.39 3.33 26.34 3.28C26.3 3.24 26.5 3.15 26.35 2.9C26.1 3.05 26.23 3.21 26.18 3.23C26.12 3.25 26.16 3.05 25.88 3.06C25.85 3.36 26.15 3.37 26.1 3.42C26.04 3.47 25.96 3.25 25.75 3.37C25.74 3.42 25.75 3.47 25.77 3.51C25.79 3.56 25.82 3.6 25.87 3.63C25.91 3.66 25.95 3.68 26 3.69C26.05 3.7 26.11 3.7 26.16 3.68C26.12 4.15 25.69 4.07 25.38 4.58C26.06 4.92 26.36 5.52 26.78 5.93C26.93 5.77 27.05 5.6 27.15 5.41C27.2 5.46 27.26 5.5 27.33 5.52C27.4 5.55 27.47 5.56 27.54 5.56C27.61 5.56 27.68 5.55 27.75 5.52C27.82 5.5 27.88 5.46 27.93 5.41C27.77 5.25 27.77 5.13 27.53 4.92L27.51 4.91ZM26.87 5C26.92 5.12 26.94 5.25 26.93 5.37C26.91 5.5 26.87 5.62 26.79 5.73C26.59 5.3 26.29 4.92 25.92 4.63C25.85 4.59 25.95 4.52 26.12 4.5C26.64 4.4 27.25 4.62 27.55 4.69C27.43 4.78 27.3 4.83 27.16 4.85C27.34 4.99 27.5 5.15 27.63 5.33C27.43 5.38 27.31 5.26 26.87 5L26.87 5Z" fill="#DEE0E1" fill-opacity="1.000000" fill-rule="evenodd"/>
		<path id="Vector" d="M22.51 12.68L22.51 12.12C21.96 12.36 21.37 12.5 20.77 12.55L20.74 12.75C20.8 12.75 20.88 12.76 20.98 12.77C20.45 12.84 19.91 12.84 19.37 12.77C19.48 12.77 19.56 12.76 19.62 12.75L19.58 12.55C18.99 12.5 18.41 12.36 17.86 12.12L17.86 12.68L17.28 12.92C17.77 13.17 18.29 13.36 18.83 13.49L18.76 13.72C19.71 13.98 20.71 13.98 21.65 13.72L21.58 13.49C22.12 13.36 22.64 13.17 23.13 12.92L22.51 12.68ZM17.59 12.94L17.99 12.78L17.99 12.32C18.35 12.45 18.71 12.55 19.08 12.61L18.85 13.35C18.42 13.25 17.99 13.11 17.59 12.93L17.59 12.94ZM20.19 13.78C19.76 13.78 19.33 13.73 18.91 13.63L19.15 12.86C19.84 12.97 20.54 12.97 21.23 12.86L21.47 13.63C21.05 13.73 20.62 13.78 20.19 13.78L20.19 13.78ZM21.52 13.35L21.29 12.61C21.66 12.54 22.03 12.44 22.38 12.31L22.38 12.77L22.79 12.93C22.38 13.11 21.96 13.25 21.52 13.35L21.52 13.35Z" fill="#DEE0E1" fill-opacity="1.000000" fill-rule="evenodd"/>
		<path id="Vector" d="M13.23 5.4C13.33 5.59 13.46 5.77 13.6 5.92C14.02 5.51 14.33 4.91 15 4.57C14.68 4.05 14.25 4.14 14.23 3.68C14.28 3.69 14.33 3.69 14.38 3.68C14.43 3.68 14.48 3.65 14.51 3.62C14.55 3.59 14.59 3.55 14.61 3.5C14.63 3.46 14.64 3.41 14.63 3.36C14.42 3.24 14.34 3.47 14.29 3.41C14.23 3.35 14.53 3.36 14.5 3.06C14.22 3.06 14.27 3.25 14.2 3.22C14.14 3.2 14.28 3.03 14.03 2.89C13.88 3.16 14.08 3.24 14.04 3.27C14 3.31 13.92 3.12 13.67 3.21C13.74 3.53 14.06 3.4 14.02 3.5C13.97 3.61 13.77 3.37 13.68 3.62C13.7 3.66 13.73 3.69 13.77 3.72C13.81 3.75 13.85 3.76 13.9 3.77C13.94 3.78 13.99 3.78 14.03 3.76C14.08 3.75 14.12 3.73 14.15 3.7C14.18 4.12 14.46 4.15 14.77 4.45C13.94 4.1 12.92 4.52 12.54 4.58C12.6 4.72 12.71 4.84 12.86 4.9C12.62 5.12 12.62 5.24 12.47 5.39C12.47 5.39 12.79 5.73 13.25 5.39L13.23 5.4ZM12.78 5.33C12.91 5.14 13.07 4.98 13.25 4.84C13.11 4.82 12.97 4.77 12.86 4.68C13.15 4.6 13.77 4.39 14.29 4.49C14.46 4.51 14.55 4.58 14.49 4.62C14.12 4.91 13.82 5.29 13.62 5.72C13.54 5.61 13.49 5.49 13.48 5.37C13.46 5.24 13.48 5.11 13.53 4.99C13.09 5.25 12.98 5.37 12.77 5.33L12.78 5.33Z" fill="#DEE0E1" fill-opacity="1.000000" fill-rule="evenodd"/>
		<path id="Vector" d="M19.82 5.08L19.82 5.33C19.85 5.3 19.9 5.28 19.94 5.26C19.98 5.25 20.03 5.25 20.08 5.25L20.08 5.61C20.07 5.7 20.05 5.78 20.01 5.86L20.37 5.86C20.33 5.78 20.3 5.7 20.3 5.61L20.3 5.25C20.35 5.24 20.39 5.25 20.44 5.26C20.48 5.28 20.52 5.3 20.56 5.33L20.56 5.08L19.82 5.08L19.82 5.08Z" fill="#DEE0E1" fill-opacity="1.000000" fill-rule="evenodd"/>
		<path id="Vector" d="M28.13 5.19C28.09 5.15 28.05 5.1 28.02 5.05L27.96 4.96C28.03 4.88 28.08 4.8 28.12 4.71L28.28 4.35L27.88 4.29C27.82 4.28 27.71 4.25 27.58 4.22C27.29 4.14 26.98 4.08 26.68 4.04C26.8 3.98 26.9 3.89 26.97 3.78L27.03 3.66C27.03 3.66 27.01 3.5 26.95 3.44C26.98 3.39 26.99 3.34 27.01 3.28L27.06 3.02L26.81 2.93C26.77 2.92 26.73 2.91 26.69 2.9C26.67 2.85 26.65 2.8 26.62 2.75L26.47 2.48L26.19 2.64C26.13 2.67 26.07 2.72 26.02 2.77C25.98 2.76 25.94 2.76 25.89 2.76C25.78 2.75 25.67 2.77 25.57 2.8L25.35 2.58L25.09 2.31C24.97 2.18 24.83 2.1 24.66 2.06C24.5 2.02 24.33 2.03 24.17 2.1C24.09 2.02 23.99 1.96 23.88 1.92C23.77 1.88 23.65 1.86 23.53 1.87C23.45 1.87 23.36 1.87 23.28 1.89C23.04 1.93 22.81 2.04 22.61 2.19L22.32 2.05C22.19 2.24 22.01 2.38 21.79 2.45C21.77 2.36 21.73 2.28 21.67 2.2L21.69 2.1C21.74 1.86 21.83 1.63 21.96 1.42L22.3 0.89L21.81 0.95C21.82 0.89 21.82 0.84 21.81 0.78L21.77 0.36L21.38 0.54C21.34 0.56 21.3 0.57 21.27 0.59L21.19 0.43L21.01 0.52C20.99 0.47 20.97 0.42 20.94 0.37L20.73 0L20.44 0.3C20.41 0.34 20.39 0.36 20.36 0.39L20.19 0.22L20.01 0.39C19.99 0.36 19.96 0.34 19.94 0.3L19.64 0L19.44 0.37C19.41 0.41 19.39 0.46 19.37 0.51L19.19 0.42L19.11 0.58L19 0.53L18.61 0.36L18.57 0.77C18.57 0.83 18.57 0.89 18.57 0.95L18.07 0.89L18.42 1.42C18.55 1.63 18.64 1.86 18.69 2.1L18.7 2.21C18.65 2.28 18.61 2.36 18.58 2.45C18.38 2.36 18.2 2.22 18.05 2.05L17.76 2.19C17.49 1.98 17.17 1.87 16.84 1.87C16.72 1.86 16.6 1.87 16.49 1.91C16.38 1.95 16.28 2.02 16.2 2.1C16.05 2.04 15.88 2.02 15.71 2.06C15.55 2.1 15.4 2.18 15.29 2.3C15.29 2.3 15.14 2.48 15.03 2.58C14.96 2.65 14.87 2.71 14.78 2.77C14.64 2.74 14.49 2.74 14.35 2.77C14.3 2.71 14.24 2.67 14.17 2.63L13.91 2.48L13.76 2.76C13.73 2.8 13.71 2.85 13.69 2.91C13.65 2.91 13.61 2.92 13.57 2.93L13.32 3.02L13.37 3.28C13.38 3.34 13.4 3.39 13.43 3.45C13.41 3.47 13.4 3.5 13.39 3.53L13.35 3.66L13.41 3.78C13.48 3.89 13.58 3.99 13.7 4.04C13.39 4.08 13.09 4.14 12.8 4.22C12.67 4.26 12.56 4.28 12.49 4.29L12.09 4.35L12.19 4.55L12.26 4.71C12.3 4.81 12.36 4.89 12.42 4.97C12.37 5.05 12.31 5.12 12.25 5.2L12.06 5.4L12.25 5.61C12.33 5.69 12.42 5.75 12.53 5.8C12.63 5.84 12.74 5.86 12.85 5.86C12.95 5.86 13.04 5.85 13.14 5.81C13.22 5.95 13.32 6.07 13.44 6.18C13.25 6.41 13.01 6.59 12.74 6.72L12.48 6.84L12.59 7.13C12.63 7.23 12.69 7.33 12.78 7.4C12.86 7.48 12.96 7.53 13.07 7.56C13.01 7.71 12.97 7.87 12.95 8.03C12.89 8.36 12.86 8.5 12.56 8.6L12.29 8.69L12.36 8.96C12.4 9.14 12.49 9.31 12.62 9.44L12.44 9.63C12.69 9.81 12.98 9.93 13.28 9.98C13.38 9.99 13.47 9.98 13.56 9.95C13.65 9.92 13.74 9.87 13.81 9.81C13.87 10.02 13.96 10.23 14.07 10.44C14.26 10.83 14.36 11.06 14.23 11.27L13.94 11.75L14.51 11.73C14.74 11.73 14.97 11.7 15.19 11.66C15.19 11.67 15.19 11.68 15.19 11.69L15.14 12.1L15.63 12C15.69 11.98 15.73 11.96 15.78 11.94C15.97 12.15 16.21 12.31 16.47 12.42C16.74 12.53 17.02 12.58 17.31 12.57L17.35 12.57L16.54 12.89L17.12 13.19C17.54 13.4 17.98 13.57 18.43 13.7L18.36 13.93L18.65 14.01C19.66 14.29 20.72 14.29 21.72 14.01L22.01 13.93L21.94 13.7C22.39 13.57 22.83 13.4 23.25 13.19L23.83 12.89L23.03 12.56L23.07 12.56C23.35 12.57 23.64 12.52 23.9 12.41C24.16 12.31 24.4 12.14 24.59 11.94C24.64 11.96 24.69 11.98 24.74 12L25.23 12.1L25.18 11.69C25.18 11.68 25.18 11.67 25.18 11.66C25.41 11.7 25.63 11.73 25.86 11.73L26.42 11.75L26.14 11.28C26.01 11.06 26.11 10.83 26.3 10.44C26.4 10.24 26.49 10.02 26.56 9.81C26.66 9.88 26.78 9.94 26.9 9.96C26.96 9.98 27.02 9.99 27.08 9.99C27.27 10 27.47 9.94 27.62 9.82L27.93 9.63L27.75 9.44C27.88 9.31 27.97 9.15 28.01 8.98L28.09 8.71L27.81 8.61C27.51 8.51 27.49 8.37 27.43 8.04C27.4 7.88 27.37 7.72 27.32 7.57C27.43 7.54 27.53 7.49 27.61 7.41C27.69 7.33 27.75 7.24 27.79 7.14L27.9 6.85L27.65 6.73C27.37 6.6 27.13 6.42 26.94 6.19C27.06 6.08 27.17 5.96 27.25 5.82C27.34 5.86 27.44 5.87 27.54 5.87C27.65 5.87 27.76 5.85 27.86 5.81C27.96 5.76 28.05 5.7 28.13 5.62L28.32 5.41L28.13 5.19Z" fill="#FFFFFF" fill-opacity="1.000000" fill-rule="nonzero"/>
		<path id="Vector" d="M17.7 8.9L17.7 6.61C17.7 6.39 17.65 6.18 17.57 5.98L19.37 5.98C19.47 6.1 19.6 6.19 19.74 6.26C19.88 6.32 20.03 6.36 20.19 6.36C20.34 6.36 20.49 6.32 20.63 6.26C20.77 6.19 20.9 6.1 21 5.98L22.81 5.98C22.72 6.18 22.68 6.39 22.67 6.61L22.67 8.9L17.7 8.9ZM20.19 12.04C19.94 11.79 19.76 11.77 19.08 11.77C18.26 11.77 17.72 11.3 17.72 10.54L17.72 9.03L22.68 9.03L22.68 10.54C22.68 11.29 22.13 11.76 21.32 11.76C20.64 11.76 20.46 11.79 20.21 12.04L20.19 12.04Z" fill="#FCE527" fill-opacity="1.000000" fill-rule="evenodd"/>
		<path id="Vector" d="M17.99 12.32L17.99 12.78L17.59 12.94C17.99 13.12 18.42 13.26 18.85 13.36L19.08 12.61C18.71 12.54 18.35 12.44 17.99 12.31L17.99 12.32Z" fill="#FFFFFF" fill-opacity="1.000000" fill-rule="nonzero"/>
		<path id="Vector" d="M20.19 12.94C19.84 12.94 19.49 12.91 19.15 12.85L18.91 13.62C19.75 13.83 20.63 13.83 21.47 13.62L21.23 12.85C20.89 12.91 20.54 12.94 20.19 12.94Z" fill="#FFFFFF" fill-opacity="1.000000" fill-rule="nonzero"/>
		<path id="Vector" d="M22.38 12.32C22.03 12.45 21.66 12.55 21.29 12.61L21.52 13.35C21.96 13.25 22.38 13.11 22.78 12.93L22.38 12.77L22.38 12.32Z" fill="#FFFFFF" fill-opacity="1.000000" fill-rule="nonzero"/>
		<path id="Vector" d="M17.15 4.93C17.78 4.58 19.33 3.85 18.28 3.05C18.13 2.95 17.98 2.85 17.84 2.73C17.68 2.85 17.91 3.16 17.96 3.27C17.96 3.27 17.61 3.31 17.53 3.31C16.99 3.31 16.42 2.99 16.71 2.39C16.5 2.43 16.47 2.63 16.41 2.81C16.27 2.72 16.03 2.52 15.84 2.55C15.99 3.02 16.62 3.44 17.11 3.54C16.62 3.81 15.7 4 15.22 3.43C14.88 4.08 15.35 4.35 15.82 4.68C14.06 5.47 14.31 6.36 13.16 7.06C13.31 7.13 13.98 6.99 14.04 6.98C13.87 7.17 13.72 7.37 13.59 7.59C13.5 7.8 13.45 8.03 13.42 8.26C13.4 8.41 13.35 8.56 13.26 8.69C13.17 8.82 13.05 8.93 12.92 9C13.05 9.24 13.35 9.05 13.48 9.02C13.45 9.18 13.39 9.34 13.31 9.48C13.9 9.44 13.62 8.21 14.22 8.51C14.26 8.53 14.29 8.55 14.32 8.59C14.35 8.62 14.37 8.66 14.38 8.7C14.4 8.74 14.4 8.78 14.4 8.82C14.4 8.86 14.38 8.91 14.36 8.94C13.98 9.74 14.86 10.43 14.81 11.13C15.03 11.13 15.26 11.13 15.4 10.83C15.49 11.01 15.58 11.19 15.65 11.37L15.82 11.08C15.89 11.35 16.05 11.59 16.26 11.77C16.48 11.94 16.75 12.05 17.03 12.06C16.73 11.6 17.09 10.96 16.36 10.28C16.5 10.19 16.62 10.08 16.74 9.97C15.84 10.08 14.91 9.38 15.33 9.05C15.61 8.83 15.73 9.28 16.16 9.2L15.99 9.06C16.05 9 16.12 8.93 16.19 8.87C16.05 8.85 15.92 8.8 15.8 8.74L15.91 8.56C14.86 8.56 14.83 7.77 15.26 7.74C15.45 7.72 15.71 8.08 16.36 8.01C16.29 7.9 16.24 7.78 16.21 7.65C16.37 7.66 16.54 7.63 16.69 7.57C16.38 7.53 16.3 7.43 16.03 7.23L16.34 7.12C15.92 6.9 15.94 6.52 15.92 6.13C16.15 6.26 16.42 6.46 16.71 6.37C16.78 6.35 16.82 6.31 16.83 6.24C16.41 6.08 16.15 5.45 17.14 4.93L17.15 4.93ZM16.38 4.99C15.83 5.57 16.07 5.92 16.19 6.03C15.98 5.98 15.67 5.73 15.74 5.47C15.68 5.55 15.61 5.64 15.55 5.72C15.41 5.9 15.29 6.08 15.18 6.25C15.01 6.74 15.32 7.25 15.84 7.48C15.62 7.45 15.41 7.34 15.25 7.17C15.1 7 15.01 6.79 15 6.56C14.75 6.98 14.61 7.46 14.6 7.95C14.61 8.08 14.62 8.22 14.64 8.36C14.78 8.61 14.99 8.7 15.37 8.74C15.03 8.76 14.84 8.74 14.69 8.59C14.93 9.59 16.03 10.46 16.49 11.21C16.04 10.63 15.1 9.77 14.77 9.15C14.75 9.55 14.86 9.96 15.09 10.29C14.67 9.89 14.64 9.27 14.67 8.91C14.56 8.64 14.49 8.34 14.49 8.04C14.48 7.77 14.5 7.5 14.55 7.24C14.28 7.61 13.9 7.75 13.71 8.31C13.75 7.59 14.29 7.57 14.71 6.69C14.89 6.3 15.11 5.94 15.36 5.59C14.99 5.69 14.66 5.89 14.41 6.18C14.68 5.56 16.23 4.85 16.94 4.17C16.72 4.22 15.85 4.24 15.49 4C16.15 4.18 17.61 3.98 18.15 3.61C17.77 4.14 16.95 4.18 15.94 5.25C16.08 5.14 16.24 5.05 16.4 4.97L16.38 4.99Z" fill="#FFFFFF" fill-opacity="1.000000" fill-rule="nonzero"/>
		<path id="Vector" d="M26.95 8.26C26.92 8.03 26.86 7.8 26.78 7.59C26.65 7.37 26.5 7.17 26.34 6.98C26.4 6.98 27.06 7.12 27.21 7.06C26.06 6.36 26.32 5.47 24.56 4.68C25.02 4.34 25.49 4.07 25.16 3.43C24.67 4 23.76 3.81 23.26 3.54C23.75 3.44 24.38 3.01 24.53 2.54C24.34 2.52 24.11 2.71 23.97 2.8C23.9 2.63 23.88 2.42 23.67 2.38C23.95 2.99 23.39 3.3 22.85 3.3C22.76 3.3 22.42 3.27 22.42 3.27C22.47 3.16 22.7 2.85 22.53 2.72C22.4 2.85 22.24 2.94 22.1 3.05C21.05 3.85 22.6 4.59 23.23 4.93C24.23 5.45 23.96 6.07 23.55 6.24C23.55 6.31 23.59 6.35 23.66 6.37C23.95 6.46 24.22 6.26 24.45 6.13C24.44 6.52 24.47 6.89 24.03 7.12L24.33 7.23C24.07 7.42 23.99 7.53 23.67 7.57C23.83 7.63 24 7.66 24.16 7.65C24.13 7.78 24.08 7.9 24.01 8.01C24.65 8.09 24.91 7.72 25.11 7.74C25.54 7.77 25.51 8.56 24.46 8.56L24.57 8.74C24.45 8.8 24.32 8.85 24.18 8.87C24.25 8.93 24.32 9 24.37 9.06L24.21 9.2C24.63 9.28 24.76 8.82 25.04 9.05C25.46 9.38 24.52 10.08 23.63 9.97C23.75 10.08 23.87 10.19 24.01 10.28C23.28 10.96 23.63 11.6 23.34 12.07C23.62 12.05 23.89 11.94 24.1 11.77C24.32 11.59 24.47 11.35 24.54 11.08L24.72 11.37C24.79 11.19 24.87 11.01 24.97 10.83C25.11 11.12 25.34 11.13 25.55 11.13C25.51 10.43 26.39 9.74 26 8.94C25.98 8.91 25.97 8.86 25.96 8.82C25.96 8.78 25.97 8.74 25.98 8.7C25.99 8.66 26.01 8.62 26.04 8.59C26.07 8.55 26.1 8.53 26.14 8.51C26.73 8.21 26.46 9.44 27.05 9.48C26.97 9.34 26.91 9.18 26.88 9.02C27.01 9.05 27.31 9.24 27.44 9C27.3 8.93 27.19 8.82 27.1 8.69C27.01 8.56 26.96 8.41 26.94 8.26L26.95 8.26ZM25.83 7.25C25.88 7.51 25.9 7.78 25.89 8.05C25.88 8.35 25.82 8.65 25.71 8.93C25.74 9.29 25.71 9.9 25.29 10.31C25.52 9.97 25.63 9.57 25.61 9.16C25.28 9.78 24.34 10.64 23.89 11.22C24.34 10.48 25.44 9.61 25.69 8.6C25.53 8.76 25.35 8.78 25 8.76C25.39 8.71 25.6 8.62 25.73 8.37C25.76 8.24 25.77 8.1 25.77 7.96C25.76 7.47 25.62 6.99 25.37 6.57C25.36 6.8 25.27 7.01 25.12 7.18C24.97 7.35 24.76 7.46 24.53 7.49C25.05 7.27 25.36 6.76 25.19 6.27C25.09 6.09 24.96 5.92 24.83 5.74C24.76 5.65 24.69 5.57 24.63 5.49C24.7 5.74 24.39 6 24.19 6.04C24.3 5.93 24.54 5.58 23.99 5C24.15 5.08 24.31 5.17 24.45 5.27C23.44 4.2 22.62 4.17 22.23 3.64C22.79 4.01 24.24 4.21 24.9 4.03C24.54 4.27 23.66 4.25 23.45 4.2C24.16 4.88 25.71 5.59 25.98 6.21C25.73 5.92 25.4 5.71 25.03 5.62C25.28 5.97 25.5 6.33 25.68 6.72C26.09 7.6 26.65 7.61 26.68 8.34C26.49 7.77 26.11 7.63 25.84 7.26L25.83 7.25Z" fill="#FFFFFF" fill-opacity="1.000000" fill-rule="nonzero"/>
		<path id="Vector" d="M21 5.98C20.9 6.1 20.78 6.2 20.64 6.27C20.5 6.33 20.34 6.37 20.19 6.36C20.11 6.36 20.03 6.35 19.96 6.34C19.98 6.45 20.04 6.54 20.13 6.61C20.11 6.67 20.11 6.74 20.12 6.8C20.13 6.86 20.15 6.92 20.19 6.98C20.22 7.03 20.27 7.08 20.32 7.12C20.37 7.15 20.43 7.18 20.49 7.19C20.51 7.26 20.54 7.32 20.59 7.37C20.63 7.42 20.69 7.46 20.76 7.48L20.56 7.71C20.53 7.75 20.49 7.78 20.44 7.8C20.4 7.82 20.35 7.83 20.3 7.82L19.39 7.72C19.43 7.62 19.32 7.51 19.03 7.56L19.39 6.57L19.16 6.11L18.75 6.46L18.72 7.5L18.54 7.41C18.31 7.31 18.24 7.72 18.46 7.73L18.55 7.73C18.55 7.75 18.55 7.77 18.56 7.79C18.56 7.8 18.58 7.82 18.59 7.83C18.58 7.84 18.57 7.85 18.57 7.86C18.56 7.87 18.56 7.88 18.56 7.89C18.56 7.9 18.56 7.92 18.57 7.93C18.57 7.94 18.58 7.95 18.59 7.95C18.58 7.96 18.57 7.97 18.56 7.98C18.56 7.99 18.55 8 18.55 8.02C18.55 8.03 18.55 8.04 18.56 8.05C18.56 8.07 18.57 8.08 18.58 8.09C18.56 8.11 18.55 8.14 18.55 8.17C18.55 8.2 18.55 8.23 18.56 8.25C18.57 8.28 18.59 8.31 18.61 8.33C18.63 8.35 18.65 8.36 18.68 8.37C18.82 8.4 18.9 8.26 18.92 8.18L20.34 8.61C20.43 8.64 20.52 8.65 20.61 8.63C20.71 8.6 20.79 8.56 20.85 8.49L21.22 8.17C21.19 8.26 21.2 8.35 21.23 8.44C21.27 8.52 21.33 8.59 21.42 8.63C21.4 8.72 21.4 8.81 21.4 8.9L22.68 8.9L22.68 6.61C22.68 6.39 22.73 6.18 22.81 5.98L21 5.98L21 5.98Z" fill="#FFFFFF" fill-opacity="1.000000" fill-rule="nonzero"/>
		<path id="Vector" d="M18.88 9.84L18.9 9.88C18.94 9.92 18.96 9.91 19.01 9.89L19.07 9.85C19.11 9.82 19.38 9.92 19.39 9.71C19.42 9.87 19.23 10.21 19.34 10.4L19.5 10.65L18.98 10.65C18.96 10.65 18.94 10.66 18.92 10.67C18.91 10.68 18.89 10.7 18.88 10.72L18.75 10.99C18.73 11.02 18.73 11.06 18.73 11.09C18.73 11.12 18.74 11.16 18.76 11.18L18.85 11.29C18.9 11.25 18.93 11.2 18.95 11.14L18.91 11.1C18.89 11.09 18.88 11.07 18.88 11.05C18.88 11.03 18.88 11.01 18.89 11L18.98 10.83C18.98 10.81 18.99 10.8 19 10.79C19.01 10.78 19.02 10.77 19.03 10.77C19.04 10.76 19.06 10.76 19.07 10.76C19.09 10.75 19.1 10.76 19.11 10.76L19.53 10.85C19.56 10.85 19.61 10.87 19.64 10.82C19.67 10.78 19.7 10.76 19.74 10.74C19.79 10.73 19.83 10.73 19.88 10.74C20.1 10.78 20.63 10.83 20.82 10.61C21.04 10.9 21.48 10.9 21.45 11.05L21.36 11.57L21.49 11.57L21.58 11.06C21.58 11 21.62 10.92 21.56 10.87C21.53 10.85 21.52 10.84 21.46 10.73C21.38 10.6 21.38 10.39 21.31 10.22C21.33 10.18 21.36 10.16 21.4 10.14C21.44 10.12 21.48 10.12 21.52 10.12C21.68 10.16 21.72 10.42 21.94 10.63C21.92 10.53 21.89 10.43 21.85 10.34C21.93 10.41 22 10.49 22.04 10.59C22.05 10.63 22.06 10.67 22.08 10.7C22.11 10.73 22.13 10.76 22.17 10.78C22.22 10.8 22.28 10.78 22.34 10.7C22.34 10.7 22.2 10.51 22.09 10.37C22.03 10.27 21.94 10.19 21.84 10.13C21.74 10.07 21.62 10.04 21.5 10.03C21.41 10.04 21.33 10.08 21.26 10.12C20.96 9.96 20.73 10.12 20.64 10.12L20.09 10.09C20.01 10.07 19.94 10.02 19.89 9.96C19.9 9.81 19.85 9.66 19.75 9.54C19.65 9.42 19.52 9.34 19.37 9.31C19.37 9.31 19.38 9.22 19.35 9.2L19.23 9.34L18.91 9.22L19.16 9.43L18.89 9.75C18.88 9.76 18.87 9.77 18.87 9.79C18.87 9.8 18.87 9.82 18.88 9.83L18.88 9.84Z" fill="#FFFFFF" fill-opacity="1.000000" fill-rule="nonzero"/>
		<path id="Vector" d="M18.51 10.49C18.43 10.55 18.44 10.63 18.49 10.73L18.53 10.81L18.65 10.72L18.63 10.66C18.62 10.64 18.61 10.62 18.61 10.6C18.62 10.58 18.63 10.56 18.64 10.55L18.82 10.42C18.83 10.41 18.85 10.4 18.87 10.39C18.89 10.39 18.91 10.39 18.93 10.39L19.3 10.47C19.27 10.42 19.24 10.36 19.23 10.31L18.88 10.26C18.86 10.26 18.84 10.26 18.82 10.27C18.79 10.28 18.77 10.29 18.76 10.31L18.51 10.49Z" fill="#FFFFFF" fill-opacity="1.000000" fill-rule="nonzero"/>
		<path id="Vector" d="M20.86 11.57L21 11.57L21.23 11.03C21.23 11.01 21.24 11 21.25 10.98C21.17 10.95 21.09 10.91 21.01 10.87C21.07 10.94 21.11 10.97 21.09 11.04L20.86 11.57Z" fill="#FFFFFF" fill-opacity="1.000000" fill-rule="nonzero"/>
		<path id="Vector" d="M20.98 4.25L21.24 2.79L20.27 3.12L20.27 4.62L20.98 4.25ZM20.43 3.27L21.08 3.03C21.08 3.03 20.95 3.13 20.8 3.23C20.68 3.31 20.56 3.37 20.43 3.43L20.43 3.27ZM20.43 3.62L21.01 3.41C20.94 3.48 20.87 3.53 20.79 3.59C20.67 3.66 20.55 3.72 20.42 3.78L20.43 3.62ZM20.43 4L20.95 3.81C20.95 3.81 20.95 3.87 20.8 3.97C20.68 4.05 20.56 4.11 20.43 4.16L20.43 4Z" fill="#FFFFFF" fill-opacity="1.000000" fill-rule="nonzero"/>
		<path id="Vector" d="M19.24 5.54L19.27 5.57L19.46 5.57L19.46 5.61C19.46 5.64 19.47 5.68 19.48 5.71C19.52 5.82 19.59 5.91 19.68 5.98C19.82 6.09 20 6.15 20.18 6.14C20.66 6.14 20.88 5.83 20.9 5.61L20.9 5.57L21.09 5.57L21.11 5.54C21.31 5.25 21.53 4.92 21.8 4.88L21.07 4.46L20.19 4.94L19.29 4.46L18.56 4.87C18.83 4.92 19.06 5.25 19.25 5.54L19.24 5.54Z" fill="#FFFFFF" fill-opacity="1.000000" fill-rule="nonzero"/>
		<path id="Vector" d="M20.11 4.62L20.11 3.12L19.14 2.79L19.4 4.25L20.11 4.62ZM19.95 4.15C19.82 4.09 19.7 4.03 19.58 3.96C19.43 3.86 19.43 3.79 19.43 3.79L19.95 3.98L19.95 4.15ZM19.95 3.26L19.95 3.42C19.82 3.37 19.7 3.3 19.58 3.23C19.43 3.13 19.3 3.03 19.3 3.03L19.95 3.26ZM19.95 3.62L19.95 3.77C19.82 3.72 19.7 3.65 19.58 3.58C19.5 3.53 19.42 3.47 19.36 3.4L19.95 3.62Z" fill="#FFFFFF" fill-opacity="1.000000" fill-rule="nonzero"/>
		<path id="Vector" d="M20.19 2.15C19.63 2.15 19.22 2.33 19.12 2.53L20.19 2.95L21.25 2.54C21.16 2.33 20.75 2.16 20.19 2.16L20.19 2.15Z" fill="#FFFFFF" fill-opacity="1.000000" fill-rule="nonzero"/>
		<path id="Vector" d="M20.19 1.55C20.57 1.55 20.95 1.65 21.29 1.83C21.33 1.7 21.38 1.58 21.45 1.46L21.2 1.5L21 1.07L20.61 1.26L20.19 0.86L19.77 1.27L19.38 1.08L19.18 1.5L18.93 1.46C19 1.58 19.05 1.7 19.09 1.83C19.43 1.65 19.81 1.55 20.19 1.55Z" fill="#FFFFFF" fill-opacity="1.000000" fill-rule="nonzero"/>
		<path id="Vector" d="M27.14 4.85C27.28 4.83 27.42 4.78 27.53 4.69C27.24 4.61 26.63 4.39 26.11 4.5C25.94 4.52 25.84 4.59 25.9 4.63C26.28 4.92 26.57 5.3 26.77 5.73C26.85 5.63 26.89 5.51 26.91 5.38C26.92 5.25 26.9 5.12 26.85 5C27.3 5.27 27.41 5.39 27.61 5.34C27.48 5.16 27.32 5 27.14 4.86L27.14 4.85Z" fill="#FFFFFF" fill-opacity="1.000000" fill-rule="nonzero"/>
		<path id="Vector" d="M13.6 5.73C13.8 5.3 14.1 4.92 14.48 4.63C14.54 4.59 14.44 4.52 14.27 4.5C13.75 4.4 13.14 4.62 12.85 4.69C12.96 4.78 13.1 4.84 13.24 4.85C13.06 4.99 12.9 5.15 12.76 5.34C12.97 5.39 13.08 5.26 13.52 5C13.47 5.12 13.46 5.25 13.47 5.37C13.49 5.5 13.53 5.62 13.61 5.73L13.6 5.73Z" fill="#FFFFFF" fill-opacity="1.000000" fill-rule="nonzero"/>
		<path id="Vector" d="M16.65 10.32C16.85 10.16 17.02 10.08 17.02 9.7C16.71 9.85 15.85 9.85 15.49 9.36C15.38 9.22 15.49 9.15 15.59 9.26C15.84 9.53 16.3 9.41 16.46 9.33C16.43 9.22 16.38 9.13 16.31 9.05C16.37 8.99 16.55 8.9 16.58 8.74C16.43 8.7 16.27 8.67 16.11 8.66C16.16 8.62 16.19 8.56 16.21 8.5C16.23 8.44 16.22 8.37 16.2 8.32C15.82 8.43 15.36 8.28 15.26 8.14C15.15 8 15.26 7.88 15.35 7.97C15.54 8.16 16.45 8.38 16.79 8.05C16.67 8.02 16.57 7.94 16.5 7.83C16.82 7.8 17.07 7.62 17.08 7.39C16.87 7.4 16.66 7.37 16.47 7.3C16.54 7.28 16.6 7.25 16.65 7.2C16.71 7.15 16.74 7.09 16.76 7.02C16.18 6.98 16.14 6.56 16.13 6.49C16.51 6.7 17.17 6.61 17 6.08C16.69 6.07 16.37 5.57 17.23 5.11C18.01 4.69 18.91 4.24 18.83 3.5C18.78 3.03 17.98 2.7 17.89 2.46C17.56 2.62 17.5 2.8 17.64 3.1C17.64 3.1 16.9 3.17 16.84 2.72C16.84 2.62 16.86 2.52 16.91 2.42C16.95 2.33 17.02 2.25 17.1 2.19C17.01 2.19 16.46 2.04 16.29 2.48C15.98 2.28 15.71 2.28 15.5 2.5C15.84 2.69 16.05 3.37 16.6 3.57C16.21 3.78 15.57 3.69 15.2 3.04C14.85 3.57 14.64 4.08 15.39 4.63C14.02 5.25 14.03 6.42 12.84 6.98C12.96 7.3 13.21 7.3 13.54 7.25C13.02 7.91 13.46 8.6 12.64 8.89C12.72 9.16 12.88 9.37 13.18 9.29C13.09 9.42 13.03 9.42 12.9 9.56C13.35 9.84 13.87 9.64 14 8.75C14.02 8.59 14.24 8.69 14.16 8.85C13.65 9.88 14.94 10.66 14.49 11.42C14.89 11.41 15.19 11.38 15.36 11.24C15.44 11.39 15.48 11.55 15.47 11.72C15.55 11.71 15.63 11.67 15.69 11.61C15.75 11.55 15.78 11.48 15.79 11.39C15.94 11.81 16.45 12.26 17.29 12.26C16.86 11.65 17.28 11.02 16.65 10.32ZM15.83 11.08L15.65 11.38C15.58 11.19 15.5 11.01 15.4 10.84C15.26 11.13 15.03 11.13 14.82 11.13C14.86 10.43 13.98 9.74 14.36 8.94C14.38 8.91 14.4 8.86 14.4 8.82C14.4 8.78 14.4 8.74 14.39 8.7C14.37 8.66 14.35 8.62 14.32 8.59C14.3 8.55 14.26 8.53 14.22 8.51C13.63 8.21 13.91 9.44 13.31 9.48C13.39 9.34 13.45 9.18 13.49 9.02C13.36 9.05 13.06 9.24 12.92 9C13.06 8.93 13.18 8.82 13.27 8.69C13.35 8.56 13.41 8.41 13.42 8.26C13.45 8.03 13.51 7.8 13.59 7.59C13.71 7.37 13.86 7.17 14.03 6.98C13.97 6.98 13.3 7.12 13.15 7.06C14.31 6.36 14.05 5.47 15.81 4.68C15.34 4.34 14.87 4.07 15.21 3.43C15.69 4 16.61 3.81 17.1 3.54C16.62 3.44 15.99 3.01 15.84 2.54C16.02 2.52 16.26 2.71 16.4 2.8C16.46 2.63 16.49 2.42 16.7 2.38C16.42 2.99 16.98 3.3 17.52 3.3C17.61 3.3 17.96 3.27 17.96 3.27C17.9 3.16 17.67 2.85 17.84 2.72C17.97 2.85 18.13 2.94 18.27 3.05C19.32 3.85 17.77 4.59 17.14 4.93C16.15 5.45 16.41 6.08 16.82 6.24C16.82 6.31 16.78 6.35 16.71 6.37C16.42 6.46 16.15 6.26 15.92 6.13C15.93 6.52 15.9 6.89 16.35 7.12L16.04 7.23C16.3 7.42 16.38 7.53 16.7 7.57C16.54 7.62 16.38 7.65 16.21 7.65C16.24 7.78 16.29 7.9 16.37 8.01C15.72 8.08 15.46 7.72 15.26 7.74C14.83 7.77 14.86 8.56 15.91 8.56L15.8 8.73C15.92 8.8 16.06 8.85 16.19 8.87C16.12 8.92 16.06 9 16 9.06L16.16 9.2C15.74 9.28 15.62 8.82 15.34 9.04C14.91 9.38 15.85 10.07 16.74 9.97C16.63 10.08 16.5 10.18 16.37 10.28C17.1 10.96 16.74 11.6 17.04 12.06C16.76 12.05 16.49 11.94 16.27 11.76C16.05 11.59 15.9 11.35 15.83 11.08L15.83 11.08Z" fill="#222220" fill-opacity="1.000000" fill-rule="evenodd"/>
		<path id="Vector" d="M14.68 8.6C14.83 8.76 15.02 8.77 15.36 8.75C14.98 8.7 14.77 8.61 14.63 8.37C14.61 8.23 14.6 8.09 14.6 7.95C14.61 7.47 14.74 6.99 14.99 6.57C15 6.79 15.09 7.01 15.25 7.18C15.4 7.34 15.61 7.45 15.84 7.49C15.31 7.26 15.01 6.75 15.17 6.26C15.28 6.09 15.41 5.91 15.54 5.73C15.61 5.64 15.68 5.56 15.74 5.48C15.67 5.73 15.97 5.99 16.18 6.04C16.07 5.93 15.83 5.58 16.37 5C16.21 5.07 16.06 5.16 15.92 5.27C16.92 4.2 17.75 4.17 18.13 3.63C17.6 3.99 16.14 4.2 15.49 4.01C15.85 4.25 16.72 4.23 16.93 4.18C16.22 4.86 14.67 5.56 14.41 6.19C14.65 5.9 14.98 5.69 15.36 5.6C15.1 5.94 14.88 6.31 14.71 6.7C14.29 7.58 13.74 7.59 13.71 8.32C13.9 7.76 14.28 7.61 14.54 7.24C14.49 7.51 14.47 7.78 14.48 8.04C14.49 8.35 14.55 8.64 14.66 8.92C14.64 9.28 14.66 9.9 15.09 10.3C14.86 9.96 14.74 9.56 14.77 9.15C15.09 9.78 16.03 10.64 16.48 11.21C16.03 10.47 14.93 9.6 14.69 8.6L14.68 8.6Z" fill="#222220" fill-opacity="1.000000" fill-rule="evenodd"/>
		<path id="Vector" d="M25.03 5.61C25.4 5.7 25.73 5.91 25.97 6.2C25.71 5.57 24.15 4.87 23.45 4.19C23.66 4.23 24.53 4.26 24.89 4.02C24.24 4.19 22.78 3.99 22.23 3.62C22.62 4.16 23.44 4.2 24.44 5.26C24.3 5.15 24.15 5.06 23.99 4.99C24.54 5.57 24.3 5.92 24.18 6.03C24.39 5.98 24.7 5.72 24.63 5.47C24.69 5.55 24.76 5.64 24.82 5.72C24.96 5.9 25.08 6.08 25.19 6.25C25.36 6.74 25.05 7.25 24.53 7.48C24.75 7.45 24.96 7.34 25.12 7.17C25.27 7 25.36 6.78 25.37 6.56C25.62 6.98 25.76 7.46 25.77 7.95C25.76 8.08 25.75 8.22 25.73 8.36C25.59 8.61 25.38 8.7 25 8.74C25.35 8.76 25.53 8.74 25.68 8.59C25.44 9.59 24.33 10.46 23.88 11.21C24.34 10.63 25.27 9.77 25.6 9.15C25.62 9.55 25.51 9.96 25.28 10.29C25.7 9.89 25.73 9.27 25.7 8.91C25.81 8.63 25.88 8.34 25.88 8.04C25.89 7.77 25.87 7.5 25.82 7.24C26.09 7.61 26.47 7.75 26.66 8.31C26.62 7.59 26.08 7.57 25.66 6.69C25.48 6.3 25.26 5.94 25.01 5.59L25.03 5.61Z" fill="#222220" fill-opacity="1.000000" fill-rule="evenodd"/>
		<path id="Vector" d="M26.82 7.26C27.14 7.31 27.4 7.31 27.52 6.99C26.33 6.43 26.34 5.26 24.97 4.64C25.72 4.09 25.52 3.57 25.16 3.05C24.79 3.7 24.15 3.79 23.76 3.58C24.31 3.39 24.52 2.71 24.85 2.51C24.66 2.29 24.38 2.29 24.07 2.48C23.9 2.04 23.35 2.18 23.27 2.18C23.35 2.25 23.41 2.33 23.46 2.42C23.5 2.51 23.52 2.61 23.52 2.71C23.47 3.16 22.73 3.1 22.73 3.1C22.88 2.79 22.81 2.61 22.48 2.46C22.38 2.7 21.59 3.02 21.54 3.5C21.46 4.24 22.35 4.69 23.13 5.11C23.99 5.56 23.68 6.06 23.37 6.08C23.19 6.61 23.85 6.7 24.23 6.49C24.23 6.56 24.18 6.98 23.61 7.01C23.62 7.08 23.66 7.14 23.71 7.19C23.77 7.24 23.83 7.27 23.9 7.29C23.71 7.37 23.49 7.4 23.28 7.39C23.3 7.61 23.56 7.8 23.87 7.83C23.8 7.93 23.7 8.01 23.57 8.04C23.92 8.38 24.84 8.16 25.02 7.97C25.11 7.88 25.22 8 25.11 8.14C25 8.27 24.54 8.43 24.17 8.31C24.15 8.37 24.15 8.44 24.16 8.5C24.18 8.56 24.22 8.62 24.27 8.66C24.11 8.67 23.96 8.7 23.81 8.74C23.84 8.9 24.02 8.99 24.08 9.05C24.01 9.12 23.95 9.22 23.92 9.32C24.09 9.4 24.55 9.52 24.79 9.25C24.89 9.14 25 9.21 24.9 9.35C24.54 9.84 23.67 9.85 23.37 9.69C23.37 10.08 23.53 10.15 23.73 10.31C23.11 11.02 23.52 11.65 23.08 12.27C23.91 12.27 24.44 11.82 24.57 11.4C24.58 11.48 24.62 11.56 24.67 11.62C24.73 11.68 24.81 11.72 24.89 11.72C24.88 11.56 24.92 11.39 25.01 11.25C25.17 11.39 25.48 11.42 25.88 11.43C25.43 10.67 26.71 9.89 26.2 8.86C26.13 8.7 26.35 8.6 26.37 8.76C26.49 9.65 27.02 9.85 27.47 9.57C27.33 9.43 27.27 9.43 27.19 9.3C27.49 9.38 27.65 9.16 27.72 8.89C26.91 8.61 27.35 7.92 26.83 7.26L26.82 7.26ZM26.9 9.03C26.93 9.19 26.99 9.34 27.07 9.48C26.48 9.45 26.75 8.21 26.16 8.51C26.08 8.55 26.02 8.62 26 8.7C25.97 8.78 25.98 8.87 26.02 8.94C26.4 9.73 25.52 10.43 25.57 11.13C25.35 11.13 25.12 11.13 24.99 10.83C24.89 11.01 24.8 11.19 24.73 11.37L24.56 11.08C24.49 11.35 24.34 11.59 24.12 11.77C23.9 11.94 23.63 12.05 23.35 12.07C23.65 11.6 23.29 10.96 24.02 10.28C23.89 10.19 23.76 10.08 23.65 9.97C24.54 10.08 25.48 9.38 25.05 9.05C24.77 8.83 24.65 9.28 24.23 9.2L24.39 9.06C24.33 9 24.27 8.93 24.2 8.87C24.33 8.85 24.47 8.8 24.59 8.73L24.48 8.56C25.53 8.56 25.55 7.77 25.13 7.74C24.93 7.72 24.67 8.08 24.02 8.01C24.09 7.9 24.15 7.78 24.18 7.65C24.01 7.65 23.85 7.63 23.69 7.57C24.01 7.53 24.08 7.43 24.35 7.23L24.04 7.12C24.49 6.9 24.46 6.52 24.47 6.13C24.24 6.26 23.97 6.46 23.68 6.37C23.61 6.35 23.57 6.31 23.57 6.24C23.98 6.08 24.24 5.45 23.25 4.93C22.62 4.59 21.07 3.85 22.12 3.05C22.26 2.94 22.42 2.84 22.55 2.72C22.72 2.85 22.49 3.16 22.43 3.27C22.43 3.27 22.78 3.3 22.87 3.3C23.41 3.3 23.97 2.99 23.69 2.38C23.9 2.43 23.93 2.63 23.99 2.8C24.13 2.71 24.37 2.52 24.55 2.54C24.4 3.02 23.77 3.44 23.28 3.54C23.78 3.8 24.69 4 25.17 3.43C25.51 4.07 25.04 4.34 24.58 4.68C26.34 5.47 26.08 6.36 27.23 7.06C27.08 7.12 26.42 6.99 26.36 6.98C26.52 7.17 26.67 7.37 26.8 7.59C26.88 7.8 26.94 8.03 26.97 8.26C26.99 8.41 27.04 8.56 27.13 8.69C27.21 8.82 27.33 8.93 27.47 9C27.33 9.24 27.03 9.05 26.91 9.02L26.9 9.03Z" fill="#222220" fill-opacity="1.000000" fill-rule="evenodd"/>
		<path id="Vector" d="M18.5 10.96L18.76 10.75L18.72 10.68C18.69 10.63 18.7 10.62 18.73 10.6L18.86 10.5C18.88 10.49 18.89 10.49 18.91 10.48C18.93 10.48 18.95 10.48 18.96 10.49L19.35 10.58L18.94 10.58C18.91 10.58 18.87 10.59 18.84 10.61C18.81 10.63 18.79 10.66 18.78 10.7L18.75 10.75L18.64 10.97C18.62 11.02 18.61 11.07 18.62 11.12C18.62 11.18 18.65 11.22 18.69 11.26L18.76 11.35L18.61 11.66L18.74 11.66L18.85 11.44C18.94 11.36 19 11.26 19.04 11.15C19 11.11 18.96 11.08 18.99 11.04L19.04 10.93C19.05 10.9 19.06 10.89 19.1 10.9L19.52 10.98C19.55 11 19.59 11 19.62 11C19.66 10.99 19.69 10.97 19.71 10.94C19.76 10.85 19.77 10.86 19.9 10.87L20.11 10.9C20.35 10.93 20.6 10.88 20.81 10.76C20.85 10.85 20.93 10.92 20.96 10.99C20.98 11.01 20.96 11.05 20.94 11.1L20.71 11.66L21.08 11.66L21.28 11.14C21.3 11.1 21.32 11.07 21.35 11.04L21.23 11.66L21.59 11.66L21.69 11.04C21.71 10.91 21.69 10.86 21.63 10.81C21.48 10.68 21.48 10.42 21.43 10.26C21.46 10.25 21.49 10.24 21.52 10.25C21.6 10.25 21.66 10.45 21.75 10.57C21.94 10.83 22.19 11.11 22.47 10.71C22.45 10.67 22.42 10.63 22.38 10.59L22.3 10.5C22.25 10.45 22.03 10.2 21.94 10.12C21.85 10.03 21.74 9.98 21.62 9.96C21.5 9.95 21.38 9.98 21.28 10.04C20.99 9.89 20.68 10.04 20.61 10.04L20.11 10.01C20.09 10.01 20.08 10 20.06 10C20.05 9.99 20.04 9.97 20.03 9.96L20.12 9.93C20.03 9.57 19.81 9.27 19.43 9.22C19.43 9.22 19.41 9.11 19.35 9.09L19.23 9.22C19.2 9.23 19.17 9.23 19.14 9.25L18.65 9.07L19.03 9.43C19.03 9.43 18.83 9.69 18.77 9.75C18.76 9.76 18.75 9.77 18.75 9.78C18.74 9.79 18.74 9.8 18.74 9.81C18.74 9.83 18.74 9.84 18.75 9.85C18.75 9.86 18.76 9.87 18.77 9.88L18.84 9.97C18.88 10.02 18.92 10.02 18.98 9.99L19.06 9.95C19.09 9.92 19.21 9.98 19.25 9.93C19.23 10.02 19.22 10.12 19.22 10.22L18.89 10.18C18.86 10.17 18.84 10.17 18.81 10.18C18.79 10.18 18.76 10.2 18.74 10.21L18.46 10.43C18.41 10.46 18.38 10.51 18.37 10.57C18.36 10.62 18.37 10.68 18.4 10.73L18.5 10.96ZM21.22 11.03L21 11.57L20.86 11.57L21.09 11.04C21.11 10.98 21.06 10.94 21.01 10.87C21.09 10.91 21.17 10.95 21.25 10.98C21.24 11 21.23 11.01 21.23 11.03L21.22 11.03ZM19.07 9.85L19.01 9.88C18.96 9.91 18.94 9.92 18.9 9.87L18.88 9.84C18.87 9.82 18.87 9.81 18.87 9.79C18.87 9.78 18.88 9.76 18.89 9.75L19.16 9.44L18.91 9.23L19.23 9.35L19.35 9.2C19.38 9.23 19.37 9.32 19.37 9.32C19.52 9.35 19.66 9.43 19.75 9.55C19.85 9.67 19.9 9.81 19.89 9.96C19.94 10.03 20.01 10.08 20.09 10.09L20.64 10.13C20.74 10.13 20.97 9.95 21.26 10.13C21.34 10.08 21.42 10.05 21.5 10.04C21.62 10.04 21.74 10.07 21.84 10.13C21.95 10.19 22.03 10.28 22.1 10.38C22.2 10.51 22.35 10.71 22.35 10.71C22.28 10.78 22.22 10.8 22.17 10.79C22.14 10.77 22.11 10.74 22.09 10.71C22.06 10.67 22.05 10.63 22.05 10.6C22.01 10.5 21.94 10.41 21.85 10.35C21.89 10.44 21.92 10.53 21.94 10.63C21.72 10.42 21.68 10.16 21.53 10.13C21.49 10.12 21.44 10.13 21.4 10.14C21.37 10.16 21.33 10.19 21.31 10.22C21.39 10.4 21.38 10.6 21.46 10.74C21.52 10.84 21.53 10.85 21.56 10.87C21.62 10.92 21.59 11 21.58 11.06L21.49 11.57L21.36 11.57L21.45 11.07C21.47 10.92 21.04 10.92 20.82 10.63C20.63 10.85 20.1 10.79 19.87 10.76C19.83 10.75 19.78 10.74 19.74 10.76C19.7 10.77 19.66 10.8 19.64 10.84C19.61 10.89 19.56 10.88 19.53 10.87L19.11 10.78C19.1 10.78 19.08 10.77 19.07 10.77C19.05 10.77 19.04 10.78 19.03 10.78C19.01 10.79 19 10.8 18.99 10.81C18.98 10.82 18.98 10.83 18.97 10.85L18.89 11.02C18.88 11.03 18.87 11.05 18.88 11.07C18.88 11.09 18.89 11.11 18.9 11.12L18.94 11.16C18.92 11.21 18.89 11.26 18.84 11.3L18.75 11.2C18.73 11.17 18.72 11.14 18.72 11.11C18.72 11.07 18.72 11.04 18.74 11.01L18.88 10.73C18.89 10.71 18.9 10.7 18.92 10.69C18.94 10.67 18.96 10.67 18.98 10.67L19.49 10.67L19.34 10.41C19.22 10.22 19.42 9.88 19.39 9.72C19.37 9.94 19.11 9.84 19.07 9.87L19.07 9.85ZM18.51 10.49L18.76 10.3C18.77 10.28 18.79 10.27 18.81 10.26C18.83 10.26 18.86 10.25 18.88 10.25L19.23 10.3C19.24 10.35 19.27 10.41 19.3 10.46L18.93 10.38C18.91 10.38 18.89 10.38 18.87 10.38C18.85 10.39 18.83 10.4 18.82 10.41L18.64 10.54C18.62 10.56 18.61 10.57 18.61 10.59C18.61 10.62 18.61 10.64 18.62 10.65L18.65 10.71L18.53 10.8L18.48 10.72C18.44 10.62 18.43 10.54 18.51 10.48L18.51 10.49Z" fill="#222220" fill-opacity="1.000000" fill-rule="evenodd"/>
		<path id="Vector" d="M19.58 3.96C19.69 4.03 19.82 4.1 19.95 4.15L19.95 4L19.43 3.81C19.43 3.81 19.43 3.87 19.58 3.97L19.58 3.96Z" fill="#222220" fill-opacity="1.000000" fill-rule="evenodd"/>
		<path id="Vector" d="M19.95 3.77L19.95 3.62L19.36 3.41C19.43 3.48 19.51 3.53 19.59 3.59C19.7 3.66 19.83 3.72 19.96 3.78L19.95 3.77Z" fill="#222220" fill-opacity="1.000000" fill-rule="evenodd"/>
		<path id="Vector" d="M19.95 3.42L19.95 3.26L19.3 3.03C19.3 3.03 19.42 3.13 19.58 3.23C19.69 3.31 19.82 3.37 19.95 3.42L19.95 3.42Z" fill="#222220" fill-opacity="1.000000" fill-rule="evenodd"/>
		<path id="Vector" d="M21.77 5.54L22.43 5.54C22.41 5.48 22.36 5.42 22.3 5.39C22.25 5.35 22.18 5.34 22.11 5.35C22.04 5.35 21.97 5.36 21.91 5.4C21.85 5.43 21.8 5.48 21.77 5.54Z" fill="#222220" fill-opacity="1.000000" fill-rule="evenodd"/>
		<path id="Vector" d="M21.08 3.03L20.43 3.26L20.43 3.42C20.56 3.37 20.68 3.3 20.8 3.23C20.95 3.13 21.07 3.03 21.07 3.03L21.08 3.03Z" fill="#222220" fill-opacity="1.000000" fill-rule="evenodd"/>
		<path id="Vector" d="M20.95 3.8L20.43 3.99L20.43 4.14C20.56 4.09 20.68 4.02 20.8 3.95C20.95 3.85 20.95 3.79 20.95 3.79L20.95 3.8Z" fill="#222220" fill-opacity="1.000000" fill-rule="evenodd"/>
		<path id="Vector" d="M21.02 3.41L20.44 3.62L20.44 3.77C20.57 3.72 20.69 3.66 20.81 3.58C20.89 3.53 20.96 3.47 21.03 3.41L21.02 3.41Z" fill="#222220" fill-opacity="1.000000" fill-rule="evenodd"/>
		<path id="Vector" d="M18.27 5.35C18.2 5.34 18.13 5.35 18.07 5.39C18.01 5.42 17.97 5.48 17.94 5.54L18.61 5.54C18.57 5.48 18.52 5.43 18.46 5.4C18.4 5.36 18.33 5.35 18.27 5.35Z" fill="#222220" fill-opacity="1.000000" fill-rule="evenodd"/>
		<path id="Vector" d="M21.5 2.61C21.5 2.25 20.88 1.92 20.19 1.92C19.5 1.92 18.87 2.25 18.87 2.61L18.88 2.7L19.16 4.26L17.86 5.01C17.77 5.07 17.69 5.15 17.63 5.24C17.57 5.33 17.53 5.43 17.52 5.54L17.76 5.54C17.77 5.41 17.84 5.29 17.94 5.21C18.04 5.12 18.17 5.08 18.31 5.08C18.61 5.1 18.79 5.28 18.96 5.54L19.01 5.61L19.08 5.71L17.15 5.71C17.31 5.98 17.41 6.29 17.43 6.61L17.43 10.54C17.43 11.55 18.22 12.03 19.07 12.03C19.73 12.03 19.82 12 20.19 12.36C20.55 12 20.64 12.03 21.3 12.03C22.16 12.03 22.95 11.55 22.95 10.54L22.95 6.6C22.97 6.29 23.06 5.98 23.22 5.71L21.3 5.71L21.37 5.6L21.41 5.54C21.59 5.28 21.77 5.1 22.07 5.08C22.21 5.08 22.34 5.12 22.44 5.2C22.54 5.29 22.6 5.41 22.62 5.54L22.86 5.54C22.84 5.43 22.8 5.33 22.75 5.24C22.69 5.15 22.61 5.07 22.52 5.01L21.21 4.26L21.49 2.7L21.5 2.61ZM19.14 2.79L20.11 3.12L20.11 4.62L19.39 4.25L19.14 2.79ZM19.38 5.98C19.52 6.16 19.73 6.29 19.96 6.33C19.98 6.44 20.04 6.53 20.13 6.6C20.11 6.66 20.11 6.73 20.12 6.79C20.13 6.85 20.15 6.91 20.19 6.97C20.22 7.02 20.27 7.07 20.32 7.11C20.37 7.15 20.43 7.17 20.5 7.19C20.51 7.25 20.54 7.31 20.59 7.37C20.63 7.42 20.69 7.45 20.76 7.47L20.56 7.71C20.53 7.74 20.49 7.77 20.44 7.79C20.4 7.81 20.35 7.82 20.3 7.81L19.39 7.71C19.43 7.61 19.32 7.5 19.03 7.55L19.39 6.56L19.17 6.11L18.75 6.46L18.72 7.5L18.55 7.41C18.31 7.31 18.25 7.72 18.47 7.72L18.55 7.72C18.55 7.74 18.55 7.76 18.56 7.78C18.56 7.8 18.58 7.82 18.59 7.83C18.58 7.83 18.58 7.84 18.57 7.85C18.56 7.86 18.56 7.88 18.56 7.89C18.56 7.9 18.56 7.91 18.57 7.92C18.58 7.93 18.58 7.94 18.59 7.95C18.58 7.96 18.57 7.96 18.56 7.98C18.56 7.99 18.55 8 18.55 8.01C18.55 8.03 18.55 8.04 18.55 8.05C18.56 8.06 18.57 8.08 18.58 8.08C18.56 8.11 18.55 8.14 18.55 8.17C18.55 8.2 18.55 8.22 18.56 8.25C18.57 8.28 18.59 8.3 18.61 8.32C18.63 8.34 18.66 8.36 18.68 8.37C18.81 8.4 18.9 8.26 18.92 8.18L20.34 8.61C20.43 8.64 20.52 8.64 20.61 8.62C20.7 8.6 20.79 8.56 20.85 8.49L21.22 8.17C21.19 8.26 21.2 8.35 21.23 8.44C21.27 8.52 21.33 8.59 21.41 8.63C21.4 8.72 21.4 8.81 21.4 8.9L17.71 8.9L17.71 6.61C17.7 6.39 17.65 6.18 17.57 5.98L19.38 5.98ZM20.9 6.85C20.86 6.92 20.84 7 20.85 7.09C20.85 7.17 20.88 7.25 20.92 7.32L20.86 7.38C20.6 7.34 20.49 6.95 20.49 6.95C20.49 6.99 20.49 7.02 20.49 7.06C20.41 7.03 20.35 6.98 20.3 6.91C20.26 6.84 20.24 6.76 20.25 6.68C20.31 6.71 20.37 6.73 20.44 6.74L20.46 6.63C20.38 6.62 20.31 6.59 20.25 6.54C20.19 6.49 20.14 6.42 20.12 6.35L20.1 6.35L20.2 6.35C20.3 6.35 20.4 6.33 20.5 6.3C20.54 6.36 20.6 6.4 20.66 6.44C20.72 6.47 20.78 6.49 20.85 6.5C20.83 6.61 20.85 6.73 20.9 6.84L20.9 6.85ZM21.29 7.87C21.26 7.91 21.24 7.95 21.23 7.99L21.08 8.12C21.09 8.02 21.07 7.91 21.02 7.81C20.98 7.71 20.91 7.62 20.83 7.55L20.99 7.4L21.02 7.43C21.01 7.47 21.01 7.52 21.01 7.57C21.02 7.62 21.04 7.66 21.06 7.7C21.09 7.74 21.12 7.78 21.16 7.8C21.2 7.83 21.24 7.85 21.29 7.86L21.29 7.87ZM20.58 7.81L20.7 7.7C20.79 7.77 20.85 7.85 20.89 7.95C20.93 8.05 20.95 8.16 20.94 8.27L20.8 8.39C20.78 8.41 20.75 8.44 20.72 8.45C20.75 8.34 20.75 8.23 20.73 8.12C20.7 8.01 20.65 7.9 20.58 7.81ZM20.32 7.91C20.36 7.92 20.41 7.91 20.45 7.9C20.51 7.99 20.55 8.09 20.56 8.2C20.57 8.3 20.55 8.41 20.5 8.51C20.44 8.51 20.38 8.5 20.32 8.48L20.28 8.47C20.36 8.29 20.37 8.1 20.31 7.91L20.32 7.91ZM20 7.87L20.18 7.9C20.21 8.07 20.18 8.26 20.1 8.42L19.9 8.36C19.99 8.21 20.03 8.04 20.01 7.87L20 7.87ZM19.65 7.83L19.86 7.86C19.87 8.02 19.84 8.18 19.76 8.33L19.55 8.26C19.63 8.14 19.66 7.98 19.65 7.83ZM18.8 7.78C18.79 7.79 18.77 7.79 18.75 7.79C18.74 7.79 18.72 7.78 18.71 7.77C18.69 7.76 18.68 7.75 18.67 7.73C18.67 7.72 18.67 7.7 18.67 7.68C18.72 7.65 18.78 7.64 18.83 7.64C18.89 7.64 18.95 7.66 19 7.69C19.05 7.72 19.09 7.81 19.16 7.87C19.15 7.96 19.13 8.05 19.1 8.13C19.06 8.13 19.02 8.12 18.99 8.1C18.96 8.08 18.94 8.05 18.93 8.01C18.91 7.98 18.91 7.94 18.92 7.91C18.92 7.87 18.94 7.84 18.96 7.81C18.95 7.79 18.92 7.77 18.89 7.77C18.86 7.76 18.83 7.76 18.8 7.78L18.8 7.78ZM18.67 8.16C18.71 8.17 18.75 8.18 18.8 8.19C18.8 8.2 18.79 8.21 18.79 8.22C18.78 8.23 18.78 8.23 18.77 8.24C18.76 8.25 18.75 8.25 18.74 8.25C18.73 8.26 18.72 8.26 18.71 8.25C18.7 8.25 18.69 8.25 18.68 8.24C18.67 8.23 18.67 8.23 18.66 8.22C18.66 8.21 18.66 8.2 18.66 8.19C18.66 8.18 18.66 8.17 18.67 8.16ZM18.47 7.61C18.46 7.6 18.45 7.59 18.45 7.58C18.44 7.57 18.44 7.56 18.44 7.55C18.45 7.54 18.45 7.52 18.46 7.52C18.47 7.51 18.49 7.51 18.5 7.51C18.56 7.51 18.64 7.57 18.71 7.61C18.63 7.62 18.55 7.62 18.47 7.61L18.47 7.61ZM18.67 8.01C18.71 8.05 18.83 8.03 18.83 8.03L18.83 8.06C18.78 8.13 18.63 8.1 18.66 8.01L18.67 8.01ZM18.83 7.92C18.74 7.96 18.65 7.91 18.68 7.85C18.72 7.89 18.84 7.87 18.84 7.87L18.83 7.92ZM18.96 6.89L18.79 7.51L18.85 6.51L19.12 6.29L19.25 6.58L18.92 7.55L19.01 6.89C19.01 6.85 18.98 6.84 18.98 6.89L18.96 6.89ZM18.99 7.64C19.07 7.64 19.15 7.64 19.23 7.65C19.28 7.67 19.25 7.74 19.2 7.73C19.12 7.71 19.05 7.68 18.99 7.64ZM19.29 7.79L19.5 7.82C19.51 7.96 19.48 8.11 19.41 8.23L19.22 8.17C19.26 8.05 19.29 7.92 19.3 7.79L19.29 7.79ZM22.68 10.54C22.69 10.75 22.64 10.96 22.53 11.15C22.43 11.33 22.27 11.48 22.08 11.58L22.22 11.32L22.09 11.32L21.91 11.66C21.72 11.73 21.52 11.77 21.31 11.76C20.63 11.76 20.45 11.79 20.2 12.04C19.94 11.79 19.76 11.76 19.08 11.76C18.87 11.77 18.67 11.73 18.47 11.66L18.65 11.31L18.52 11.31L18.37 11.62C18.33 11.6 18.3 11.58 18.26 11.56L18.39 11.32L18.26 11.32L18.17 11.51C18.02 11.4 17.9 11.25 17.82 11.09C17.74 10.92 17.7 10.74 17.7 10.55L17.7 9.03L22.67 9.03L22.68 10.54ZM22.82 5.98C22.73 6.18 22.69 6.39 22.68 6.61L22.68 8.9L22.41 8.9C22.3 8.75 22.22 8.57 22.18 8.39C22.16 8.48 22.15 8.57 22.17 8.66C22.18 8.74 22.21 8.83 22.26 8.9L21.91 8.9C21.84 8.74 21.78 8.56 21.75 8.38C21.65 8.5 21.71 8.81 21.78 8.9L21.55 8.9C21.54 8.79 21.55 8.67 21.58 8.56C21.46 8.54 21.33 8.48 21.33 8.34C21.35 8.37 21.38 8.38 21.41 8.39C21.44 8.4 21.47 8.4 21.5 8.4L21.6 8.32C21.27 8.33 21.26 7.98 21.52 7.81C21.26 7.81 21.06 7.67 21.16 7.4C21.11 7.37 21.08 7.33 21.05 7.29C21.02 7.25 21 7.2 20.99 7.15C20.98 7.1 20.98 7.05 20.99 7C21 6.95 21.02 6.9 21.04 6.86C21 6.8 20.97 6.72 20.96 6.64C20.95 6.56 20.96 6.48 20.99 6.41C20.86 6.41 20.73 6.36 20.63 6.27L20.61 6.27C20.77 6.21 20.9 6.1 21 5.97L22.82 5.98ZM21.83 4.88C21.56 4.92 21.33 5.25 21.14 5.54L21.12 5.57L20.92 5.57L20.92 5.61C20.9 5.83 20.69 6.14 20.21 6.14C20.02 6.15 19.85 6.09 19.7 5.98C19.61 5.91 19.55 5.82 19.51 5.71C19.5 5.68 19.49 5.64 19.49 5.61L19.49 5.57L19.29 5.57L19.24 5.54C19.05 5.25 18.82 4.92 18.56 4.88L19.29 4.46L20.19 4.94L21.09 4.46L21.83 4.88ZM20.99 4.25L20.27 4.62L20.27 3.12L21.24 2.79L20.99 4.25ZM20.19 2.95L19.12 2.54C19.21 2.33 19.63 2.16 20.19 2.16C20.75 2.16 21.16 2.34 21.25 2.54L20.19 2.95Z" fill="#222220" fill-opacity="1.000000" fill-rule="evenodd"/>
		<path id="Vector" d="M22.56 7.46L22.56 7.35C22.2 7.35 22.12 6.92 22.12 6.92C22.1 6.99 22.09 7.06 22.11 7.12C22.12 7.19 22.15 7.25 22.19 7.3C22.24 7.36 22.29 7.4 22.36 7.43C22.42 7.45 22.49 7.47 22.56 7.46L22.56 7.46Z" fill="#222220" fill-opacity="1.000000" fill-rule="evenodd"/>
		<path id="Vector" d="M22.1 8.17L22.07 8.06C21.77 8.13 21.61 7.66 21.61 7.66C21.59 7.73 21.58 7.8 21.6 7.87C21.62 7.94 21.65 8 21.71 8.06C21.76 8.11 21.82 8.14 21.89 8.16C21.96 8.18 22.03 8.18 22.1 8.17Z" fill="#222220" fill-opacity="1.000000" fill-rule="evenodd"/>
		<path id="Vector" d="M22.33 7.73C21.96 7.78 21.81 7.36 21.81 7.36C21.8 7.42 21.8 7.47 21.81 7.53C21.82 7.58 21.85 7.64 21.88 7.68C21.91 7.73 21.96 7.76 22 7.79C22.05 7.82 22.11 7.84 22.16 7.85C22.15 7.91 22.15 7.97 22.18 8.03C22.2 8.08 22.23 8.13 22.28 8.17C22.33 8.2 22.39 8.23 22.45 8.23C22.52 8.23 22.58 8.22 22.63 8.19L22.6 8.09C22.55 8.11 22.49 8.11 22.44 8.09C22.39 8.08 22.35 8.05 22.32 8.01C22.29 7.97 22.27 7.92 22.27 7.87C22.28 7.81 22.29 7.77 22.33 7.73Z" fill="#222220" fill-opacity="1.000000" fill-rule="evenodd"/>
		<path id="Vector" d="M22.1 6.53L22.1 6.42C21.62 6.32 21.66 5.99 21.66 5.99C21.64 6.06 21.63 6.12 21.65 6.19C21.66 6.26 21.69 6.32 21.73 6.37C21.78 6.42 21.83 6.47 21.9 6.49C21.96 6.52 22.03 6.53 22.1 6.53L22.1 6.53Z" fill="#222220" fill-opacity="1.000000" fill-rule="evenodd"/>
		<path id="Vector" d="M19.04 11.31L18.87 11.66L19 11.66L19.17 11.31L19.04 11.31Z" fill="#222220" fill-opacity="1.000000" fill-rule="evenodd"/>
		<path id="Vector" d="M19.3 11.31L19.13 11.66L19.26 11.66L19.43 11.31L19.3 11.31Z" fill="#222220" fill-opacity="1.000000" fill-rule="evenodd"/>
		<path id="Vector" d="M20.35 11.31L20.17 11.66L20.3 11.66L20.48 11.31L20.35 11.31Z" fill="#222220" fill-opacity="1.000000" fill-rule="evenodd"/>
		<path id="Vector" d="M20.61 11.31L20.44 11.66L20.57 11.66L20.74 11.31L20.61 11.31Z" fill="#222220" fill-opacity="1.000000" fill-rule="evenodd"/>
		<path id="Vector" d="M20.09 11.31L19.91 11.66L20.04 11.66L20.22 11.31L20.09 11.31Z" fill="#222220" fill-opacity="1.000000" fill-rule="evenodd"/>
		<path id="Vector" d="M21.61 11.66L21.74 11.66L21.91 11.31L21.78 11.31L21.61 11.66Z" fill="#222220" fill-opacity="1.000000" fill-rule="evenodd"/>
		<path id="Vector" d="M19.56 11.31L19.39 11.66L19.52 11.66L19.7 11.31L19.56 11.31Z" fill="#222220" fill-opacity="1.000000" fill-rule="evenodd"/>
		<path id="Vector" d="M19.83 11.31L19.65 11.66L19.78 11.66L19.96 11.31L19.83 11.31Z" fill="#222220" fill-opacity="1.000000" fill-rule="evenodd"/>
		<path id="Vector" d="M19.23 9.46C19.22 9.46 19.21 9.46 19.2 9.47C19.19 9.47 19.19 9.48 19.18 9.49C19.18 9.5 19.17 9.51 19.17 9.52C19.18 9.53 19.18 9.54 19.19 9.55C19.19 9.55 19.2 9.56 19.21 9.56C19.22 9.56 19.23 9.56 19.24 9.56C19.25 9.56 19.26 9.55 19.27 9.54C19.28 9.53 19.28 9.52 19.28 9.51C19.28 9.5 19.28 9.49 19.27 9.48C19.26 9.47 19.25 9.46 19.23 9.46Z" fill="#222220" fill-opacity="1.000000" fill-rule="evenodd"/>
		<path id="Vector" d="M20.19 1.68C20.62 1.67 21.04 1.8 21.39 2.04C21.45 1.77 21.55 1.5 21.7 1.26L21.27 1.31L21.04 0.83L20.61 1.06L20.19 0.65L19.77 1.06L19.33 0.83L19.11 1.31L18.68 1.26C18.83 1.5 18.93 1.77 18.99 2.04C19.34 1.8 19.76 1.67 20.19 1.68ZM19.18 1.49L19.39 1.07L19.77 1.26L20.19 0.86L20.61 1.27L21 1.08L21.19 1.5L21.45 1.47C21.38 1.58 21.33 1.71 21.29 1.84C20.95 1.65 20.57 1.55 20.19 1.55C19.8 1.55 19.43 1.65 19.09 1.84C19.05 1.71 19 1.58 18.93 1.47L19.18 1.49Z" fill="#222220" fill-opacity="1.000000" fill-rule="evenodd"/>
		<path id="Vector" d="M20.63 0.84C20.66 0.84 20.69 0.83 20.71 0.81C20.73 0.79 20.75 0.77 20.75 0.74C20.74 0.66 20.71 0.58 20.67 0.51C20.67 0.51 20.53 0.66 20.53 0.72C20.52 0.75 20.53 0.78 20.55 0.8C20.57 0.82 20.6 0.84 20.63 0.84Z" fill="#222220" fill-opacity="1.000000" fill-rule="evenodd"/>
		<path id="Vector" d="M21.33 1.09C21.35 1.1 21.36 1.1 21.38 1.1C21.39 1.1 21.41 1.1 21.42 1.1C21.43 1.09 21.45 1.09 21.46 1.08C21.47 1.07 21.48 1.06 21.49 1.04C21.5 0.96 21.51 0.88 21.5 0.8C21.5 0.8 21.31 0.88 21.29 0.94C21.27 0.96 21.27 0.99 21.28 1.02C21.29 1.05 21.31 1.07 21.33 1.09L21.33 1.09Z" fill="#222220" fill-opacity="1.000000" fill-rule="evenodd"/>
		<path id="Vector" d="M19.75 0.84C19.78 0.84 19.8 0.82 19.82 0.8C19.84 0.78 19.85 0.75 19.85 0.72C19.85 0.66 19.71 0.51 19.71 0.51C19.67 0.58 19.64 0.66 19.63 0.74C19.63 0.77 19.64 0.79 19.67 0.81C19.69 0.83 19.72 0.84 19.75 0.84Z" fill="#222220" fill-opacity="1.000000" fill-rule="evenodd"/>
		<path id="Vector" d="M19.04 1.09C19.07 1.08 19.09 1.05 19.09 1.02C19.1 1 19.1 0.97 19.09 0.94C19.06 0.88 18.88 0.8 18.88 0.8C18.86 0.88 18.87 0.97 18.89 1.04C18.89 1.06 18.9 1.07 18.91 1.08C18.93 1.09 18.94 1.1 18.95 1.1C18.97 1.1 18.98 1.11 19 1.1C19.01 1.1 19.03 1.1 19.04 1.09L19.04 1.09Z" fill="#222220" fill-opacity="1.000000" fill-rule="evenodd"/>
		<path id="Vector" d="M27.51 4.91C27.66 4.85 27.78 4.73 27.84 4.59C27.45 4.53 26.44 4.11 25.6 4.46C25.91 4.16 26.19 4.12 26.22 3.7C26.26 3.74 26.3 3.76 26.34 3.77C26.38 3.78 26.43 3.79 26.48 3.78C26.52 3.77 26.57 3.75 26.6 3.73C26.64 3.7 26.67 3.67 26.69 3.63C26.61 3.38 26.39 3.58 26.36 3.51C26.33 3.44 26.63 3.54 26.7 3.21C26.45 3.13 26.38 3.33 26.34 3.28C26.29 3.24 26.49 3.16 26.35 2.9C26.09 3.05 26.23 3.22 26.17 3.23C26.12 3.25 26.16 3.06 25.87 3.07C25.85 3.37 26.14 3.38 26.09 3.42C26.04 3.47 25.96 3.25 25.74 3.37C25.74 3.42 25.75 3.47 25.77 3.52C25.79 3.56 25.82 3.6 25.86 3.63C25.9 3.67 25.95 3.69 26 3.7C26.05 3.7 26.1 3.7 26.15 3.69C26.12 4.15 25.69 4.07 25.37 4.58C26.05 4.92 26.36 5.52 26.78 5.93C26.92 5.77 27.05 5.6 27.15 5.41C27.2 5.46 27.26 5.5 27.33 5.53C27.39 5.55 27.46 5.57 27.54 5.57C27.61 5.57 27.68 5.55 27.75 5.53C27.81 5.5 27.87 5.46 27.92 5.41C27.77 5.25 27.76 5.13 27.53 4.92L27.51 4.91ZM26.87 5C26.92 5.12 26.94 5.25 26.93 5.38C26.91 5.5 26.86 5.62 26.79 5.73C26.59 5.3 26.29 4.92 25.91 4.63C25.85 4.59 25.95 4.52 26.12 4.5C26.64 4.4 27.25 4.62 27.54 4.69C27.43 4.78 27.29 4.83 27.15 4.85C27.33 4.99 27.49 5.15 27.63 5.34C27.42 5.39 27.31 5.26 26.86 5L26.87 5Z" fill="#222220" fill-opacity="1.000000" fill-rule="evenodd"/>
		<path id="Vector" d="M22.51 12.68L22.51 12.12C21.96 12.36 21.37 12.5 20.77 12.55L20.74 12.75C20.8 12.75 20.88 12.76 20.98 12.77C20.45 12.84 19.91 12.84 19.37 12.77C19.48 12.77 19.56 12.76 19.62 12.75L19.58 12.55C18.99 12.5 18.41 12.36 17.86 12.12L17.86 12.68L17.28 12.92C17.77 13.17 18.29 13.36 18.83 13.49L18.76 13.72C19.71 13.98 20.71 13.98 21.65 13.72L21.58 13.49C22.12 13.36 22.64 13.17 23.13 12.92L22.51 12.68ZM17.59 12.94L17.99 12.78L17.99 12.32C18.35 12.45 18.71 12.55 19.08 12.61L18.85 13.35C18.42 13.25 17.99 13.11 17.59 12.93L17.59 12.94ZM20.19 13.78C19.76 13.78 19.33 13.73 18.91 13.63L19.15 12.86C19.84 12.98 20.54 12.98 21.23 12.86L21.47 13.63C21.05 13.73 20.62 13.78 20.19 13.78ZM21.52 13.35L21.29 12.61C21.66 12.54 22.03 12.44 22.38 12.31L22.38 12.77L22.79 12.93C22.38 13.11 21.96 13.25 21.52 13.35L21.52 13.35Z" fill="#222220" fill-opacity="1.000000" fill-rule="evenodd"/>
		<path id="Vector" d="M13.23 5.4C13.33 5.59 13.46 5.77 13.61 5.92C14.02 5.51 14.33 4.91 15.01 4.57C14.68 4.05 14.26 4.14 14.23 3.68C14.28 3.69 14.33 3.7 14.38 3.69C14.43 3.68 14.48 3.66 14.52 3.62C14.56 3.59 14.59 3.55 14.61 3.51C14.63 3.46 14.64 3.41 14.64 3.36C14.42 3.24 14.35 3.47 14.29 3.41C14.23 3.35 14.53 3.36 14.5 3.06C14.22 3.06 14.27 3.25 14.21 3.22C14.14 3.2 14.29 3.03 14.03 2.89C13.88 3.16 14.08 3.24 14.04 3.27C14 3.31 13.92 3.12 13.68 3.21C13.74 3.53 14.06 3.4 14.02 3.5C13.97 3.61 13.77 3.37 13.68 3.62C13.7 3.66 13.74 3.69 13.77 3.72C13.81 3.75 13.85 3.76 13.9 3.77C13.95 3.78 13.99 3.78 14.04 3.76C14.08 3.75 14.12 3.73 14.15 3.7C14.18 4.12 14.46 4.15 14.78 4.45C13.94 4.1 12.92 4.52 12.54 4.58C12.6 4.72 12.72 4.84 12.87 4.9C12.62 5.13 12.62 5.25 12.47 5.4C12.47 5.4 12.78 5.74 13.24 5.4L13.23 5.4ZM12.77 5.34C12.9 5.15 13.06 4.99 13.24 4.85C13.1 4.83 12.97 4.78 12.86 4.69C13.15 4.61 13.76 4.4 14.28 4.5C14.45 4.52 14.55 4.59 14.49 4.63C14.11 4.92 13.8 5.3 13.6 5.73C13.53 5.63 13.48 5.51 13.47 5.38C13.45 5.25 13.47 5.12 13.52 5C13.08 5.27 12.96 5.39 12.76 5.34L12.77 5.34Z" fill="#222220" fill-opacity="1.000000" fill-rule="evenodd"/>
		<path id="Vector" d="M19.82 5.09L19.82 5.34C19.85 5.3 19.9 5.28 19.94 5.27C19.98 5.25 20.03 5.25 20.08 5.25L20.08 5.61C20.07 5.7 20.05 5.79 20.01 5.86L20.37 5.86C20.32 5.79 20.3 5.7 20.3 5.61L20.3 5.25C20.34 5.25 20.39 5.25 20.44 5.26C20.48 5.28 20.52 5.3 20.55 5.33L20.55 5.08L19.82 5.08L19.82 5.09Z" fill="#222220" fill-opacity="1.000000" fill-rule="evenodd"/>
	</g>
</svg>
